<?xml version="1.0" encoding="utf-8"?>
<!-- Generator: Adobe Illustrator 24.0.0, SVG Export Plug-In . SVG Version: 6.00 Build 0)  -->
<svg version="1.1" id="Layer_1" xmlns="http://www.w3.org/2000/svg" xmlns:xlink="http://www.w3.org/1999/xlink" x="0px" y="0px"
	 viewBox="0 0 33 38.8" style="enable-background:new 0 0 33 38.8;" xml:space="preserve">
<style type="text/css">
	.st0{display:none;}
	.st1{display:inline;fill:#0064D5;}
	.st2{fill:none;stroke:#0064D5;stroke-miterlimit:10;}
	.st3{fill:none;stroke:#0064D5;stroke-width:2;stroke-miterlimit:10;}
	.st4{fill:none;stroke:#0064D5;stroke-width:0.75;stroke-linecap:round;stroke-miterlimit:10;}
	.st5{fill:none;stroke:#0064D5;stroke-linecap:round;stroke-miterlimit:10;}
	.st6{fill:#0064D5;}
</style>
<g class="st0">
	<path class="st1" d="M15.8,0.5c1.1,0,2.3,0,3.4,0c1,0,1.4,0.3,1.4,1.3c0,1,0,1.9,0,2.9c0,0.9-0.4,1.3-1.3,1.3c-0.4,0-1-0.3-1,0.6
		c0,0.7,0.1,1,0.9,1.1c2,0.4,3.8,1.3,5.5,2.4c0.3,0.2,0.5,0.6,1,0.2c0.3-0.4,0.6-0.6,0.2-1.1c-0.2-0.2-0.2-0.5,0-0.8
		c0.7-0.9,1.4-1.7,2.3-2.3c0.4-0.3,0.8-0.1,1.1,0.3c1,1,2,1.9,2.9,2.9c0.2,0.2,0.4,0.4,0.3,0.6c-0.1,1.3-1.3,1.8-2,2.6
		c-0.3,0.4-0.8,0.5-1.2,0.2c-0.5-0.4-0.7-0.1-1,0.2c-0.5,0.4-0.1,0.7,0.1,1c1.9,2.7,2.8,5.7,2.8,9c0,7.7-5.9,14.2-13.7,15.2
		C10,39.1,2.7,34,0.9,26.6c-2.1-8.4,3-16.6,11.3-18.7c0.4-0.1,1,0.1,1.1-0.6c0.1-0.7,0.2-1.4-1-1.3c-1,0.1-1.4-0.4-1.3-1.4
		c0-1,0-2,0-3c0-0.8,0.4-1.1,1.1-1.1C13.4,0.5,14.6,0.5,15.8,0.5z M15.9,8.4C8,8.4,1.4,14.8,1.4,22.7c0,7.9,6.5,14.5,14.4,14.6
		c7.9,0,14.5-6.5,14.5-14.4C30.3,15,23.8,8.4,15.9,8.4z M31.8,10.3c-0.3-0.4-0.4-0.5-0.6-0.6c-0.5-0.5-1-1-1.5-1.5
		c-1.1-1.2-1.1-1.1-2.3,0c-0.6,0.6-0.8,1,0,1.6c0.6,0.5,1.1,1.1,1.7,1.7c0.2,0.2,0.4,0.8,0.9,0.5C30.6,11.4,31.2,10.8,31.8,10.3z
		 M13,4.3c0.2-0.1,0.3,0.1,0.3,0.2c0,0.4,0.2,0.6,0.6,0.6c0.5-0.1,0.3-0.5,0.3-0.7c0-0.8,0-1.6,0-2.4c0-0.3,0-0.5-0.4-0.5
		c-0.4,0-0.5,0.2-0.5,0.5c0,0.4,0.2,0.9-0.3,1.2c-0.3-0.4-0.2-0.8-0.2-1.2c0-0.3,0-0.6-0.4-0.6c-0.5,0-0.5,0.3-0.5,0.6
		c0,0.7,0,1.5,0,2.2c0,0.3-0.3,0.8,0.4,0.9C13,5.2,12.8,4.6,13,4.3z M16.1,4.6c-0.2,0-0.3,0-0.5,0c0-0.8,0-1.6,0-2.4
		c0-0.3,0.1-0.7-0.4-0.7c-0.6,0-0.5,0.4-0.5,0.7c0,0.6,0.1,1.3,0,1.9c-0.1,0.9,0.3,1.1,1.1,1.1c1,0,1.4-0.2,1.3-1.2
		c-0.1-0.6,0-1.2,0-1.8c0-0.3,0-0.6-0.4-0.6c-0.5,0-0.5,0.3-0.5,0.7C16.1,2.9,16.1,3.7,16.1,4.6z M18.5,2.9c0.1,0,0.2,0,0.3,0
		c0,0.5,0,1,0,1.5c0,0.3-0.1,0.6,0.4,0.6c0.5,0,0.5-0.3,0.5-0.7c0-0.6,0-1.3,0-1.9c0-0.4,0.3-0.9-0.3-1c-0.8-0.2-0.4,0.6-0.8,0.8
		c-0.4-0.2-0.1-1.1-0.8-0.8c-0.6,0.2-0.3,0.7-0.3,1c-0.1,0.7,0,1.4,0,2.1c0,0.4,0.1,0.6,0.5,0.6c0.4,0,0.4-0.2,0.4-0.5
		C18.4,4,18.2,3.5,18.5,2.9z M15.9,7.4c0.4,0,0.8,0,1.3,0c0.5,0,0.8,0.1,0.8-0.6c0-0.5-0.1-0.9-0.7-0.8c-0.9,0.1-1.7,0-2.6,0
		c-0.6,0-0.8,0.1-0.8,0.7c0,0.7,0.3,0.7,0.9,0.6C15,7.4,15.4,7.4,15.9,7.4z M26.6,10.3c-0.3,0.1-0.8,0.6-0.7,0.7
		c0.5,0.7,1.1,1.3,1.8,1.8c0.2,0.1,0.6-0.3,0.7-0.7C28.4,11.9,26.8,10.3,26.6,10.3z"/>
	<path class="st1" d="M8.3,30.4c-1.4,1.4-0.2,1.8,0.6,2.4c1.6,1.1,3.3,1.8,5.2,2.1c1,0.1,1.9,0.4,1.7-1.1c0.1,0,0.3,0.1,0.3,0.1
		c-0.1,1.3,0.7,1.2,1.7,1.1c2-0.3,3.7-1,5.4-2.2c1.3-0.9,1.3-0.9,0.5-2.1c0.1,0,0.2-0.1,0.2-0.1c0.8,1,1.3,0.4,1.9-0.3
		c1.2-1.6,2-3.4,2.3-5.4c0.2-1.5,0.2-1.5-1.2-1.9c0.3-0.4,0.7-0.2,1.1-0.3c0.5-0.1,0.1-0.7,0.4-0.8c1.8,3.1-2.1,10.2-6.9,12.5
		c-6.6,3.2-14.6,0-17.3-6.9c-2.7-6.9,1.1-14.6,8.2-16.7C18,9,25.8,12.3,26.9,17.1c-0.7-0.4-0.8-1-1.2-1.5c-0.9-1.2-0.9-1.2-2.1-0.4
		c0-0.1-0.1-0.2-0.1-0.2c0.9-0.8,0.5-1.3-0.3-1.9c-1.7-1.2-3.4-2-5.4-2.3c-0.9-0.1-2-0.6-1.8,1.1c-0.1,0-0.3-0.1-0.3-0.1
		c0.1-1.2-0.6-1.3-1.6-1.1c-2,0.3-3.8,1-5.4,2.2c-0.8,0.6-1.9,1-0.5,2.3c-1.5-1.4-2-0.1-2.5,0.7c-1.2,1.7-1.7,3.6-2.1,5.6
		c-0.2,1.2,0.7,0.9,1.4,1.2c-1.9,0-1.4,1-1.2,2c0.3,1.8,1,3.4,2,4.8C6.4,30.5,6.8,31.8,8.3,30.4z"/>
	<path class="st1" d="M9.8,16.2c0.4,0,0.6,0.3,0.9,0.5c1.1,1.1,2.2,2.2,3.3,3.3c0.6,0.6,1.1,1.3,2.2,1.3c0.7,0,1.2,0.7,1.2,1.5
		c0,1,0.6,1.5,1.5,1.7c1,0.2,1.6,1,2.1,1.8c0.3,0.5,0.1,1-0.3,1.4c-0.4,0.4-0.9,0.6-1.5,0.3c-0.8-0.5-1.6-1.1-1.8-2.1
		c-0.2-0.9-0.6-1.4-1.6-1.4c-1-0.1-1.6-0.6-1.6-1.6c0-0.5-0.3-0.8-0.6-1.2c-1.4-1.3-2.7-2.7-4.1-4.1c-0.3-0.3-0.6-0.6-0.3-1
		C9.4,16.4,9.6,16.2,9.8,16.2z M17.2,24.1c0.1,0.6,0.8,0.8,0.8,1.4c-0.1,0.7,0.4,1,0.8,1.4c0.4,0.4,0.9,0.9,1.5,0.3
		c0.6-0.6,0-1-0.3-1.5C19.3,24.8,17.9,25.1,17.2,24.1z M17,22.8c-0.1-0.7-0.4-1.1-1.1-1.1c-0.7,0-1.2,0.4-1.2,1.1
		c0,0.7,0.4,1.1,1.1,1.1C16.5,24,16.9,23.5,17,22.8z M14.6,21.4c-0.1,0.1-0.1,0.1-0.2,0.2c-1.5-1.5-3.1-3.1-4.6-4.6
		c0.1-0.1,0.1-0.1,0.2-0.2C11.5,18.3,13,19.9,14.6,21.4z"/>
</g>
<circle class="st2" cx="15.8" cy="22.8" r="12.5"/>
<circle class="st2" cx="15.8" cy="22.8" r="12.5"/>
<circle class="st3" cx="15.8" cy="22.8" r="15.1"/>
<circle class="st4" cx="15.8" cy="22.8" r="0.9"/>
<g>
	<line class="st5" x1="15.8" y1="10.3" x2="15.8" y2="13.7"/>
	<line class="st5" x1="24.7" y1="14" x2="22.3" y2="16.3"/>
	<line class="st5" x1="28.4" y1="22.8" x2="25" y2="22.8"/>
	<line class="st5" x1="24.7" y1="31.7" x2="22.3" y2="29.3"/>
	<line class="st5" x1="15.8" y1="35.4" x2="15.8" y2="32"/>
	<line class="st5" x1="7" y1="31.7" x2="9.3" y2="29.3"/>
	<line class="st5" x1="3.3" y1="22.8" x2="6.7" y2="22.8"/>
	<line class="st5" x1="7" y1="14" x2="9.3" y2="16.3"/>
</g>
<path class="st2" d="M18.1,7.9c-0.7-0.1-1.4-0.2-2.3-0.2c-0.9,0-1.7,0.1-2.4,0.2c0-0.8,0-1.5,0-2.3h4.6V7.9z"/>
<rect x="11.6" y="1" class="st3" width="8.5" height="4.6"/>
<rect x="25.5" y="10.5" transform="matrix(0.7071 0.7071 -0.7071 0.7071 16.0615 -15.8665)" class="st2" width="3.3" height="1.9"/>
<rect x="26.3" y="7.8" transform="matrix(0.7071 0.7071 -0.7071 0.7071 15.2663 -17.7863)" class="st2" width="5.5" height="3.5"/>
<path class="st6" d="M12.4,15.3L12.4,15.3c0.2-0.1,0.4,0,0.5,0.2l2.8,6.2c0.1,0.2,0,0.4-0.2,0.5l0,0c-0.2,0.1-0.4,0-0.5-0.2
	l-2.8-6.2C12.2,15.6,12.2,15.4,12.4,15.3z"/>
<path class="st6" d="M20,26.8L20,26.8c-0.1,0.1-0.4,0.2-0.5,0l-3.1-2.9c-0.1-0.1-0.2-0.4,0-0.5l0,0c0.1-0.1,0.4-0.2,0.5,0l3.1,2.9
	C20.2,26.4,20.2,26.6,20,26.8z"/>
</svg>
