<?xml version="1.0" encoding="utf-8"?>
<!-- Generator: Adobe Illustrator 24.0.0, SVG Export Plug-In . SVG Version: 6.00 Build 0)  -->
<svg version="1.1" id="Layer_1" xmlns="http://www.w3.org/2000/svg" xmlns:xlink="http://www.w3.org/1999/xlink" x="0px" y="0px"
	 viewBox="0 0 30.3 36" style="enable-background:new 0 0 30.3 36;" xml:space="preserve">
<style type="text/css">
	.st0{display:none;}
	.st1{display:inline;fill:#0064D5;}
	.st2{fill:#1D3D70;}
	.st3{opacity:0.6;}
	.st4{fill:#EAC113;}
</style>
<g class="st0">
	<path class="st1" d="M11-0.9c1.1,0,2.3,0,3.4,0c1,0,1.4,0.3,1.4,1.3s0,1.9,0,2.9c0,0.9-0.4,1.3-1.3,1.3c-0.4,0-1-0.3-1,0.6
		c0,0.7,0.1,1,0.9,1.1c2,0.4,3.8,1.3,5.5,2.4c0.3,0.2,0.5,0.6,1,0.2c0.3-0.4,0.6-0.6,0.2-1.1c-0.2-0.2-0.2-0.5,0-0.8
		c0.7-0.9,1.4-1.7,2.3-2.3c0.4-0.3,0.8-0.1,1.1,0.3c1,1,2,1.9,2.9,2.9c0.2,0.2,0.4,0.4,0.3,0.6c-0.1,1.3-1.3,1.8-2,2.6
		c-0.3,0.4-0.8,0.5-1.2,0.2c-0.5-0.4-0.7-0.1-1,0.2c-0.5,0.4-0.1,0.7,0.1,1c1.9,2.7,2.8,5.7,2.8,9c0,7.7-5.9,14.2-13.7,15.2
		c-7.5,1-14.8-4.1-16.6-11.5C-6,16.8-0.9,8.6,7.4,6.5c0.4-0.1,1,0.1,1.1-0.6s0.2-1.4-1-1.3c-1,0.1-1.4-0.4-1.3-1.4c0-1,0-2,0-3
		c0-0.8,0.4-1.1,1.1-1.1C8.6-0.9,9.8-0.9,11-0.9z M11.1,7C3.2,7-3.4,13.4-3.4,21.3S3.1,35.8,11,35.9c7.9,0,14.5-6.5,14.5-14.4
		S19,7,11.1,7z M27,8.9c-0.3-0.4-0.4-0.5-0.6-0.6c-0.5-0.5-1-1-1.5-1.5c-1.1-1.2-1.1-1.1-2.3,0c-0.6,0.6-0.8,1,0,1.6
		c0.6,0.5,1.1,1.1,1.7,1.7c0.2,0.2,0.4,0.8,0.9,0.5C25.8,10,26.4,9.4,27,8.9z M8.2,2.9C8.4,2.8,8.5,3,8.5,3.1c0,0.4,0.2,0.6,0.6,0.6
		C9.6,3.6,9.4,3.2,9.4,3c0-0.8,0-1.6,0-2.4c0-0.3,0-0.5-0.4-0.5S8.5,0.3,8.5,0.6c0,0.4,0.2,0.9-0.3,1.2C7.9,1.4,8,1,8,0.6
		C8,0.3,8,0,7.6,0C7.1,0,7.1,0.3,7.1,0.6c0,0.7,0,1.5,0,2.2c0,0.3-0.3,0.8,0.4,0.9S8,3.2,8.2,2.9z M11.3,3.2c-0.2,0-0.3,0-0.5,0
		c0-0.8,0-1.6,0-2.4c0-0.3,0.1-0.7-0.4-0.7c-0.6,0-0.5,0.4-0.5,0.7c0,0.6,0.1,1.3,0,1.9C9.8,3.6,10.2,3.8,11,3.8
		c1,0,1.4-0.2,1.3-1.2c-0.1-0.6,0-1.2,0-1.8c0-0.3,0-0.6-0.4-0.6c-0.5,0-0.5,0.3-0.5,0.7C11.3,1.5,11.3,2.3,11.3,3.2z M13.7,1.5
		c0.1,0,0.2,0,0.3,0c0,0.5,0,1,0,1.5c0,0.3-0.1,0.6,0.4,0.6s0.5-0.3,0.5-0.7c0-0.6,0-1.3,0-1.9c0-0.4,0.3-0.9-0.3-1
		c-0.8-0.2-0.4,0.6-0.8,0.8C13.4,0.6,13.7-0.3,13,0c-0.6,0.2-0.3,0.7-0.3,1c-0.1,0.7,0,1.4,0,2.1c0,0.4,0.1,0.6,0.5,0.6
		s0.4-0.2,0.4-0.5C13.6,2.6,13.4,2.1,13.7,1.5z M11.1,6c0.4,0,0.8,0,1.3,0s0.8,0.1,0.8-0.6c0-0.5-0.1-0.9-0.7-0.8
		c-0.9,0.1-1.7,0-2.6,0c-0.6,0-0.8,0.1-0.8,0.7C9.1,6,9.4,6,10,5.9C10.2,6,10.6,6,11.1,6z M21.8,8.9C21.5,9,21,9.5,21.1,9.6
		c0.5,0.7,1.1,1.3,1.8,1.8c0.2,0.1,0.6-0.3,0.7-0.7C23.6,10.5,22,8.9,21.8,8.9z"/>
	<path class="st1" d="M3.5,29c-1.4,1.4-0.2,1.8,0.6,2.4c1.6,1.1,3.3,1.8,5.2,2.1c1,0.1,1.9,0.4,1.7-1.1c0.1,0,0.3,0.1,0.3,0.1
		c-0.1,1.3,0.7,1.2,1.7,1.1c2-0.3,3.7-1,5.4-2.2c1.3-0.9,1.3-0.9,0.5-2.1c0.1,0,0.2-0.1,0.2-0.1c0.8,1,1.3,0.4,1.9-0.3
		c1.2-1.6,2-3.4,2.3-5.4c0.2-1.5,0.2-1.5-1.2-1.9c0.3-0.4,0.7-0.2,1.1-0.3c0.5-0.1,0.1-0.7,0.4-0.8c1.8,3.1-2.1,10.2-6.9,12.5
		c-6.6,3.2-14.6,0-17.3-6.9S0.5,11.5,7.6,9.4c5.6-1.8,13.4,1.5,14.5,6.3c-0.7-0.4-0.8-1-1.2-1.5C20,13,20,13,18.8,13.8
		c0-0.1-0.1-0.2-0.1-0.2c0.9-0.8,0.5-1.3-0.3-1.9c-1.7-1.2-3.4-2-5.4-2.3c-0.9-0.1-2-0.6-1.8,1.1c-0.1,0-0.3-0.1-0.3-0.1
		c0.1-1.2-0.6-1.3-1.6-1.1c-2,0.3-3.8,1-5.4,2.2c-0.8,0.6-1.9,1-0.5,2.3c-1.5-1.4-2-0.1-2.5,0.7c-1.2,1.7-1.7,3.6-2.1,5.6
		c-0.2,1.2,0.7,0.9,1.4,1.2c-1.9,0-1.4,1-1.2,2c0.3,1.8,1,3.4,2,4.8C1.6,29.1,2,30.4,3.5,29z"/>
	<path class="st1" d="M5,14.8c0.4,0,0.6,0.3,0.9,0.5c1.1,1.1,2.2,2.2,3.3,3.3c0.6,0.6,1.1,1.3,2.2,1.3c0.7,0,1.2,0.7,1.2,1.5
		c0,1,0.6,1.5,1.5,1.7c1,0.2,1.6,1,2.1,1.8c0.3,0.5,0.1,1-0.3,1.4c-0.4,0.4-0.9,0.6-1.5,0.3c-0.8-0.5-1.6-1.1-1.8-2.1
		c-0.2-0.9-0.6-1.4-1.6-1.4c-1-0.1-1.6-0.6-1.6-1.6c0-0.5-0.3-0.8-0.6-1.2c-1.4-1.3-2.7-2.7-4.1-4.1c-0.3-0.3-0.6-0.6-0.3-1
		C4.6,15,4.8,14.8,5,14.8z M12.4,22.7c0.1,0.6,0.8,0.8,0.8,1.4c-0.1,0.7,0.4,1,0.8,1.4s0.9,0.9,1.5,0.3s0-1-0.3-1.5
		C14.5,23.4,13.1,23.7,12.4,22.7z M12.2,21.4c-0.1-0.7-0.4-1.1-1.1-1.1c-0.7,0-1.2,0.4-1.2,1.1s0.4,1.1,1.1,1.1
		C11.7,22.6,12.1,22.1,12.2,21.4z M9.8,20c-0.1,0.1-0.1,0.1-0.2,0.2c-1.5-1.5-3.1-3.1-4.6-4.6c0.1-0.1,0.1-0.1,0.2-0.2
		C6.7,16.9,8.2,18.5,9.8,20z"/>
</g>
<g>
	<path class="st2" d="M1.9,28.7c-0.5-0.2-0.8-0.5-1.2-0.8c-0.3-0.4-0.5-0.8-0.5-1.3c0-0.1,0-0.2,0-0.4c0-3.7,0-7.5,0-11.1
		c0-1.3,0.7-2.3,1.9-2.5c0.5-0.1,0.5-0.1,0.5-0.6c0-1-0.1-2.2,0-3.2c0.1-2,0.9-3.8,2.3-5.2c1.3-1.3,2.8-2.1,4.5-2.3
		c1.6-0.2,3.2,0.1,4.7,1c2,1.2,3.2,3,3.7,5.4c0.1,0.6,0.2,1,0.2,1.6c0,1,0,2,0,3c0,0.2,0,0.2,0.2,0.3c1.2,0.2,2.1,1.1,2.1,2.5
		c0,3.8,0,7.6,0,11.3c0,1-0.6,1.9-1.5,2.3c-0.1,0-0.1,0.1-0.2,0.1C13,28.7,7.5,28.7,1.9,28.7z M10.3,14.1c-2.5,0-5,0-7.5,0
		c-0.6,0-0.9,0.3-0.9,0.9c0,3.7,0,7.5,0,11.1c0,0.7,0.3,0.9,0.9,0.9c5,0,10.1,0,15.1,0c0.6,0,0.9-0.3,0.9-0.9c0-3.7,0-7.4,0-11.1
		c0-0.7-0.3-0.9-0.9-0.9C15.2,14.1,12.8,14.1,10.3,14.1z M10.3,12.5c2,0,3.9,0,5.9,0c0.2,0,0.3-0.1,0.3-0.3c0-0.9,0-1.9,0-2.9
		c0-1.8-0.6-3.4-1.9-4.7C12.6,2.8,10.5,2.3,8,3.3C5.9,4.1,4.2,6.5,4.1,8.9c0,1.1,0,2.2,0,3.3c0,0.3,0.1,0.3,0.3,0.3
		C6.4,12.5,8.4,12.5,10.3,12.5z"/>
	<path class="st2" d="M9.6,22.1c0-0.5,0-1,0-1.5c0-0.2,0-0.3-0.2-0.4c-0.7-0.6-0.8-1.6-0.2-2.4c0.6-0.7,1.6-0.7,2.3,0
		c0.6,0.7,0.5,1.7-0.2,2.4c-0.2,0.1-0.2,0.3-0.2,0.5c0,0.9,0,2,0,2.9c0,0.2-0.1,0.3-0.3,0.3c-0.4,0-0.7,0-1.1,0
		c-0.2,0-0.2,0-0.2-0.2C9.6,23.1,9.6,22.5,9.6,22.1z"/>
</g>
<g class="st3">
	<path class="st4" d="M21.9,11.2H7.6V7.5c0-3.9,3.1-7,7-7h0.3c3.9,0,7,3.1,7,7V11.2z"/>
	<path class="st4" d="M21.6,26.4H7.7c-1.3,0-2.4-1.1-2.4-2.4V13.9c0-1.7,1.4-3,3-3H21c1.7,0,3,1.4,3,3V24C24,25.3,23,26.4,21.6,26.4
		z"/>
</g>
</svg>
