<?xml version="1.0" encoding="utf-8"?>
<!-- Generator: Adobe Illustrator 24.0.0, SVG Export Plug-In . SVG Version: 6.00 Build 0)  -->
<svg version="1.1" id="Layer_1" xmlns="http://www.w3.org/2000/svg" xmlns:xlink="http://www.w3.org/1999/xlink" x="0px" y="0px"
	 viewBox="0 0 20.3 38.8" style="enable-background:new 0 0 20.3 38.8;" xml:space="preserve">
<style type="text/css">
	.st0{display:none;}
	.st1{display:inline;fill:#0064D5;}
	.st2{fill:#1D3D70;}
	.st3{opacity:0.6;fill:#EAC113;enable-background:new    ;}
</style>
<g class="st0">
	<path class="st1" d="M9.5,0.5c1.1,0,2.3,0,3.4,0c1,0,1.4,0.3,1.4,1.3s0,1.9,0,2.9C14.3,5.6,13.9,6,13,6c-0.4,0-1-0.3-1,0.6
		c0,0.7,0.1,1,0.9,1.1c2,0.4,3.8,1.3,5.5,2.4c0.3,0.2,0.5,0.6,1,0.2c0.3-0.4,0.6-0.6,0.2-1.1c-0.2-0.2-0.2-0.5,0-0.8
		c0.7-0.9,1.4-1.7,2.3-2.3C22.3,5.8,22.7,6,23,6.4c1,1,2,1.9,2.9,2.9c0.2,0.2,0.4,0.4,0.3,0.6c-0.1,1.3-1.3,1.8-2,2.6
		c-0.3,0.4-0.8,0.5-1.2,0.2c-0.5-0.4-0.7-0.1-1,0.2c-0.5,0.4-0.1,0.7,0.1,1c1.9,2.7,2.8,5.7,2.8,9c0,7.7-5.9,14.2-13.7,15.2
		C3.7,39.1-3.6,34-5.4,26.6C-7.5,18.2-2.4,10,5.9,7.9C6.3,7.8,6.9,8,7,7.3S7.2,5.9,6,6C5,6.1,4.6,5.6,4.7,4.6c0-1,0-2,0-3
		c0-0.8,0.4-1.1,1.1-1.1C7.1,0.5,8.3,0.5,9.5,0.5z M9.6,8.4c-7.9,0-14.5,6.4-14.5,14.3S1.6,37.2,9.5,37.3c7.9,0,14.5-6.5,14.5-14.4
		S17.5,8.4,9.6,8.4z M25.5,10.3c-0.3-0.4-0.4-0.5-0.6-0.6c-0.5-0.5-1-1-1.5-1.5c-1.1-1.2-1.1-1.1-2.3,0c-0.6,0.6-0.8,1,0,1.6
		c0.6,0.5,1.1,1.1,1.7,1.7c0.2,0.2,0.4,0.8,0.9,0.5C24.3,11.4,24.9,10.8,25.5,10.3z M6.7,4.3C6.9,4.2,7,4.4,7,4.5
		c0,0.4,0.2,0.6,0.6,0.6C8.1,5,7.9,4.6,7.9,4.4c0-0.8,0-1.6,0-2.4c0-0.3,0-0.5-0.4-0.5S7,1.7,7,2c0,0.4,0.2,0.9-0.3,1.2
		C6.4,2.8,6.5,2.4,6.5,2c0-0.3,0-0.6-0.4-0.6C5.6,1.4,5.6,1.7,5.6,2c0,0.7,0,1.5,0,2.2C5.6,4.5,5.3,5,6,5.1S6.5,4.6,6.7,4.3z
		 M9.8,4.6c-0.2,0-0.3,0-0.5,0c0-0.8,0-1.6,0-2.4c0-0.3,0.1-0.7-0.4-0.7c-0.6,0-0.5,0.4-0.5,0.7c0,0.6,0.1,1.3,0,1.9
		C8.3,5,8.7,5.2,9.5,5.2c1,0,1.4-0.2,1.3-1.2c-0.1-0.6,0-1.2,0-1.8c0-0.3,0-0.6-0.4-0.6c-0.5,0-0.5,0.3-0.5,0.7
		C9.8,2.9,9.8,3.7,9.8,4.6z M12.2,2.9c0.1,0,0.2,0,0.3,0c0,0.5,0,1,0,1.5c0,0.3-0.1,0.6,0.4,0.6s0.5-0.3,0.5-0.7c0-0.6,0-1.3,0-1.9
		c0-0.4,0.3-0.9-0.3-1c-0.8-0.2-0.4,0.6-0.8,0.8c-0.4-0.2-0.1-1.1-0.8-0.8c-0.6,0.2-0.3,0.7-0.3,1c-0.1,0.7,0,1.4,0,2.1
		c0,0.4,0.1,0.6,0.5,0.6s0.4-0.2,0.4-0.5C12.1,4,11.9,3.5,12.2,2.9z M9.6,7.4c0.4,0,0.8,0,1.3,0s0.8,0.1,0.8-0.6
		c0-0.5-0.1-0.9-0.7-0.8c-0.9,0.1-1.7,0-2.6,0C7.8,6,7.6,6.1,7.6,6.7c0,0.7,0.3,0.7,0.9,0.6C8.7,7.4,9.1,7.4,9.6,7.4z M20.3,10.3
		c-0.3,0.1-0.8,0.6-0.7,0.7c0.5,0.7,1.1,1.3,1.8,1.8c0.2,0.1,0.6-0.3,0.7-0.7C22.1,11.9,20.5,10.3,20.3,10.3z"/>
	<path class="st1" d="M2,30.4c-1.4,1.4-0.2,1.8,0.6,2.4c1.6,1.1,3.3,1.8,5.2,2.1c1,0.1,1.9,0.4,1.7-1.1c0.1,0,0.3,0.1,0.3,0.1
		c-0.1,1.3,0.7,1.2,1.7,1.1c2-0.3,3.7-1,5.4-2.2c1.3-0.9,1.3-0.9,0.5-2.1c0.1,0,0.2-0.1,0.2-0.1c0.8,1,1.3,0.4,1.9-0.3
		c1.2-1.6,2-3.4,2.3-5.4c0.2-1.5,0.2-1.5-1.2-1.9c0.3-0.4,0.7-0.2,1.1-0.3c0.5-0.1,0.1-0.7,0.4-0.8c1.8,3.1-2.1,10.2-6.9,12.5
		c-6.6,3.2-14.6,0-17.3-6.9S-1,12.9,6.1,10.8c5.6-1.8,13.4,1.5,14.5,6.3c-0.7-0.4-0.8-1-1.2-1.5c-0.9-1.2-0.9-1.2-2.1-0.4
		c0-0.1-0.1-0.2-0.1-0.2c0.9-0.8,0.5-1.3-0.3-1.9c-1.7-1.2-3.4-2-5.4-2.3c-0.9-0.1-2-0.6-1.8,1.1c-0.1,0-0.3-0.1-0.3-0.1
		c0.1-1.2-0.6-1.3-1.6-1.1c-2,0.3-3.8,1-5.4,2.2c-0.8,0.6-1.9,1-0.5,2.3c-1.5-1.4-2-0.1-2.5,0.7c-1.2,1.7-1.7,3.6-2.1,5.6
		c-0.2,1.2,0.7,0.9,1.4,1.2c-1.9,0-1.4,1-1.2,2c0.3,1.8,1,3.4,2,4.8C0.1,30.5,0.5,31.8,2,30.4z"/>
	<path class="st1" d="M3.5,16.2c0.4,0,0.6,0.3,0.9,0.5c1.1,1.1,2.2,2.2,3.3,3.3c0.6,0.6,1.1,1.3,2.2,1.3c0.7,0,1.2,0.7,1.2,1.5
		c0,1,0.6,1.5,1.5,1.7c1,0.2,1.6,1,2.1,1.8c0.3,0.5,0.1,1-0.3,1.4s-0.9,0.6-1.5,0.3c-0.8-0.5-1.6-1.1-1.8-2.1
		c-0.2-0.9-0.6-1.4-1.6-1.4c-1-0.1-1.6-0.6-1.6-1.6c0-0.5-0.3-0.8-0.6-1.2c-1.4-1.3-2.7-2.7-4.1-4.1c-0.3-0.3-0.6-0.6-0.3-1
		C3.1,16.4,3.3,16.2,3.5,16.2z M10.9,24.1c0.1,0.6,0.8,0.8,0.8,1.4c-0.1,0.7,0.4,1,0.8,1.4s0.9,0.9,1.5,0.3s0-1-0.3-1.5
		C13,24.8,11.6,25.1,10.9,24.1z M10.7,22.8c-0.1-0.7-0.4-1.1-1.1-1.1c-0.7,0-1.2,0.4-1.2,1.1s0.4,1.1,1.1,1.1
		C10.2,24,10.6,23.5,10.7,22.8z M8.3,21.4c-0.1,0.1-0.1,0.1-0.2,0.2C6.6,20.1,5,18.5,3.5,17c0.1-0.1,0.1-0.1,0.2-0.2
		C5.2,18.3,6.7,19.9,8.3,21.4z"/>
</g>
<path class="st2" d="M14.2,0c-3.1,0-6.1,0-9.1,0C4,0,2.7,0,1.5,0C0.7,0,0.2,0.4,0.1,1C0,1.2,0,1.5,0,1.7c0,6,0,12,0,18c0,3,0,6,0,9
	c0,0.2,0,0.5,0.1,0.9c0.3,0.5,0.9,0.7,1.4,0.7c4.3,0,8.5,0,12.7,0c0.9,0,1.6-0.5,1.6-1.6c0-4.5,0-9,0-13.5c0-4.6,0-9.1,0-13.6
	C15.8,0.6,15.2,0,14.2,0z M8,28.4c-0.5,0-1-0.4-1-1c0-0.5,0.4-1,1-1c0.5,0,1,0.4,1,1C9,27.9,8.6,28.4,8,28.4z M14.8,14.8
	c0,3.2,0,6.5,0,9.8c0,0.2,0,0.3-0.3,0.3c-4.3,0-8.6,0-12.8,0c-0.3,0-0.4-0.1-0.4-0.4c0-6.5,0-13.1,0-19.6c0-0.2,0.1-0.3,0.3-0.3
	c4.3,0,8.7,0,12.9,0c0.2,0,0.3,0,0.3,0.3C14.8,8.2,14.8,11.4,14.8,14.8z"/>
<path class="st3" d="M5.7,1.5h13c0.4,0,0.8,0.4,0.8,0.8v20c0,0.4-0.4,0.8-0.8,0.8h-13c-0.4,0-0.8-0.4-0.8-0.8v-20
	C4.9,1.9,5.3,1.5,5.7,1.5z"/>
</svg>
