<?xml version="1.0" encoding="utf-8"?>
<!-- Generator: Adobe Illustrator 24.0.0, SVG Export Plug-In . SVG Version: 6.00 Build 0)  -->
<svg version="1.1" id="Layer_1" xmlns="http://www.w3.org/2000/svg" xmlns:xlink="http://www.w3.org/1999/xlink" x="0px" y="0px"
	 viewBox="0 0 512 512" style="enable-background:new 0 0 512 512;" xml:space="preserve">
<g>
	<path d="M116.4,327.1c8.5,5,17.4,9.5,26.4,13.5c37.4,16.7,75.6,25.2,113.4,25.2c12.9,0,25.9-1,38.7-3
		c34.7-5.3,68.4-17.2,100.1-35.3c13-7.4,19.8-19.2,19.8-34.2c-0.1-22.5-0.1-45.4-0.1-67.5l0-1.6c0-8.9,0-17.8,0-26.8l0-28.8
		c0-22.1,0-44.2,0-66.2c0-26.8-15.7-49.1-41-58.2c-22.9-8.3-47.6-14-73.3-17.1c-14.6-1.8-29.5-2.6-44.1-2.6
		c-9.5,0-19.2,0.4-28.6,1.1c-31.3,2.5-61.3,8.7-89.2,18.6c-24.9,8.8-41,31.6-41,58c0,53.7,0,107.4,0,161.1l0,30.7
		C97.4,308.3,104.2,320,116.4,327.1z M297.3,52.4c23.9,2.9,46.7,8.2,67.8,15.8c14.9,5.4,24.2,18.6,24.3,34.4c0,21.6,0,43.2,0,64.8
		l0,30.2c0,8.9,0,17.8,0,26.7l0,1c0,22.4,0,45.5,0.1,68.2c0,5.8-1.9,9.2-7,12.1c-29,16.5-59.7,27.4-91.4,32.2
		c-11.9,1.8-23.9,2.7-35.6,2.7c0,0,0,0,0,0c-34.1,0-67.6-7.5-102.4-23.1c-8.1-3.6-16.2-7.7-23.9-12.3c-4.5-2.6-6.4-6-6.4-11.1
		l0-31.8c0-53.4,0-106.7,0-160.1c0-15.6,9.5-29,24.1-34.2c25.9-9.1,53.7-14.9,82.8-17.2c8.8-0.7,17.7-1,26.6-1
		C269.8,49.9,283.6,50.7,297.3,52.4z"/>
	<path d="M414.6,381.9c-0.1-8.2-4-15.5-10.7-19.9c-3.9-2.6-8.5-3.9-13.2-3.9c-3.3,0-6.6,0.7-9.8,2c-1.4,0.6-2.7,1.2-3.9,1.8l-0.1,0
		c-0.6,0.3-1.1,0.5-1.7,0.8c-31.1,14.4-64.2,23.1-98.3,25.7c-6.9,0.5-14,0.8-21.1,0.8c-14.7,0-29.7-1.2-44.5-3.6
		c-27.3-4.3-53.9-12.7-79-24.9c-3.7-1.8-7.5-2.7-11.4-2.7c-4.4,0-8.7,1.2-12.3,3.5c-7.2,4.5-11.3,12.3-11.3,21.5
		c0,7.3,0,14.6,0,21.8v0.8c0,7.1,0,14.1,0,21.2c0,3.8,0.4,7.7,1.2,11.5c6.5,29.7,30.3,49,60.6,49c12.9,0,26,0,38.9,0
		c9.5,0,53,0,53,0h100.6c3.4,0,8-0.1,12.7-0.9c27.7-4.8,49.2-29.2,50-56.9c0.4-14.1,0.3-28.4,0.2-42.2L414.6,381.9z M122.7,405.7
		v-0.8c0-6.9,0-13.8,0-20.8c27,12.9,55.5,21.9,84.8,26.5c16.1,2.6,32.4,3.9,48.4,3.9c7.7,0,15.5-0.3,23.1-0.9
		c37.1-2.9,73.1-12.3,106.9-28c0.8-0.4,1.5-0.7,2.3-1.1c0.4-0.2,0.7-0.4,1.1-0.5l0,3.5c0.1,13.6,0.3,27.7-0.2,41.4
		c-0.5,15.4-13.5,30.1-29,32.7c-2.9,0.5-6,0.6-8.5,0.6l-95.6,0c-4.9,0-9.9,0-14.8,0c0,0-33.4,0-42.8,0c-13,0-26.2,0-39.2,0
		c-18.3,0-32.1-11.2-36-29.1c-0.4-2-0.7-4.1-0.7-6C122.7,419.8,122.7,412.7,122.7,405.7z"/>
	<path d="M60,81.2c-6.5-5.2-14.6-8-22.8-8c-2.6,0-5.2,0.3-7.8,0.9C11.8,78,0,93,0,111.2c0,72,0,144,0,216l0,73.9c0,0.5,0,1.1,0,1.6
		c0.3,10.4,5,20.3,12.9,27.1c6.7,5.7,15.2,8.9,24,8.9c1.4,0,2.9-0.1,4.3-0.3c18.9-2.3,32.7-17.7,32.7-36.8c0-35,0-70.1,0-105.1
		l0-144.9c0-4.2,0-8.4,0-12.7l0-0.1c0-9.7,0-19.8-0.1-29.7C73.8,98.3,68.7,88.1,60,81.2z M48.7,296.6c0,35,0,70.1,0,105.1
		c0,6.3-4.2,11-10.4,11.7c-0.5,0.1-0.9,0.1-1.4,0.1c-2.7,0-5.3-1-7.4-2.8c-2.5-2.2-4-5.3-4.1-8.7c0-0.2,0-0.4,0-0.7l0-60.3
		c0-76.6,0-153.1,0-229.7c0-6.6,3.5-11.1,9.7-12.5c0.7-0.2,1.5-0.2,2.2-0.2c2.5,0,5,0.9,7.1,2.6c2.7,2.2,4.3,5.2,4.4,8.4
		c0.1,9.8,0.1,19.7,0.1,29.3l0,0.1c0,4.2,0,8.5,0,12.7L48.7,296.6z"/>
	<path d="M511.9,108.4c-0.3-10.6-5.5-20.5-14.2-27.3c-6.5-5.1-14.6-7.9-22.6-7.9c-2.5,0-5,0.3-7.4,0.8C450,77.9,438,92.8,438,111.3
		c0,66.1,0,132.2,0,198.2v91.6c0,0.4,0,0.9,0,1.3c0.3,10.8,4.9,20.5,12.9,27.3c6.8,5.8,15.1,8.9,24.1,8.9c1.5,0,3.1-0.1,4.6-0.3
		c18.8-2.2,32.4-17.8,32.4-37.1c0-34.7,0-69.4,0-104.2l0-171.1c0-1.5,0-3.1,0-4.6l0-0.4C512,117,512,112.7,511.9,108.4z
		 M486.7,297.3c0,34.7,0,69.4,0,104.1c0,6.3-4.1,11.3-10.1,12c-0.5,0.1-1.1,0.1-1.6,0.1c-2.9,0-5.5-1-7.7-2.8c-2.5-2.2-4-5.4-4.1-9
		c0-0.1,0-0.3,0-0.4v-90.9c0-66.4,0-132.7,0-199.1c0-6.6,3.6-11.2,9.9-12.6c0.7-0.1,1.3-0.2,2-0.2c2.4,0,4.9,0.9,7,2.6
		c2.7,2.1,4.3,5.1,4.4,8.1c0.1,3.8,0.1,7.9,0.1,11.8c0,1.7,0,3.4,0,5.2L486.7,297.3z"/>
</g>
</svg>
