<?xml version="1.0" encoding="utf-8"?>
<!-- Generator: Adobe Illustrator 24.0.0, SVG Export Plug-In . SVG Version: 6.00 Build 0)  -->
<svg version="1.1" xmlns="http://www.w3.org/2000/svg" xmlns:xlink="http://www.w3.org/1999/xlink" x="0px" y="0px"
	 viewBox="0 0 70 70" style="enable-background:new 0 0 70 70;" xml:space="preserve">
<style type="text/css">
	.st0{fill:#010101;}
</style>
<g id="Layer_1">
</g>
<g id="Layer_2">
	<g>
		<path class="st0" d="M58.04,3.9L11.99,3.71h-0.03c-1.66,0-3.26,0.66-4.44,1.84C6.35,6.74,5.7,8.34,5.71,10v42.58
			c-0.02,2.24,1.15,4.32,3.07,5.48v4.34c0,2.16,1.83,3.9,3.99,3.9h5.14c1.04,0,2.03-0.4,2.76-1.14c0.73-0.73,1.15-1.72,1.15-2.76
			v-3.47h26.38v3.47c0,2.15,1.76,3.9,3.91,3.9h5.14c2.16,0,3.99-1.73,3.99-3.9v-4.34c1.92-1.15,3.09-3.24,3.07-5.48V10.18
			C64.3,6.72,61.5,3.91,58.04,3.9z M8.77,32.99v-18.3l24.69,0.11v18.3L8.77,32.99z M36.53,14.82l24.69,0.11v18.3l-24.69-0.11V14.82z
			 M9.69,7.72c0.59-0.6,1.41-0.94,2.26-0.94h0.01l46.06,0.18c1.77,0.01,3.21,1.45,3.21,3.22v1.66L8.77,11.63V10
			C8.76,9.15,9.09,8.32,9.69,7.72z M18.74,62.39c0,0.22-0.09,0.43-0.25,0.59c-0.16,0.16-0.37,0.24-0.6,0.24h-5.14
			c-0.48,0-0.92-0.35-0.92-0.83v-3.51c0.15,0,0.09,0.05,0.12,0.05h6.78V62.39z M58.16,62.39c0,0.48-0.44,0.83-0.92,0.83H52.1
			c-0.22,0.01-0.44-0.08-0.6-0.23c-0.16-0.16-0.25-0.37-0.25-0.59v-3.47h6.78c0.01,0-0.03-0.05,0.12-0.05V62.39z M58.04,55.86H11.96
			c-1.78,0-3.19-1.5-3.19-3.28V36.06l25.84,0.11c0.13,0.04,0.26,0.06,0.4,0.06c0.12,0,0.24-0.01,0.35-0.05l25.86,0.11v16.29
			C61.23,54.36,59.83,55.86,58.04,55.86z"/>
		<path class="st0" d="M59.23,43.74c0-0.85-0.69-1.53-1.53-1.53h-8.28c-0.85,0-1.53,0.69-1.53,1.53v5.67c0,0.85,0.69,1.53,1.53,1.53
			h8.28c0.85,0,1.53-0.69,1.53-1.53V43.74z M56.17,47.88h-5.21v-2.61h5.21V47.88z"/>
		<path class="st0" d="M22.12,43.74c0-0.85-0.69-1.53-1.53-1.53H12.3c-0.85,0-1.53,0.69-1.53,1.53v5.67c0,0.85,0.69,1.53,1.53,1.53
			h8.28c0.85,0,1.53-0.69,1.53-1.53V43.74z M19.05,47.88h-5.21v-2.61h5.21V47.88z"/>
		<path class="st0" d="M42.82,48.19H27.18c-0.85,0-1.53,0.69-1.53,1.53c0,0.85,0.69,1.53,1.53,1.53h15.64
			c0.85,0,1.53-0.69,1.53-1.53C44.36,48.88,43.67,48.19,42.82,48.19z"/>
		<path class="st0" d="M42.82,42.67H27.18c-0.85,0-1.53,0.69-1.53,1.53c0,0.85,0.69,1.53,1.53,1.53h15.64
			c0.85,0,1.53-0.69,1.53-1.53C44.36,43.36,43.67,42.67,42.82,42.67z"/>
	</g>
</g>
</svg>
