<?xml version="1.0" encoding="utf-8"?>
<!-- Generator: Adobe Illustrator 24.0.0, SVG Export Plug-In . SVG Version: 6.00 Build 0)  -->
<svg version="1.1" xmlns="http://www.w3.org/2000/svg" xmlns:xlink="http://www.w3.org/1999/xlink" x="0px" y="0px"
	 viewBox="0 0 70 70" style="enable-background:new 0 0 70 70;" xml:space="preserve">
<style type="text/css">
	.st0{fill:#010101;}
</style>
<g id="Layer_1">
</g>
<g id="Layer_2">
	<path class="st0" d="M58.5,36.18c0-12.5-9.79-22.74-22.1-23.47v-1.72h3.83c0.78,0,1.42-0.64,1.42-1.42V5.03
		c0-0.78-0.64-1.42-1.42-1.42H29.59c-0.78,0-1.42,0.64-1.42,1.42v4.54c0,0.78,0.64,1.42,1.42,1.42h3.97v1.72
		c-12.31,0.74-22.1,10.98-22.1,23.47c-0.01,6.7,2.86,13.08,7.86,17.53l-4.38,7.67c-0.46,0.8-0.56,1.75-0.3,2.62
		c0.27,0.88,0.88,1.61,1.7,2.03c1.59,0.8,3.52,0.21,4.4-1.33l4.16-7.28c6.37,3.03,13.77,3.03,20.14,0l4.16,7.28
		c0.59,1.04,1.7,1.69,2.91,1.69c0.52,0,1.03-0.12,1.49-0.35c0.82-0.41,1.43-1.15,1.7-2.03c0.27-0.88,0.16-1.83-0.3-2.63l-4.38-7.67
		C55.64,49.27,58.51,42.88,58.5,36.18z M31.01,8.15v-1.7h7.8v1.7H31.01z M34.98,56.86c-11.4,0-20.68-9.28-20.68-20.68
		c0-11.4,9.28-20.68,20.68-20.68c11.4,0,20.68,9.28,20.68,20.68C55.66,47.58,46.39,56.86,34.98,56.86z"/>
	<path class="st0" d="M22.01,9.95c0-0.38-0.15-0.74-0.43-1.01C17.51,4.96,10.94,4.96,6.96,8.96c-1.98,1.96-3.08,4.62-3.06,7.4
		C3.9,19.09,5,21.7,6.96,23.61c0.26,0.26,0.62,0.41,0.99,0.41c0.38,0,0.74-0.15,1.01-0.41l12.62-12.62
		C21.86,10.71,22.01,10.34,22.01,9.95z M8.05,20.5c-0.85-1.22-1.3-2.67-1.3-4.16c-0.01-2,0.78-3.92,2.19-5.34
		c1.41-1.42,3.33-2.21,5.33-2.21c1.5,0,2.97,0.44,4.23,1.28L8.05,20.5z"/>
	<path class="st0" d="M63,8.93c-3.99-3.96-10.54-3.97-14.61,0.01c-0.27,0.26-0.42,0.63-0.43,1c0,0.38,0.15,0.74,0.41,1.01L61,23.58
		c0.27,0.27,0.63,0.42,1.01,0.41c0.37,0,0.73-0.15,0.99-0.41c1.96-1.9,3.06-4.52,3.06-7.25C66.08,13.55,64.97,10.89,63,8.93z
		 M61.92,20.5L51.48,10.06c2.95-1.96,6.96-1.66,9.52,0.89c1.44,1.42,2.24,3.36,2.23,5.38C63.23,17.82,62.78,19.28,61.92,20.5z"/>
	<path class="st0" d="M34.98,20.5c-8.66,0-15.67,7.02-15.67,15.67c0,8.66,7.02,15.67,15.67,15.67s15.67-7.02,15.67-15.67
		C50.65,27.53,43.64,20.51,34.98,20.5z M34.98,49.36c-7.28,0-13.18-5.9-13.18-13.18c0-7.28,5.9-13.18,13.18-13.18
		c7.28,0,13.18,5.9,13.18,13.18C48.16,43.45,42.26,49.35,34.98,49.36z"/>
	<path class="st0" d="M40.37,30.71c-0.35,0.03-0.68,0.2-0.91,0.46l-5.96,6.97l-3.12-3.12c-0.52-0.52-1.37-0.52-1.89,0
		c-0.52,0.52-0.52,1.37,0,1.89l4.14,4.14c0.25,0.25,0.59,0.39,0.95,0.39h0.05c0.37-0.01,0.72-0.18,0.96-0.47l6.89-8.08
		c0.23-0.26,0.34-0.61,0.32-0.96c-0.03-0.35-0.2-0.67-0.46-0.9C41.07,30.79,40.72,30.68,40.37,30.71z"/>
</g>
</svg>
