<?xml version="1.0" encoding="utf-8"?>
<!-- Generator: Adobe Illustrator 24.0.0, SVG Export Plug-In . SVG Version: 6.00 Build 0)  -->
<svg version="1.1" xmlns="http://www.w3.org/2000/svg" xmlns:xlink="http://www.w3.org/1999/xlink" x="0px" y="0px"
	 viewBox="0 0 70 70" style="enable-background:new 0 0 70 70;" xml:space="preserve">
<style type="text/css">
	.st0{fill:#010101;}
</style>
<g id="Layer_1">
</g>
<g id="Layer_2">
	<path d="M15.94,39.64c-0.31,0.46-0.75,0.82-1.27,1.04C15.18,40.46,15.62,40.1,15.94,39.64z"/>
	<g>
		<path class="st0" d="M32.33,47.08c0.34,0.34,0.8,0.53,1.27,0.53c0.48,0,0.93-0.19,1.27-0.53l6.42-6.42c0.7-0.7,0.7-1.84,0-2.55
			c-0.7-0.7-1.84-0.7-2.54,0l-5.15,5.15l-2.35-2.35c-0.7-0.7-1.84-0.7-2.55,0c-0.7,0.7-0.7,1.84,0,2.55L32.33,47.08z"/>
		<path class="st0" d="M35,56.88c7.88,0,14.29-6.41,14.29-14.29S42.88,28.31,35,28.31c-7.88,0-14.29,6.41-14.29,14.29
			S27.12,56.88,35,56.88z M35,31.91c5.89,0,10.69,4.79,10.69,10.69S40.89,53.29,35,53.29S24.31,48.49,24.31,42.6
			S29.11,31.91,35,31.91z"/>
		<path class="st0" d="M58.95,8.36h-3.28V6.33c0-0.99-0.81-1.8-1.8-1.8c-0.99,0-1.8,0.81-1.8,1.8v2.03h-3.54V6.33
			c0-0.99-0.81-1.8-1.8-1.8c-0.99,0-1.8,0.81-1.8,1.8v2.03H25.06V6.33c0-0.99-0.81-1.8-1.8-1.8c-0.99,0-1.8,0.81-1.8,1.8v2.03h-3.54
			V6.33c0-0.99-0.81-1.8-1.8-1.8c-0.99,0-1.8,0.81-1.8,1.8v2.03h-3.28c-3.21,0-5.82,2.61-5.82,5.82v45.48
			c0,3.21,2.61,5.82,5.82,5.82h47.91c3.21,0,5.82-2.61,5.82-5.82V14.18C64.77,10.97,62.16,8.36,58.95,8.36z M61.17,59.65
			c0,1.22-1,2.22-2.22,2.22H11.05c-1.22,0-2.22-1-2.22-2.22V23.32h52.35V59.65z M8.83,14.18c0-1.22,1-2.22,2.22-2.22h3.28v2.03
			c0,0.99,0.81,1.8,1.8,1.8c0.99,0,1.8-0.81,1.8-1.8v-2.03h3.54v2.03c0,0.99,0.81,1.8,1.8,1.8c0.99,0,1.8-0.81,1.8-1.8v-2.03h19.87
			v2.03c0,0.99,0.81,1.8,1.8,1.8c0.99,0,1.8-0.81,1.8-1.8v-2.03h3.54v2.03c0,0.99,0.81,1.8,1.8,1.8c0.99,0,1.8-0.81,1.8-1.8v-2.03
			h3.28c1.22,0,2.22,1,2.22,2.22v5.54H8.83V14.18z"/>
	</g>
</g>
</svg>
