<?xml version="1.0" encoding="utf-8"?>
<!-- Generator: Adobe Illustrator 24.0.0, SVG Export Plug-In . SVG Version: 6.00 Build 0)  -->
<svg version="1.1" xmlns="http://www.w3.org/2000/svg" xmlns:xlink="http://www.w3.org/1999/xlink" x="0px" y="0px"
	 viewBox="0 0 70 70" style="enable-background:new 0 0 70 70;" xml:space="preserve">
<style type="text/css">
	.st0{fill:#010101;}
</style>
<g id="Layer_1">
</g>
<g id="Layer_2">
	<g>
		<path class="st0" d="M48.91,45.67c-0.7,0-1.27,0.57-1.27,1.27v5.94c0,0.7,0.57,1.27,1.27,1.27s1.27-0.57,1.27-1.27v-5.94
			C50.18,46.24,49.61,45.67,48.91,45.67z"/>
		<path class="st0" d="M48.91,54.84c-0.7,0-1.27,0.57-1.27,1.27v0.84c0,0.7,0.57,1.27,1.27,1.27s1.27-0.57,1.27-1.27v-0.84
			C50.18,55.41,49.61,54.84,48.91,54.84z"/>
		<path class="st0" d="M35.15,21.87c0-0.7-0.57-1.27-1.27-1.27h-5.22c-0.7,0-1.27,0.57-1.27,1.27v5.22c0,0.7,0.57,1.27,1.27,1.27
			h5.22c0.7,0,1.27-0.57,1.27-1.27V21.87z M32.6,25.82h-2.68v-2.68h2.68V25.82z"/>
		<path class="st0" d="M35.15,30.54c0-0.7-0.57-1.27-1.27-1.27h-5.22c-0.7,0-1.27,0.57-1.27,1.27v5.22c0,0.7,0.57,1.27,1.27,1.27
			h5.22c0.7,0,1.27-0.57,1.27-1.27V30.54z M32.6,34.49h-2.68v-2.68h2.68V34.49z"/>
		<path class="st0" d="M35.15,39.21c0-0.7-0.57-1.27-1.27-1.27h-5.22c-0.7,0-1.27,0.57-1.27,1.27v5.22c0,0.7,0.57,1.27,1.27,1.27
			h5.22c0.7,0,1.27-0.57,1.27-1.27V39.21z M32.6,43.16h-2.68v-2.68h2.68V43.16z"/>
		<path class="st0" d="M26.48,21.87c0-0.7-0.57-1.27-1.27-1.27h-5.22c-0.7,0-1.27,0.57-1.27,1.27v5.22c0,0.7,0.57,1.27,1.27,1.27
			h5.22c0.7,0,1.27-0.57,1.27-1.27V21.87z M23.93,25.82h-2.68v-2.68h2.68V25.82z"/>
		<path class="st0" d="M26.48,30.54c0-0.7-0.57-1.27-1.27-1.27h-5.22c-0.7,0-1.27,0.57-1.27,1.27v5.22c0,0.7,0.57,1.27,1.27,1.27
			h5.22c0.7,0,1.27-0.57,1.27-1.27V30.54z M23.93,34.49h-2.68v-2.68h2.68V34.49z"/>
		<path class="st0" d="M26.48,39.21c0-0.7-0.57-1.27-1.27-1.27h-5.22c-0.7,0-1.27,0.57-1.27,1.27v5.22c0,0.7,0.57,1.27,1.27,1.27
			h5.22c0.7,0,1.27-0.57,1.27-1.27V39.21z M23.93,43.16h-2.68v-2.68h2.68V43.16z"/>
		<path class="st0" d="M43.94,21.87c0-0.7-0.57-1.27-1.27-1.27h-5.22c-0.7,0-1.27,0.57-1.27,1.27v5.22c0,0.7,0.57,1.27,1.27,1.27
			h5.22c0.7,0,1.27-0.57,1.27-1.27V21.87z M38.71,23.15h2.68v2.68h-2.68V23.15z"/>
		<path class="st0" d="M43.94,30.54c0-0.7-0.57-1.27-1.27-1.27h-5.22c-0.7,0-1.27,0.57-1.27,1.27v5.22c0,0.7,0.57,1.27,1.27,1.27
			h5.22c0.7,0,1.27-0.57,1.27-1.27V30.54z M41.39,34.49h-2.68v-2.68h2.68V34.49z"/>
		<path class="st0" d="M52.6,21.87c0-0.7-0.57-1.27-1.27-1.27H46.1c-0.7,0-1.27,0.57-1.27,1.27v5.22c0,0.7,0.57,1.27,1.27,1.27h5.22
			c0.7,0,1.27-0.57,1.27-1.27V21.87z M47.38,23.15h2.68v2.68h-2.68V23.15z"/>
		<path class="st0" d="M17.82,21.87c0-0.7-0.57-1.27-1.27-1.27h-5.22c-0.7,0-1.27,0.57-1.27,1.27v5.22c0,0.7,0.57,1.27,1.27,1.27
			h5.22c0.7,0,1.27-0.57,1.27-1.27V21.87z M15.27,25.82h-2.68v-2.68h2.68V25.82z"/>
		<path class="st0" d="M17.82,30.54c0-0.7-0.57-1.27-1.27-1.27h-5.22c-0.7,0-1.27,0.57-1.27,1.27v5.22c0,0.7,0.57,1.27,1.27,1.27
			h5.22c0.7,0,1.27-0.57,1.27-1.27V30.54z M15.27,34.49h-2.68v-2.68h2.68V34.49z"/>
		<path class="st0" d="M17.82,39.21c0-0.7-0.57-1.27-1.27-1.27h-5.22c-0.7,0-1.27,0.57-1.27,1.27v5.22c0,0.7,0.57,1.27,1.27,1.27
			h5.22c0.7,0,1.27-0.57,1.27-1.27V39.21z M15.27,43.16h-2.68v-2.68h2.68V43.16z"/>
		<path class="st0" d="M56.68,39.06V11.12c0.01-1.2-0.46-2.35-1.3-3.2c-0.84-0.85-1.99-1.33-3.19-1.33h-2.27V3.91
			c0-0.34-0.13-0.66-0.37-0.9C49.32,2.77,49,2.63,48.67,2.63h-6.22c-0.71,0-1.29,0.56-1.31,1.27v2.68H21.51V3.91
			c-0.01-0.71-0.59-1.27-1.3-1.27h-6.22c-0.7,0-1.27,0.57-1.27,1.27v2.68H10.4c-2.51-0.01-4.55,2.02-4.56,4.54v34.5
			c0.01,2.51,2.05,4.54,4.56,4.55h23.4c-0.09,0.65-0.13,1.31-0.13,1.98c0,8.4,6.84,15.23,15.27,15.23
			c6.86,0.01,12.88-4.57,14.69-11.19C65.43,49.56,62.59,42.55,56.68,39.06z M43.68,5.18h3.7v4.84h-3.7V5.18z M15.27,5.18h3.7v4.84
			h-3.7V5.18z M10.4,9.13h2.32v2.12c-0.01,0.71,0.56,1.3,1.27,1.33h6.22c0.72-0.02,1.29-0.61,1.3-1.33V9.13h19.62v2.12
			c0.02,0.72,0.59,1.3,1.31,1.33h6.22c0.7,0,1.26-0.61,1.26-1.33V9.13h2.27c0.52,0,1.02,0.21,1.38,0.59
			c0.36,0.37,0.56,0.88,0.55,1.4v4.38H8.39v-4.38C8.4,10.02,9.3,9.13,10.4,9.13z M10.4,47.62c-1.11-0.01-2-0.9-2.01-2V18.05h45.75
			v19.8c-1.03-0.4-2.11-0.68-3.21-0.82h0.41c0.71,0,1.28-0.57,1.29-1.27v-5.22c-0.01-0.71-0.58-1.27-1.29-1.27H46.1
			c-0.34,0-0.66,0.14-0.9,0.38c-0.24,0.24-0.37,0.56-0.37,0.9v5.22c0,0.34,0.13,0.66,0.37,0.9c0.24,0.24,0.56,0.37,0.9,0.38h0.83
			c-5.9,0.77-10.81,4.9-12.58,10.58H10.4z M50.06,34.49h-2.68v-2.68h2.68V34.49z M48.92,64.82c-7.01,0-12.72-5.68-12.72-12.68
			s5.71-12.68,12.72-12.68s12.72,5.68,12.72,12.68C61.62,59.15,55.93,64.82,48.92,64.82z"/>
	</g>
</g>
</svg>
