<?xml version="1.0" encoding="utf-8"?>
<!-- Generator: Adobe Illustrator 24.0.0, SVG Export Plug-In . SVG Version: 6.00 Build 0)  -->
<svg version="1.1" xmlns="http://www.w3.org/2000/svg" xmlns:xlink="http://www.w3.org/1999/xlink" x="0px" y="0px"
	 viewBox="0 0 70 70" style="enable-background:new 0 0 70 70;" xml:space="preserve">
<style type="text/css">
	.st0{fill:#010101;}
</style>
<g id="Layer_1">
</g>
<g id="Layer_2">
	<g>
		<g>
			<g>
				<g>
					<path d="M2.35,12.96v39.73c0,0.78,0.63,1.41,1.41,1.41h10.05c0.42,2.94,2.12,5.46,4.53,6.99c1.53,0.97,3.36,1.53,5.29,1.53
						c1.95,0,3.78-0.55,5.31-1.53c2.41-1.53,4.11-4.05,4.53-6.99h34.19v-2.85H33.46c-0.69-4.79-4.83-8.5-9.84-8.5H5.18v-2.85h12.78
						c3.42,0,6.28-2.44,6.95-5.67h42.74v-2.85H25.04V14.37h42.61v-2.85H5.43C6.02,9.88,7.58,8.7,9.44,8.7h58.21V5.86H9.44
						C5.52,5.86,2.35,9.04,2.35,12.96z M16.54,52.69c0-3.92,3.17-7.1,7.09-7.1s7.1,3.19,7.1,7.1s-3.19,7.09-7.1,7.09
						S16.54,56.6,16.54,52.69z M5.18,45.58h11.52c-1.53,1.49-2.58,3.48-2.88,5.67H5.18V45.58z M5.18,14.37h17.04v18.45
						c0,2.35-1.91,4.26-4.26,4.26H5.18V14.37z"/>
				</g>
				<g>
					<path d="M19.37,52.69c0,2.35,1.91,4.26,4.26,4.26s4.26-1.91,4.26-4.26c0-2.35-1.91-4.26-4.26-4.26S19.37,50.34,19.37,52.69z
						 M22.21,52.69c0-0.78,0.63-1.43,1.41-1.43c0.78,0,1.41,0.65,1.41,1.43c0,0.78-0.63,1.41-1.41,1.41
						C22.84,54.1,22.21,53.47,22.21,52.69z"/>
				</g>
			</g>
		</g>
		<g>
			<path d="M16.48,62.62c0,0.84,0.67,1.53,1.53,1.53h49.64v-3.06H18.01C17.15,61.09,16.48,61.78,16.48,62.62z"/>
		</g>
		<g>
			<path d="M5.16,64.14h5.78c0.84,0,1.53-0.68,1.53-1.53c0-0.84-0.68-1.53-1.53-1.53H5.16c-0.84,0-1.53,0.68-1.53,1.53
				C3.63,63.46,4.32,64.14,5.16,64.14z"/>
		</g>
	</g>
</g>
</svg>
