<?xml version="1.0" encoding="utf-8"?>
<!-- Generator: Adobe Illustrator 24.0.0, SVG Export Plug-In . SVG Version: 6.00 Build 0)  -->
<svg version="1.1" xmlns="http://www.w3.org/2000/svg" xmlns:xlink="http://www.w3.org/1999/xlink" x="0px" y="0px"
	 viewBox="0 0 70 70" style="enable-background:new 0 0 70 70;" xml:space="preserve">
<style type="text/css">
	.st0{fill:#010101;}
</style>
<g id="Layer_1">
</g>
<g id="Layer_2">
	<path d="M41.39,67.2c0,0.95-0.77,1.73-1.73,1.73h-9.33c-0.95,0-1.73-0.77-1.73-1.73c0-0.95,0.77-1.73,1.73-1.73h9.33
		C40.62,65.47,41.39,66.25,41.39,67.2z M56.61,50.72v4.97c0,3.69-3,6.7-6.7,6.7H20.09c-3.69,0-6.7-3-6.7-6.7v-4.97
		c0-0.95,0.77-1.73,1.73-1.73h0.46c0-0.05-0.01-0.1-0.01-0.15v-4.62c0-0.1,0-0.2,0.02-0.3c0.04-0.25,0.13-0.49,0.27-0.7
		c0.14-0.2,0.31-0.38,0.53-0.51c0.09-0.05,0.18-0.1,0.28-0.14c0.68-0.28,1.36-0.58,2.03-0.88V20.61c0-3.43,2.18-6.44,5.29-7.6
		c0-0.09-0.01-0.19-0.01-0.28V8.47c0-4.08,3.32-7.4,7.4-7.4h7.23c4.08,0,7.4,3.32,7.4,7.4v4.26c0,0.09,0,0.19-0.01,0.28
		c1.23,0.46,2.33,1.2,3.2,2.18c0.03-0.06,0.06-0.11,0.09-0.17c0.44-0.84,1.49-1.17,2.33-0.72c0.84,0.44,1.17,1.49,0.72,2.33
		c-3.23,6.12-7.92,11.79-13.94,16.86c-4.8,4.04-10.26,7.53-16.26,10.41v5.1h25.69V28.23c0-0.95,0.77-1.73,1.73-1.73
		c0.95,0,1.73,0.77,1.73,1.73v20.77h3.59C55.84,48.99,56.61,49.77,56.61,50.72z M27.44,12.73c0,0.35,0.05,0.7,0.13,1.02
		c0.01,0.04,0.03,0.09,0.04,0.13c0.49,1.62,2,2.79,3.77,2.79h7.23c1.78,0,3.28-1.18,3.77-2.79c0.01-0.04,0.02-0.09,0.04-0.13
		c0.09-0.33,0.13-0.67,0.13-1.02V8.47c0-2.18-1.77-3.94-3.94-3.94h-7.23c-2.18,0-3.94,1.77-3.94,3.94L27.44,12.73L27.44,12.73z
		 M22.15,40.04c10.77-5.47,19.62-13.06,25.14-21.61c-0.5-0.93-1.29-1.66-2.24-2.08c-1.27,2.25-3.68,3.77-6.45,3.77h-7.23
		c-2.76,0-5.18-1.52-6.45-3.77c-1.65,0.73-2.78,2.38-2.78,4.26L22.15,40.04L22.15,40.04z M53.16,52.44H49.6c-0.01,0-0.02,0-0.03,0
		H20.43c-0.01,0-0.02,0-0.03,0h-3.56v3.25c0,1.79,1.46,3.25,3.25,3.25h29.82c1.79,0,3.25-1.46,3.25-3.25V52.44z"/>
</g>
</svg>
