<?xml version="1.0" encoding="utf-8"?>
<!-- Generator: Adobe Illustrator 24.0.0, SVG Export Plug-In . SVG Version: 6.00 Build 0)  -->
<svg version="1.1" xmlns="http://www.w3.org/2000/svg" xmlns:xlink="http://www.w3.org/1999/xlink" x="0px" y="0px"
	 viewBox="0 0 70 70" style="enable-background:new 0 0 70 70;" xml:space="preserve">
<style type="text/css">
	.st0{fill:#010101;}
	.st1{fill:#FFFFFF;}
</style>
<g id="Layer_1">
</g>
<g id="Layer_2">
	<path d="M41.39-8.83c0,0.95-0.77,1.73-1.73,1.73h-9.33c-0.95,0-1.73-0.77-1.73-1.73s0.77-1.73,1.73-1.73h9.33
		C40.62-10.56,41.39-9.79,41.39-8.83z M56.61-25.31v4.97c0,3.69-3,6.7-6.7,6.7H20.09c-3.69,0-6.7-3-6.7-6.7v-4.97
		c0-0.95,0.77-1.73,1.73-1.73h0.46c0-0.05-0.01-0.1-0.01-0.15v-4.62c0-0.1,0-0.2,0.02-0.3c0.04-0.25,0.13-0.49,0.27-0.7
		c0.14-0.2,0.31-0.38,0.53-0.51c0.09-0.05,0.18-0.1,0.28-0.14c0.68-0.28,1.36-0.58,2.03-0.88v-21.08c0-3.43,2.18-6.44,5.29-7.6
		c0-0.09-0.01-0.19-0.01-0.28v-4.26c0-4.08,3.32-7.4,7.4-7.4h7.23c4.08,0,7.4,3.32,7.4,7.4v4.26c0,0.09,0,0.19-0.01,0.28
		c1.23,0.46,2.33,1.2,3.2,2.18c0.03-0.06,0.06-0.11,0.09-0.17c0.44-0.84,1.49-1.17,2.33-0.72c0.84,0.44,1.17,1.49,0.72,2.33
		c-3.23,6.12-7.92,11.79-13.94,16.86c-4.8,4.04-10.26,7.53-16.26,10.41v5.1h25.69V-47.8c0-0.95,0.77-1.73,1.73-1.73
		c0.95,0,1.73,0.77,1.73,1.73v20.77h3.59C55.84-27.04,56.61-26.27,56.61-25.31z M27.44-63.3c0,0.35,0.05,0.7,0.13,1.02
		c0.01,0.04,0.03,0.09,0.04,0.13c0.49,1.62,2,2.79,3.77,2.79h7.23c1.78,0,3.28-1.18,3.77-2.79c0.01-0.04,0.02-0.09,0.04-0.13
		c0.09-0.33,0.13-0.67,0.13-1.02v-4.26c0-2.18-1.77-3.94-3.94-3.94h-7.23c-2.18,0-3.94,1.77-3.94,3.94L27.44-63.3L27.44-63.3z
		 M22.15-35.99C32.92-41.46,41.77-49.05,47.3-57.6c-0.5-0.93-1.29-1.66-2.24-2.08c-1.27,2.25-3.68,3.77-6.45,3.77h-7.23
		c-2.76,0-5.18-1.52-6.45-3.77c-1.65,0.73-2.78,2.38-2.78,4.26L22.15-35.99L22.15-35.99z M53.16-23.59H49.6c-0.01,0-0.02,0-0.03,0
		H20.43c-0.01,0-0.02,0-0.03,0h-3.56v3.25c0,1.79,1.46,3.25,3.25,3.25h29.82c1.79,0,3.25-1.46,3.25-3.25V-23.59z"/>
	<path d="M166.85-36.39c-0.31,0.46-0.75,0.82-1.27,1.04C166.09-35.57,166.53-35.93,166.85-36.39z"/>
	<g>
		<path class="st0" d="M183.24-28.95c0.34,0.34,0.8,0.53,1.27,0.53c0.48,0,0.93-0.19,1.27-0.53l6.42-6.42c0.7-0.7,0.7-1.84,0-2.55
			c-0.7-0.7-1.84-0.7-2.54,0l-5.15,5.15l-2.35-2.35c-0.7-0.7-1.84-0.7-2.55,0c-0.7,0.7-0.7,1.84,0,2.55L183.24-28.95z"/>
		<path class="st0" d="M185.91-19.15c7.88,0,14.29-6.41,14.29-14.29s-6.41-14.29-14.29-14.29c-7.88,0-14.29,6.41-14.29,14.29
			S178.03-19.15,185.91-19.15z M185.91-44.12c5.89,0,10.69,4.79,10.69,10.69s-4.79,10.69-10.69,10.69s-10.69-4.79-10.69-10.69
			S180.02-44.12,185.91-44.12z"/>
		<path class="st0" d="M209.87-67.67h-3.28v-2.03c0-0.99-0.81-1.8-1.8-1.8c-0.99,0-1.8,0.81-1.8,1.8v2.03h-3.54v-2.03
			c0-0.99-0.81-1.8-1.8-1.8c-0.99,0-1.8,0.81-1.8,1.8v2.03h-19.87v-2.03c0-0.99-0.81-1.8-1.8-1.8c-0.99,0-1.8,0.81-1.8,1.8v2.03
			h-3.54v-2.03c0-0.99-0.81-1.8-1.8-1.8c-0.99,0-1.8,0.81-1.8,1.8v2.03h-3.28c-3.21,0-5.82,2.61-5.82,5.82v45.48
			c0,3.21,2.61,5.82,5.82,5.82h47.91c3.21,0,5.82-2.61,5.82-5.82v-45.48C215.69-65.06,213.07-67.67,209.87-67.67z M212.09-16.38
			c0,1.22-1,2.22-2.22,2.22h-47.91c-1.22,0-2.22-1-2.22-2.22v-36.33h52.35V-16.38z M159.74-61.85c0-1.22,1-2.22,2.22-2.22h3.28v2.03
			c0,0.99,0.81,1.8,1.8,1.8c0.99,0,1.8-0.81,1.8-1.8v-2.03h3.54v2.03c0,0.99,0.81,1.8,1.8,1.8c0.99,0,1.8-0.81,1.8-1.8v-2.03h19.87
			v2.03c0,0.99,0.81,1.8,1.8,1.8c0.99,0,1.8-0.81,1.8-1.8v-2.03h3.54v2.03c0,0.99,0.81,1.8,1.8,1.8c0.99,0,1.8-0.81,1.8-1.8v-2.03
			h3.28c1.22,0,2.22,1,2.22,2.22v5.54h-52.35V-61.85z"/>
	</g>
	<path class="st0" d="M285.25-39.85c0-12.5-9.79-22.74-22.1-23.47v-1.72h3.83c0.78,0,1.42-0.64,1.42-1.42V-71
		c0-0.78-0.64-1.42-1.42-1.42h-10.64c-0.78,0-1.42,0.64-1.42,1.42v4.54c0,0.78,0.64,1.42,1.42,1.42h3.97v1.72
		c-12.31,0.74-22.1,10.98-22.1,23.47c-0.01,6.7,2.86,13.08,7.86,17.53l-4.38,7.67c-0.46,0.8-0.56,1.75-0.3,2.62
		c0.27,0.88,0.88,1.61,1.7,2.03c1.59,0.8,3.52,0.21,4.4-1.33l4.16-7.28c6.37,3.03,13.77,3.03,20.14,0l4.16,7.28
		c0.59,1.04,1.7,1.69,2.91,1.69c0.52,0,1.03-0.12,1.49-0.35c0.82-0.41,1.43-1.15,1.7-2.03c0.27-0.88,0.16-1.83-0.3-2.63l-4.38-7.67
		C282.39-26.77,285.26-33.15,285.25-39.85z M257.76-67.88v-1.7h7.8v1.7H257.76z M261.74-19.17c-11.4,0-20.68-9.28-20.68-20.68
		c0-11.4,9.28-20.68,20.68-20.68c11.4,0,20.68,9.28,20.68,20.68C282.42-28.45,273.14-19.17,261.74-19.17z"/>
	<path class="st0" d="M248.76-66.08c0-0.38-0.15-0.74-0.43-1.01c-4.07-3.99-10.64-3.99-14.62,0.01c-1.98,1.96-3.08,4.62-3.06,7.4
		c0.01,2.73,1.11,5.34,3.06,7.25c0.26,0.26,0.62,0.41,0.99,0.41c0.38,0,0.74-0.15,1.01-0.41l12.62-12.62
		C248.61-65.32,248.76-65.69,248.76-66.08z M234.8-55.53c-0.85-1.22-1.3-2.67-1.3-4.16c-0.01-2,0.78-3.92,2.19-5.34
		c1.41-1.42,3.33-2.21,5.33-2.21c1.5,0,2.97,0.44,4.23,1.28L234.8-55.53z"/>
	<path class="st0" d="M289.75-67.1c-3.99-3.96-10.54-3.97-14.61,0.01c-0.27,0.26-0.42,0.63-0.43,1c0,0.38,0.15,0.74,0.41,1.01
		l12.62,12.62c0.27,0.27,0.63,0.42,1.01,0.41c0.37,0,0.73-0.15,0.99-0.41c1.96-1.9,3.06-4.52,3.06-7.25
		C292.83-62.48,291.72-65.15,289.75-67.1z M288.67-55.53l-10.44-10.44c2.95-1.96,6.96-1.66,9.52,0.89c1.44,1.42,2.24,3.36,2.23,5.38
		C289.98-58.21,289.53-56.75,288.67-55.53z"/>
	<path class="st0" d="M261.74-55.53c-8.66,0-15.67,7.02-15.67,15.67c0,8.66,7.02,15.67,15.67,15.67c8.66,0,15.67-7.02,15.67-15.67
		C277.4-48.51,270.39-55.52,261.74-55.53z M261.74-26.68c-7.28,0-13.18-5.9-13.18-13.18c0-7.28,5.9-13.18,13.18-13.18
		c7.28,0,13.18,5.9,13.18,13.18C274.91-32.58,269.01-26.68,261.74-26.68z"/>
	<path class="st0" d="M267.12-45.33c-0.35,0.03-0.68,0.2-0.91,0.46l-5.96,6.97l-3.12-3.12c-0.52-0.52-1.37-0.52-1.89,0
		c-0.52,0.52-0.52,1.37,0,1.89l4.14,4.14c0.25,0.25,0.59,0.39,0.95,0.39h0.05c0.37-0.01,0.72-0.18,0.96-0.47l6.89-8.08
		c0.23-0.26,0.34-0.61,0.32-0.96c-0.03-0.35-0.2-0.67-0.46-0.9C267.82-45.24,267.47-45.35,267.12-45.33z"/>
	<g>
		<path class="st0" d="M355.01-57.24v-5.56c0-0.77-0.62-1.39-1.39-1.39c-0.77,0-1.39,0.62-1.39,1.39v6.14c0,0.37,0.14,0.73,0.4,0.99
			l3.08,3.08c0.26,0.26,0.62,0.41,0.99,0.4c0.37,0,0.72-0.15,0.99-0.4c0.26-0.26,0.41-0.61,0.41-0.98c0-0.37-0.14-0.72-0.4-0.98
			L355.01-57.24z"/>
		<path class="st0" d="M353.99-73.15c-5.62,0.01-10.83,2.93-13.75,7.73l-28.2-0.18h-0.03c-1.52,0-2.98,0.6-4.06,1.67
			c-1.09,1.07-1.7,2.52-1.71,4.04v38.57c0,2.13,1.25,3.97,2.92,4.96v3.93c0.01,0.94,0.39,1.84,1.06,2.49
			c0.67,0.66,1.57,1.02,2.51,1.01h4.65c1.96,0,3.58-1.54,3.58-3.5v-3.15h23.9v3.17c-0.01,0.93,0.36,1.83,1.02,2.49
			c0.66,0.66,1.56,1.02,2.49,1.01h4.65c0.93,0.01,1.83-0.36,2.49-1.02c0.66-0.66,1.02-1.55,1.02-2.49v-3.93
			c1.82-0.98,2.94-2.89,2.92-4.96v-20.56c6.39-2.3,10.65-8.37,10.64-15.16C370.1-65.92,362.87-73.15,353.99-73.15z M309.91-61.96
			c0.56-0.55,1.31-0.86,2.1-0.86h0.01l26.87,0.17c-0.55,1.43-0.88,2.92-1,4.45l-28.87-0.19v-1.49
			C309.03-60.67,309.35-61.42,309.91-61.96z M309.02-39.05v-16.57l22.37,0.15v16.52L309.02-39.05z M318.19-12.42
			c0,0.43-0.39,0.72-0.81,0.72h-4.65c-0.2,0.01-0.4-0.06-0.55-0.2c-0.15-0.14-0.24-0.33-0.24-0.53v-3.18
			c0.02,0.01,0.05,0.01,0.07,0.01h6.18V-12.42z M353.76-12.42c0.01,0.19-0.07,0.38-0.2,0.52s-0.33,0.21-0.52,0.2h-4.65
			c-0.2,0.01-0.39-0.06-0.53-0.2c-0.14-0.14-0.22-0.33-0.21-0.52v-3.17h6.1c0.01,0,0.01-0.01,0.01-0.01V-12.42z M353.74-18.36
			h-41.74c-1.64-0.01-2.96-1.32-2.99-2.96v-14.95l23.08,0.1c0.2,0.11,0.43,0.17,0.67,0.17c0.23,0,0.45-0.05,0.65-0.17l23.26,0.1
			v14.76C356.68-19.7,355.37-18.37,353.74-18.36z M356.67-38.86l-22.51-0.1v-16.51l3.79,0.03c0.83,8.23,7.76,14.5,16.03,14.51
			c0.9,0,1.8-0.08,2.7-0.22v2.29H356.67z M353.99-43.71c-7.37,0-13.34-5.97-13.34-13.34s5.97-13.34,13.34-13.34
			c7.37,0,13.34,5.97,13.34,13.34C367.32-49.68,361.35-43.72,353.99-43.71z"/>
		<path class="st0" d="M354.73-29.34c0-0.77-0.62-1.39-1.39-1.39h-7.5c-0.77,0-1.39,0.62-1.39,1.39v5.14c0,0.77,0.62,1.39,1.39,1.39
			h7.5c0.77,0,1.39-0.62,1.39-1.39V-29.34z M352.09-25.59h-4.86v-2.36h4.86V-25.59z"/>
		<path class="st0" d="M321.25-29.34c0-0.77-0.62-1.39-1.39-1.39h-7.5c-0.77,0-1.39,0.62-1.39,1.39v5.14c0,0.77,0.62,1.39,1.39,1.39
			h7.5c0.77,0,1.39-0.62,1.39-1.39V-29.34z M318.47-25.59h-4.72v-2.36h4.72V-25.59z"/>
		<path class="st0" d="M339.96-25.31H325.8c-0.77,0-1.39,0.62-1.39,1.39c0,0.77,0.62,1.39,1.39,1.39h14.16
			c0.77,0,1.39-0.62,1.39-1.39C341.35-24.69,340.73-25.31,339.96-25.31z"/>
		<path class="st0" d="M339.96-30.17H325.8c-0.77,0-1.39,0.62-1.39,1.39s0.62,1.39,1.39,1.39h14.16c0.77,0,1.39-0.62,1.39-1.39
			S340.73-30.17,339.96-30.17z"/>
	</g>
	<g>
		<path class="st0" d="M352.08,45.67c-0.7,0-1.27,0.57-1.27,1.27v5.94c0,0.7,0.57,1.27,1.27,1.27s1.27-0.57,1.27-1.27v-5.94
			C353.35,46.24,352.78,45.67,352.08,45.67z"/>
		<path class="st0" d="M352.08,54.84c-0.7,0-1.27,0.57-1.27,1.27v0.84c0,0.7,0.57,1.27,1.27,1.27s1.27-0.57,1.27-1.27v-0.84
			C353.35,55.41,352.78,54.84,352.08,54.84z"/>
		<path class="st0" d="M338.31,21.87c0-0.7-0.57-1.27-1.27-1.27h-5.22c-0.7,0-1.27,0.57-1.27,1.27v5.22c0,0.7,0.57,1.27,1.27,1.27
			h5.22c0.7,0,1.27-0.57,1.27-1.27V21.87z M335.77,25.82h-2.68v-2.68h2.68V25.82z"/>
		<path class="st0" d="M338.31,30.54c0-0.7-0.57-1.27-1.27-1.27h-5.22c-0.7,0-1.27,0.57-1.27,1.27v5.22c0,0.7,0.57,1.27,1.27,1.27
			h5.22c0.7,0,1.27-0.57,1.27-1.27V30.54z M335.77,34.49h-2.68v-2.68h2.68V34.49z"/>
		<path class="st0" d="M338.31,39.21c0-0.7-0.57-1.27-1.27-1.27h-5.22c-0.7,0-1.27,0.57-1.27,1.27v5.22c0,0.7,0.57,1.27,1.27,1.27
			h5.22c0.7,0,1.27-0.57,1.27-1.27V39.21z M335.77,43.16h-2.68v-2.68h2.68V43.16z"/>
		<path class="st0" d="M329.65,21.87c0-0.7-0.57-1.27-1.27-1.27h-5.22c-0.7,0-1.27,0.57-1.27,1.27v5.22c0,0.7,0.57,1.27,1.27,1.27
			h5.22c0.7,0,1.27-0.57,1.27-1.27V21.87z M327.1,25.82h-2.68v-2.68h2.68V25.82z"/>
		<path class="st0" d="M329.65,30.54c0-0.7-0.57-1.27-1.27-1.27h-5.22c-0.7,0-1.27,0.57-1.27,1.27v5.22c0,0.7,0.57,1.27,1.27,1.27
			h5.22c0.7,0,1.27-0.57,1.27-1.27V30.54z M327.1,34.49h-2.68v-2.68h2.68V34.49z"/>
		<path class="st0" d="M329.65,39.21c0-0.7-0.57-1.27-1.27-1.27h-5.22c-0.7,0-1.27,0.57-1.27,1.27v5.22c0,0.7,0.57,1.27,1.27,1.27
			h5.22c0.7,0,1.27-0.57,1.27-1.27V39.21z M327.1,43.16h-2.68v-2.68h2.68V43.16z"/>
		<path class="st0" d="M347.11,21.87c0-0.7-0.57-1.27-1.27-1.27h-5.22c-0.7,0-1.27,0.57-1.27,1.27v5.22c0,0.7,0.57,1.27,1.27,1.27
			h5.22c0.7,0,1.27-0.57,1.27-1.27V21.87z M341.88,23.15h2.68v2.68h-2.68V23.15z"/>
		<path class="st0" d="M347.11,30.54c0-0.7-0.57-1.27-1.27-1.27h-5.22c-0.7,0-1.27,0.57-1.27,1.27v5.22c0,0.7,0.57,1.27,1.27,1.27
			h5.22c0.7,0,1.27-0.57,1.27-1.27V30.54z M344.56,34.49h-2.68v-2.68h2.68V34.49z"/>
		<path class="st0" d="M355.77,21.87c0-0.7-0.57-1.27-1.27-1.27h-5.22c-0.7,0-1.27,0.57-1.27,1.27v5.22c0,0.7,0.57,1.27,1.27,1.27
			h5.22c0.7,0,1.27-0.57,1.27-1.27V21.87z M350.55,23.15h2.68v2.68h-2.68V23.15z"/>
		<path class="st0" d="M320.98,21.87c0-0.7-0.57-1.27-1.27-1.27h-5.22c-0.7,0-1.27,0.57-1.27,1.27v5.22c0,0.7,0.57,1.27,1.27,1.27
			h5.22c0.7,0,1.27-0.57,1.27-1.27V21.87z M318.43,25.82h-2.68v-2.68h2.68V25.82z"/>
		<path class="st0" d="M320.98,30.54c0-0.7-0.57-1.27-1.27-1.27h-5.22c-0.7,0-1.27,0.57-1.27,1.27v5.22c0,0.7,0.57,1.27,1.27,1.27
			h5.22c0.7,0,1.27-0.57,1.27-1.27V30.54z M318.43,34.49h-2.68v-2.68h2.68V34.49z"/>
		<path class="st0" d="M320.98,39.21c0-0.7-0.57-1.27-1.27-1.27h-5.22c-0.7,0-1.27,0.57-1.27,1.27v5.22c0,0.7,0.57,1.27,1.27,1.27
			h5.22c0.7,0,1.27-0.57,1.27-1.27V39.21z M318.43,43.16h-2.68v-2.68h2.68V43.16z"/>
		<path class="st0" d="M359.85,39.06V11.12c0.01-1.2-0.46-2.35-1.3-3.2c-0.84-0.85-1.99-1.33-3.19-1.33h-2.27V3.91
			c0-0.34-0.13-0.66-0.37-0.9c-0.24-0.24-0.56-0.37-0.89-0.38h-6.22c-0.71,0-1.29,0.56-1.31,1.27v2.68h-19.62V3.91
			c-0.01-0.71-0.59-1.27-1.3-1.27h-6.22c-0.7,0-1.27,0.57-1.27,1.27v2.68h-2.32c-2.51-0.01-4.55,2.02-4.56,4.54v34.5
			c0.01,2.51,2.05,4.54,4.56,4.55h23.4c-0.09,0.65-0.13,1.31-0.13,1.98c0,8.4,6.84,15.23,15.27,15.23
			c6.86,0.01,12.88-4.57,14.69-11.19C368.6,49.56,365.76,42.55,359.85,39.06z M346.85,5.18h3.7v4.84h-3.7V5.18z M318.43,5.18h3.7
			v4.84h-3.7V5.18z M313.57,9.13h2.32v2.12c-0.01,0.71,0.56,1.3,1.27,1.33h6.22c0.72-0.02,1.29-0.61,1.3-1.33V9.13h19.62v2.12
			c0.02,0.72,0.59,1.3,1.31,1.33h6.22c0.7,0,1.26-0.61,1.26-1.33V9.13h2.27c0.52,0,1.02,0.21,1.38,0.59
			c0.36,0.37,0.56,0.88,0.55,1.4v4.38h-45.75v-4.38C311.57,10.02,312.46,9.13,313.57,9.13z M313.57,47.62c-1.11-0.01-2-0.9-2.01-2
			V18.05h45.75v19.8c-1.03-0.4-2.11-0.68-3.21-0.82h0.41c0.71,0,1.28-0.57,1.29-1.27v-5.22c-0.01-0.71-0.58-1.27-1.29-1.27h-5.22
			c-0.34,0-0.66,0.14-0.9,0.38c-0.24,0.24-0.37,0.56-0.37,0.9v5.22c0,0.34,0.13,0.66,0.37,0.9c0.24,0.24,0.56,0.37,0.9,0.38h0.83
			c-5.9,0.77-10.81,4.9-12.58,10.58H313.57z M353.22,34.49h-2.68v-2.68h2.68V34.49z M352.09,64.82c-7.01,0-12.72-5.68-12.72-12.68
			s5.71-12.68,12.72-12.68c7.01,0,12.72,5.68,12.72,12.68C364.78,59.15,359.1,64.82,352.09,64.82z"/>
	</g>
	<g>
		<path class="st0" d="M273.57,57.11c0.34,0.34,0.8,0.53,1.27,0.53c0.48,0,0.93-0.19,1.27-0.53l6.42-6.42c0.7-0.7,0.7-1.84,0-2.55
			c-0.7-0.7-1.84-0.7-2.54,0l-5.15,5.15l-2.35-2.35c-0.7-0.7-1.84-0.7-2.55,0c-0.7,0.7-0.7,1.84,0,2.55L273.57,57.11z"/>
		<g>
			<path class="st0" d="M261.9,21.87c0-0.7-0.57-1.27-1.27-1.27h-5.22c-0.7,0-1.27,0.57-1.27,1.27v5.22c0,0.7,0.57,1.27,1.27,1.27
				h5.22c0.7,0,1.27-0.57,1.27-1.27V21.87z M259.35,25.82h-2.68v-2.68h2.68V25.82z"/>
			<path class="st0" d="M261.9,30.54c0-0.7-0.57-1.27-1.27-1.27h-5.22c-0.7,0-1.27,0.57-1.27,1.27v5.22c0,0.7,0.57,1.27,1.27,1.27
				h5.22c0.7,0,1.27-0.57,1.27-1.27V30.54z M259.35,34.49h-2.68v-2.68h2.68V34.49z"/>
			<path class="st0" d="M261.9,39.21c0-0.7-0.57-1.27-1.27-1.27h-5.22c-0.7,0-1.27,0.57-1.27,1.27v5.22c0,0.7,0.57,1.27,1.27,1.27
				h5.22c0.7,0,1.27-0.57,1.27-1.27V39.21z M259.35,43.16h-2.68v-2.68h2.68V43.16z"/>
			<path class="st0" d="M253.23,21.87c0-0.7-0.57-1.27-1.27-1.27h-5.22c-0.7,0-1.27,0.57-1.27,1.27v5.22c0,0.7,0.57,1.27,1.27,1.27
				h5.22c0.7,0,1.27-0.57,1.27-1.27V21.87z M250.68,25.82h-2.68v-2.68h2.68V25.82z"/>
			<path class="st0" d="M253.23,30.54c0-0.7-0.57-1.27-1.27-1.27h-5.22c-0.7,0-1.27,0.57-1.27,1.27v5.22c0,0.7,0.57,1.27,1.27,1.27
				h5.22c0.7,0,1.27-0.57,1.27-1.27V30.54z M250.68,34.49h-2.68v-2.68h2.68V34.49z"/>
			<path class="st0" d="M253.23,39.21c0-0.7-0.57-1.27-1.27-1.27h-5.22c-0.7,0-1.27,0.57-1.27,1.27v5.22c0,0.7,0.57,1.27,1.27,1.27
				h5.22c0.7,0,1.27-0.57,1.27-1.27V39.21z M250.68,43.16h-2.68v-2.68h2.68V43.16z"/>
			<path class="st0" d="M270.69,21.87c0-0.7-0.57-1.27-1.27-1.27h-5.22c-0.7,0-1.27,0.57-1.27,1.27v5.22c0,0.7,0.57,1.27,1.27,1.27
				h5.22c0.7,0,1.27-0.57,1.27-1.27V21.87z M265.47,23.15h2.68v2.68h-2.68V23.15z"/>
			<path class="st0" d="M270.69,30.54c0-0.7-0.57-1.27-1.27-1.27h-5.22c-0.7,0-1.27,0.57-1.27,1.27v5.22c0,0.7,0.57,1.27,1.27,1.27
				h5.22c0.7,0,1.27-0.57,1.27-1.27V30.54z M268.14,34.49h-2.68v-2.68h2.68V34.49z"/>
			<path class="st0" d="M279.36,21.87c0-0.7-0.57-1.27-1.27-1.27h-5.22c-0.7,0-1.27,0.57-1.27,1.27v5.22c0,0.7,0.57,1.27,1.27,1.27
				h5.22c0.7,0,1.27-0.57,1.27-1.27V21.87z M274.13,23.15h2.68v2.68h-2.68V23.15z"/>
			<path class="st0" d="M244.57,21.87c0-0.7-0.57-1.27-1.27-1.27h-5.22c-0.7,0-1.27,0.57-1.27,1.27v5.22c0,0.7,0.57,1.27,1.27,1.27
				h5.22c0.7,0,1.27-0.57,1.27-1.27V21.87z M242.02,25.82h-2.68v-2.68h2.68V25.82z"/>
			<path class="st0" d="M244.57,30.54c0-0.7-0.57-1.27-1.27-1.27h-5.22c-0.7,0-1.27,0.57-1.27,1.27v5.22c0,0.7,0.57,1.27,1.27,1.27
				h5.22c0.7,0,1.27-0.57,1.27-1.27V30.54z M242.02,34.49h-2.68v-2.68h2.68V34.49z"/>
			<path class="st0" d="M244.57,39.21c0-0.7-0.57-1.27-1.27-1.27h-5.22c-0.7,0-1.27,0.57-1.27,1.27v5.22c0,0.7,0.57,1.27,1.27,1.27
				h5.22c0.7,0,1.27-0.57,1.27-1.27V39.21z M242.02,43.16h-2.68v-2.68h2.68V43.16z"/>
			<path class="st0" d="M283.43,39.06V11.12c0.01-1.2-0.46-2.35-1.3-3.2c-0.84-0.85-1.99-1.33-3.19-1.33h-2.27V3.91
				c0-0.34-0.13-0.66-0.37-0.9c-0.24-0.24-0.56-0.37-0.89-0.38h-6.22c-0.71,0-1.29,0.56-1.31,1.27v2.68h-19.62V3.91
				c-0.01-0.71-0.59-1.27-1.3-1.27h-6.22c-0.7,0-1.27,0.57-1.27,1.27v2.68h-2.32c-2.51-0.01-4.55,2.02-4.56,4.54v34.5
				c0.01,2.51,2.05,4.54,4.56,4.55h23.4c-0.09,0.65-0.13,1.31-0.13,1.98c0,8.4,6.84,15.23,15.27,15.23
				c6.86,0.01,12.88-4.57,14.69-11.19C292.19,49.56,289.34,42.55,283.43,39.06z M270.44,5.18h3.7v4.84h-3.7V5.18z M242.02,5.18h3.7
				v4.84h-3.7V5.18z M237.15,9.13h2.32v2.12c-0.01,0.71,0.56,1.3,1.27,1.33h6.22c0.72-0.02,1.29-0.61,1.3-1.33V9.13h19.62v2.12
				c0.02,0.72,0.59,1.3,1.31,1.33h6.22c0.7,0,1.26-0.61,1.26-1.33V9.13h2.27c0.52,0,1.02,0.21,1.38,0.59
				c0.36,0.37,0.56,0.88,0.55,1.4v4.38h-45.75v-4.38C235.15,10.02,236.05,9.13,237.15,9.13z M237.15,47.62c-1.11-0.01-2-0.9-2.01-2
				V18.05h45.75v19.8c-1.03-0.4-2.11-0.68-3.21-0.82h0.41c0.71,0,1.28-0.57,1.29-1.27v-5.22c-0.01-0.71-0.58-1.27-1.29-1.27h-5.22
				c-0.34,0-0.66,0.14-0.89,0.38c-0.24,0.24-0.37,0.56-0.37,0.9v5.22c0,0.34,0.13,0.66,0.37,0.9c0.24,0.24,0.56,0.37,0.89,0.38h0.83
				c-5.9,0.77-10.81,4.9-12.58,10.58H237.15z M276.81,34.49h-2.68v-2.68h2.68V34.49z M275.67,64.82c-7.01,0-12.72-5.68-12.72-12.68
				s5.71-12.68,12.72-12.68s12.72,5.68,12.72,12.68C288.37,59.15,282.68,64.82,275.67,64.82z"/>
		</g>
	</g>
	<g>
		<path class="st0" d="M208.95,3.9l-46.04-0.18h-0.03c-1.66,0-3.26,0.66-4.44,1.84c-1.17,1.18-1.83,2.78-1.82,4.44v42.58
			c-0.02,2.24,1.15,4.32,3.07,5.48v4.34c0,2.16,1.83,3.9,3.99,3.9h5.14c1.04,0,2.03-0.4,2.76-1.14c0.73-0.73,1.15-1.72,1.15-2.76
			v-3.47h26.38v3.47c0,2.15,1.76,3.9,3.91,3.9h5.14c2.16,0,3.99-1.73,3.99-3.9v-4.34c1.92-1.15,3.09-3.24,3.07-5.48V10.18
			C215.21,6.72,212.41,3.91,208.95,3.9z M159.69,32.99v-18.3l24.69,0.11v18.3L159.69,32.99z M187.45,14.82l24.69,0.11v18.3
			l-24.69-0.11V14.82z M160.61,7.72c0.59-0.6,1.41-0.94,2.26-0.94h0.01l46.06,0.18c1.77,0.01,3.21,1.45,3.21,3.22v1.66l-52.45-0.21
			V10C159.67,9.15,160,8.32,160.61,7.72z M169.65,62.39c0,0.22-0.09,0.43-0.25,0.59c-0.16,0.16-0.37,0.24-0.6,0.24h-5.14
			c-0.48,0-0.92-0.35-0.92-0.83v-3.51c0.15,0,0.09,0.05,0.12,0.05h6.78V62.39z M209.07,62.39c0,0.48-0.44,0.83-0.92,0.83h-5.14
			c-0.22,0.01-0.44-0.08-0.6-0.23c-0.16-0.16-0.25-0.37-0.25-0.59v-3.47h6.78c0.01,0-0.03-0.05,0.12-0.05V62.39z M208.95,55.86
			h-46.07c-1.78,0-3.19-1.5-3.19-3.28V36.06l25.84,0.11c0.13,0.04,0.26,0.06,0.4,0.06c0.12,0,0.24-0.01,0.35-0.05l25.86,0.11v16.29
			C212.14,54.36,210.74,55.86,208.95,55.86z"/>
		<path class="st0" d="M210.14,43.74c0-0.85-0.69-1.53-1.53-1.53h-8.28c-0.85,0-1.53,0.69-1.53,1.53v5.67
			c0,0.85,0.69,1.53,1.53,1.53h8.28c0.85,0,1.53-0.69,1.53-1.53V43.74z M207.08,47.88h-5.21v-2.61h5.21V47.88z"/>
		<path class="st0" d="M173.03,43.74c0-0.85-0.69-1.53-1.53-1.53h-8.28c-0.85,0-1.53,0.69-1.53,1.53v5.67
			c0,0.85,0.69,1.53,1.53,1.53h8.28c0.85,0,1.53-0.69,1.53-1.53V43.74z M169.96,47.88h-5.21v-2.61h5.21V47.88z"/>
		<path class="st0" d="M193.73,48.19h-15.64c-0.85,0-1.53,0.69-1.53,1.53c0,0.85,0.69,1.53,1.53,1.53h15.64
			c0.85,0,1.53-0.69,1.53-1.53C195.27,48.88,194.58,48.19,193.73,48.19z"/>
		<path class="st0" d="M193.73,42.67h-15.64c-0.85,0-1.53,0.69-1.53,1.53c0,0.85,0.69,1.53,1.53,1.53h15.64
			c0.85,0,1.53-0.69,1.53-1.53C195.27,43.36,194.58,42.67,193.73,42.67z"/>
	</g>
	<g>
		<g>
			<path d="M127.93-27.75H91.83v-27.48c0-5.95,4.84-10.79,10.79-10.79h14.54c5.95,0,10.79,4.84,10.79,10.79V-27.75z M95.23-31.15
				h29.31v-24.08c0-4.07-3.31-7.38-7.39-7.38h-14.54c-4.07,0-7.38,3.31-7.38,7.38V-31.15z"/>
		</g>
		<g>
			<path class="st1" d="M114.13-56.31h-8.49c-2.88,0-5.22-2.34-5.22-5.22v-5.35c0-2.88,2.34-5.22,5.22-5.22h8.49
				c2.88,0,5.22,2.34,5.22,5.22v5.35C119.34-58.65,117.01-56.31,114.13-56.31z"/>
			<path d="M114.13-54.61h-8.49c-3.81,0-6.92-3.1-6.92-6.92v-5.35c0-3.81,3.1-6.92,6.92-6.92h8.49c3.82,0,6.92,3.1,6.92,6.92v5.35
				C121.04-57.71,117.94-54.61,114.13-54.61z M105.63-70.4c-1.94,0-3.52,1.58-3.52,3.52v5.35c0,1.94,1.58,3.52,3.52,3.52h8.49
				c1.94,0,3.52-1.58,3.52-3.52v-5.35c0-1.94-1.58-3.52-3.52-3.52H105.63z"/>
		</g>
		<g>
			<path d="M127.04-14.73H92.72c-5.93,0-10.76-4.83-10.76-10.76v-3.02c0-1.46,1.19-2.65,2.65-2.65h50.54c1.46,0,2.65,1.19,2.65,2.65
				v3.02C137.8-19.55,132.97-14.73,127.04-14.73z M85.36-27.75v2.27c0,4.06,3.3,7.36,7.36,7.36h34.32c4.06,0,7.36-3.3,7.36-7.36
				v-2.27H85.36z"/>
		</g>
		<g>
			<path d="M118.67-6.92h-17.58c-1.1,0-2-0.9-2-2s0.9-2,2-2h17.58c1.1,0,2,0.9,2,2S119.77-6.92,118.67-6.92z"/>
		</g>
	</g>
	<g>
		<g>
			<g>
				<g>
					<path d="M60.56,5.86H2.35V8.7h58.21c1.85,0,3.42,1.18,4.01,2.83H2.35v2.85h42.61v17.02H2.35v2.85h42.74
						c0.67,3.23,3.53,5.67,6.95,5.67h12.78v2.85H46.37c-5,0-9.15,3.71-9.84,8.5H2.35v2.85h34.19c0.42,2.94,2.12,5.46,4.53,6.99
						c1.53,0.97,3.36,1.53,5.31,1.53c1.93,0,3.76-0.55,5.29-1.53c2.41-1.53,4.11-4.05,4.53-6.99h10.05c0.78,0,1.41-0.63,1.41-1.41
						V12.96C67.65,9.04,64.48,5.86,60.56,5.86z M46.37,59.77c-3.92,0-7.1-3.17-7.1-7.09s3.19-7.1,7.1-7.1s7.09,3.19,7.09,7.1
						S50.29,59.77,46.37,59.77z M64.82,51.25h-8.63c-0.31-2.2-1.36-4.18-2.88-5.67h11.52V51.25z M64.82,37.08H52.05
						c-2.35,0-4.26-1.91-4.26-4.26V14.37h17.04V37.08z"/>
				</g>
				<g>
					<path d="M46.37,48.43c-2.35,0-4.26,1.91-4.26,4.26c0,2.35,1.91,4.26,4.26,4.26s4.26-1.91,4.26-4.26
						C50.63,50.34,48.72,48.43,46.37,48.43z M46.37,54.1c-0.78,0-1.41-0.63-1.41-1.41c0-0.78,0.63-1.43,1.41-1.43
						c0.78,0,1.41,0.65,1.41,1.43C47.79,53.47,47.16,54.1,46.37,54.1z"/>
				</g>
			</g>
		</g>
		<g>
			<path d="M53.52,62.62c0,0.84-0.67,1.53-1.53,1.53H2.35v-3.06h49.64C52.85,61.09,53.52,61.78,53.52,62.62z"/>
		</g>
		<g>
			<path d="M64.84,64.14h-5.78c-0.84,0-1.53-0.68-1.53-1.53c0-0.84,0.68-1.53,1.53-1.53h5.78c0.84,0,1.53,0.68,1.53,1.53
				C66.37,63.46,65.68,64.14,64.84,64.14z"/>
		</g>
	</g>
	<g>
		<g>
			<g>
				<g>
					<path d="M77.23,12.96v39.73c0,0.78,0.63,1.41,1.41,1.41h10.05c0.42,2.94,2.12,5.46,4.53,6.99c1.53,0.97,3.36,1.53,5.29,1.53
						c1.95,0,3.78-0.55,5.31-1.53c2.41-1.53,4.11-4.05,4.53-6.99h34.19v-2.85h-34.19c-0.69-4.79-4.83-8.5-9.84-8.5H80.06v-2.85
						h12.78c3.42,0,6.28-2.44,6.95-5.67h42.74v-2.85H99.92V14.37h42.61v-2.85H80.31c0.59-1.64,2.16-2.83,4.01-2.83h58.21V5.86H84.32
						C80.4,5.86,77.23,9.04,77.23,12.96z M91.42,52.69c0-3.92,3.17-7.1,7.09-7.1c3.92,0,7.1,3.19,7.1,7.1s-3.19,7.09-7.1,7.09
						C94.59,59.77,91.42,56.6,91.42,52.69z M80.06,45.58h11.52c-1.53,1.49-2.58,3.48-2.88,5.67h-8.63V45.58z M80.06,14.37h17.04
						v18.45c0,2.35-1.91,4.26-4.26,4.26H80.06V14.37z"/>
				</g>
				<g>
					<path d="M94.25,52.69c0,2.35,1.91,4.26,4.26,4.26c2.35,0,4.26-1.91,4.26-4.26c0-2.35-1.91-4.26-4.26-4.26
						C96.16,48.43,94.25,50.34,94.25,52.69z M97.09,52.69c0-0.78,0.63-1.43,1.41-1.43c0.78,0,1.41,0.65,1.41,1.43
						c0,0.78-0.63,1.41-1.41,1.41C97.72,54.1,97.09,53.47,97.09,52.69z"/>
				</g>
			</g>
		</g>
		<g>
			<path d="M91.36,62.62c0,0.84,0.67,1.53,1.53,1.53h49.64v-3.06H92.89C92.03,61.09,91.36,61.78,91.36,62.62z"/>
		</g>
		<g>
			<path d="M80.04,64.14h5.78c0.84,0,1.53-0.68,1.53-1.53c0-0.84-0.68-1.53-1.53-1.53h-5.78c-0.84,0-1.53,0.68-1.53,1.53
				C78.51,63.46,79.2,64.14,80.04,64.14z"/>
		</g>
	</g>
</g>
</svg>
