<?xml version="1.0" encoding="utf-8"?>
<!-- Generator: Adobe Illustrator 24.0.0, SVG Export Plug-In . SVG Version: 6.00 Build 0)  -->
<svg version="1.1" xmlns="http://www.w3.org/2000/svg" xmlns:xlink="http://www.w3.org/1999/xlink" x="0px" y="0px"
	 viewBox="0 0 70 70" style="enable-background:new 0 0 70 70;" xml:space="preserve">
<style type="text/css">
	.st0{fill:#010101;}
</style>
<g id="Layer_1">
</g>
<g id="Layer_2">
	<g>
		<path class="st0" d="M51.84,18.79v-5.56c0-0.77-0.62-1.39-1.39-1.39c-0.77,0-1.39,0.62-1.39,1.39v6.14c0,0.37,0.14,0.73,0.4,0.99
			l3.08,3.08c0.26,0.26,0.62,0.41,0.99,0.4c0.37,0,0.72-0.15,0.99-0.4c0.26-0.26,0.41-0.61,0.41-0.98c0-0.37-0.14-0.72-0.4-0.98
			L51.84,18.79z"/>
		<path class="st0" d="M50.83,2.88C45.21,2.89,40,5.82,37.07,10.61l-28.2-0.18H8.84c-1.52,0-2.98,0.6-4.06,1.67
			c-1.09,1.07-1.7,2.52-1.71,4.04v38.57c0,2.13,1.25,3.97,2.92,4.96v3.93c0.01,0.94,0.39,1.84,1.06,2.49
			c0.67,0.66,1.57,1.02,2.51,1.01h4.65c1.96,0,3.58-1.54,3.58-3.5v-3.15h23.9v3.17c-0.01,0.93,0.36,1.83,1.02,2.49
			c0.66,0.66,1.56,1.02,2.49,1.01h4.65c0.93,0.01,1.83-0.36,2.49-1.02c0.66-0.66,1.02-1.55,1.02-2.49v-3.93
			c1.82-0.98,2.94-2.89,2.92-4.96V34.16c6.39-2.3,10.65-8.37,10.64-15.16C66.93,10.11,59.7,2.88,50.83,2.88z M6.74,14.07
			c0.56-0.55,1.31-0.86,2.1-0.86h0.01l26.87,0.17c-0.55,1.43-0.88,2.92-1,4.45L5.85,17.63v-1.49C5.86,15.36,6.18,14.61,6.74,14.07z
			 M5.85,36.98V20.4l22.37,0.15v16.52L5.85,36.98z M15.02,63.61c0,0.43-0.39,0.72-0.81,0.72H9.56c-0.2,0.01-0.4-0.06-0.55-0.2
			c-0.15-0.14-0.24-0.33-0.24-0.53v-3.18c0.02,0.01,0.05,0.01,0.07,0.01h6.18V63.61z M50.59,63.61c0.01,0.19-0.07,0.38-0.2,0.52
			c-0.14,0.14-0.33,0.21-0.52,0.2h-4.65c-0.2,0.01-0.39-0.06-0.53-0.2c-0.14-0.14-0.22-0.33-0.21-0.52v-3.17h6.1
			c0.01,0,0.01-0.01,0.01-0.01V63.61z M50.57,57.67H8.84c-1.64-0.01-2.96-1.32-2.99-2.96V39.76l23.08,0.1
			c0.2,0.11,0.43,0.17,0.67,0.17c0.23,0,0.45-0.05,0.65-0.17l23.26,0.1v14.76C53.51,56.33,52.2,57.66,50.57,57.67z M53.51,37.17
			L31,37.08V20.57l3.79,0.03c0.83,8.23,7.76,14.5,16.03,14.51c0.9,0,1.8-0.08,2.7-0.22v2.29H53.51z M50.83,32.33
			c-7.37,0-13.34-5.97-13.34-13.34S43.46,5.65,50.83,5.65s13.34,5.97,13.34,13.34C64.15,26.35,58.19,32.31,50.83,32.33z"/>
		<path class="st0" d="M51.56,46.69c0-0.77-0.62-1.39-1.39-1.39h-7.5c-0.77,0-1.39,0.62-1.39,1.39v5.14c0,0.77,0.62,1.39,1.39,1.39
			h7.5c0.77,0,1.39-0.62,1.39-1.39V46.69z M48.92,50.44h-4.86v-2.36h4.86V50.44z"/>
		<path class="st0" d="M18.08,46.69c0-0.77-0.62-1.39-1.39-1.39h-7.5c-0.77,0-1.39,0.62-1.39,1.39v5.14c0,0.77,0.62,1.39,1.39,1.39
			h7.5c0.77,0,1.39-0.62,1.39-1.39V46.69z M15.3,50.44h-4.72v-2.36h4.72V50.44z"/>
		<path class="st0" d="M36.79,50.72H22.63c-0.77,0-1.39,0.62-1.39,1.39c0,0.77,0.62,1.39,1.39,1.39h14.16
			c0.77,0,1.39-0.62,1.39-1.39C38.18,51.34,37.56,50.72,36.79,50.72z"/>
		<path class="st0" d="M36.79,45.86H22.63c-0.77,0-1.39,0.62-1.39,1.39c0,0.77,0.62,1.39,1.39,1.39h14.16
			c0.77,0,1.39-0.62,1.39-1.39C38.18,46.48,37.56,45.86,36.79,45.86z"/>
	</g>
</g>
</svg>
