<?xml version="1.0" encoding="utf-8"?>
<!-- Generator: Adobe Illustrator 24.0.0, SVG Export Plug-In . SVG Version: 6.00 Build 0)  -->
<svg version="1.1" xmlns="http://www.w3.org/2000/svg" xmlns:xlink="http://www.w3.org/1999/xlink" x="0px" y="0px"
	 viewBox="0 0 70 70" style="enable-background:new 0 0 70 70;" xml:space="preserve">
<style type="text/css">
	.st0{fill:#010101;}
</style>
<g id="Layer_1">
</g>
<g id="Layer_2">
	<g>
		<g>
			<path d="M46.16,10.75c-0.54-0.22-1.11-0.38-1.7-0.51c-0.55-0.11-1.12-0.18-1.7-0.21v3.42c0.59,0.03,1.16,0.13,1.7,0.3
				c0.6,0.19,1.17,0.45,1.7,0.79c2.09,1.29,3.49,3.62,3.49,6.26v24.08h-29.3V20.8c0-2.64,1.4-4.97,3.49-6.26
				c0.53-0.34,1.1-0.6,1.7-0.79c0.54-0.17,1.11-0.27,1.7-0.3v-3.42c-0.58,0.03-1.15,0.1-1.7,0.21c-0.59,0.13-1.16,0.29-1.7,0.51
				c-4.03,1.56-6.89,5.47-6.89,10.05v27.48h36.1V20.8C53.05,16.22,50.19,12.31,46.16,10.75z"/>
		</g>
		<g>
			<path d="M39.25,3.93h-8.5c-2.88,0-5.21,2.34-5.21,5.22v5.35c0,2.89,2.33,5.22,5.21,5.22h8.5c2.88,0,5.21-2.33,5.21-5.22V9.15
				C44.46,6.27,42.13,3.93,39.25,3.93z M42.76,14.5c0,1.94-1.57,3.52-3.51,3.52h-8.5c-1.94,0-3.51-1.58-3.51-3.52V9.15
				c0-1.94,1.57-3.52,3.51-3.52h8.5c1.94,0,3.51,1.58,3.51,3.52V14.5z"/>
			<path d="M39.25,2.23h-8.5c-3.81,0-6.91,3.1-6.91,6.92v5.39c0.02,3.8,3.11,6.88,6.91,6.88h8.5c3.8,0,6.89-3.08,6.91-6.88V9.15
				C46.16,5.33,43.06,2.23,39.25,2.23z M42.76,14.5c0,1.94-1.57,3.52-3.51,3.52h-8.5c-1.94,0-3.51-1.58-3.51-3.52V9.15
				c0-1.94,1.57-3.52,3.51-3.52h8.5c1.94,0,3.51,1.58,3.51,3.52V14.5z"/>
		</g>
		<g>
			<path d="M60.27,44.88H9.73c-1.46,0-2.65,1.19-2.65,2.65v3.02c0,5.93,4.83,10.76,10.76,10.76h34.32c5.93,0,10.76-4.83,10.76-10.76
				v-3.02C62.92,46.07,61.73,44.88,60.27,44.88z M59.52,50.55c0,4.06-3.31,7.36-7.36,7.36H17.84c-4.05,0-7.36-3.3-7.36-7.36v-2.27
				h49.04V50.55z"/>
		</g>
		<g>
			<path d="M43.79,69.11H26.21c-1.1,0-2-0.9-2-2s0.9-2,2-2h17.58c1.1,0,2,0.9,2,2S44.89,69.11,43.79,69.11z"/>
		</g>
	</g>
</g>
</svg>
