<?xml version="1.0" encoding="utf-8"?>
<!-- Generator: Adobe Illustrator 24.0.0, SVG Export Plug-In . SVG Version: 6.00 Build 0)  -->
<svg version="1.1" xmlns="http://www.w3.org/2000/svg" xmlns:xlink="http://www.w3.org/1999/xlink" x="0px" y="0px"
	 viewBox="0 0 70 70" style="enable-background:new 0 0 70 70;" xml:space="preserve">
<style type="text/css">
	.st0{fill:#010101;}
</style>
<g id="Layer_1">
</g>
<g id="Layer_2">
	<g>
		<g>
			<g>
				<g>
					<path d="M60.56,5.86H2.35V8.7h58.21c1.85,0,3.42,1.18,4.01,2.83H2.35v2.85h42.61v17.02H2.35v2.85h42.74
						c0.67,3.23,3.53,5.67,6.95,5.67h12.78v2.85H46.37c-5,0-9.15,3.71-9.84,8.5H2.35v2.85h34.19c0.42,2.94,2.12,5.46,4.53,6.99
						c1.53,0.97,3.36,1.53,5.31,1.53c1.93,0,3.76-0.55,5.29-1.53c2.41-1.53,4.11-4.05,4.53-6.99h10.05c0.78,0,1.41-0.63,1.41-1.41
						V12.96C67.65,9.04,64.48,5.86,60.56,5.86z M46.37,59.77c-3.92,0-7.1-3.17-7.1-7.09s3.19-7.1,7.1-7.1s7.09,3.19,7.09,7.1
						S50.29,59.77,46.37,59.77z M64.82,51.25h-8.63c-0.31-2.2-1.36-4.18-2.88-5.67h11.52V51.25z M64.82,37.08H52.05
						c-2.35,0-4.26-1.91-4.26-4.26V14.37h17.04V37.08z"/>
				</g>
				<g>
					<path d="M46.37,48.43c-2.35,0-4.26,1.91-4.26,4.26c0,2.35,1.91,4.26,4.26,4.26s4.26-1.91,4.26-4.26
						C50.63,50.34,48.72,48.43,46.37,48.43z M46.37,54.1c-0.78,0-1.41-0.63-1.41-1.41c0-0.78,0.63-1.43,1.41-1.43
						c0.78,0,1.41,0.65,1.41,1.43C47.79,53.47,47.16,54.1,46.37,54.1z"/>
				</g>
			</g>
		</g>
		<g>
			<path d="M53.52,62.62c0,0.84-0.67,1.53-1.53,1.53H2.35v-3.06h49.64C52.85,61.09,53.52,61.78,53.52,62.62z"/>
		</g>
		<g>
			<path d="M64.84,64.14h-5.78c-0.84,0-1.53-0.68-1.53-1.53c0-0.84,0.68-1.53,1.53-1.53h5.78c0.84,0,1.53,0.68,1.53,1.53
				C66.37,63.46,65.68,64.14,64.84,64.14z"/>
		</g>
	</g>
</g>
</svg>
