<?xml version="1.0" encoding="utf-8"?>
<!-- Generator: Adobe Illustrator 24.0.0, SVG Export Plug-In . SVG Version: 6.00 Build 0)  -->
<svg version="1.1" id="Layer_1" xmlns="http://www.w3.org/2000/svg" xmlns:xlink="http://www.w3.org/1999/xlink" x="0px" y="0px"
	 viewBox="0 0 512 512" style="enable-background:new 0 0 512 512;" xml:space="preserve">
<style type="text/css">
	.st0{fill:#BE1E2D;}
</style>
<g>
	<path class="st0" d="M409.6,187.6c0,33.6-0.1,67.3,0,100.9c0,11-4.6,19-14.1,24.4c-31.4,17.9-64.9,30-100.7,35.5
		c-53.1,8.1-103.8-0.6-152.5-22.4c-9.1-4-17.9-8.6-26.4-13.6c-8.9-5.2-13.4-12.9-13.4-23.2c0-67.3,0-134.5,0-201.8
		c0-22,13.5-41.2,34.2-48.5c29.3-10.3,59.5-16.4,90.5-18.8c24.7-2,49.3-1.4,73.8,1.5c25.4,3,50.2,8.6,74.2,17.3
		c21.1,7.6,34.3,26.2,34.3,48.7C409.6,120.9,409.6,154.2,409.6,187.6z"/>
	<path class="st0" d="M256.1,479.1c-33.9,0-67.9,0-101.8,0c-25.4,0-45.4-16.3-50.8-41.1c-0.7-3-1-6.1-1-9.2c0-15.4,0-30.7,0-46.1
		c0-10.2,8.7-15.9,17.8-11.5c27.6,13.4,56.6,22.6,86.8,27.4c23.9,3.8,47.9,4.9,72.1,3c37.7-3,73.6-12.4,107.9-28.3
		c1.8-0.9,3.6-1.8,5.5-2.6c8.2-3.5,16.9,1.9,16.9,10.9c0.1,16.5,0.4,33.1-0.1,49.6c-0.7,23-18.9,43.2-41.6,47.1
		c-3.7,0.6-7.4,0.8-11.2,0.8C323.2,479.2,289.6,479.1,256.1,479.1z"/>
	<path class="st0" d="M51.2,249.2c0,51,0,102.1,0,153.1c0,13.3-9.5,23.9-22.7,25.5c-14.8,1.8-28-9.7-28.5-24.8c0-0.5,0-1.1,0-1.6
		C0,299.9,0,198.3,0,96.8c0-13.2,8-23.3,20.6-26.1c15.2-3.4,30.5,8.5,30.6,24.2c0.2,14.8,0,29.7,0,44.5
		C51.2,175.9,51.2,212.6,51.2,249.2z"/>
	<path class="st0" d="M512,249.2c0,50.9,0,101.9,0,152.8c0,13.5-9.4,24.3-22.3,25.8c-15.4,1.8-28.4-9.5-28.9-25.1c0-0.4,0-0.9,0-1.3
		c0-101.6,0-203.1,0-304.7c0-13.3,8.1-23.4,20.9-26.2c14.7-3.2,29.8,8.5,30.3,23.6c0.2,6.1,0.1,12.2,0.1,18.3
		C512,158,512,203.6,512,249.2z"/>
</g>
</svg>
