<?xml version="1.0" encoding="utf-8"?>
<!-- Generator: Adobe Illustrator 24.0.0, SVG Export Plug-In . SVG Version: 6.00 Build 0)  -->
<svg version="1.1" id="Layer_1" xmlns="http://www.w3.org/2000/svg" xmlns:xlink="http://www.w3.org/1999/xlink" x="0px" y="0px"
	 viewBox="0 0 512 512" style="enable-background:new 0 0 512 512;" xml:space="preserve">
<style type="text/css">
	.st0{fill:none;stroke:#B2B2B2;stroke-width:16;stroke-miterlimit:10;}
</style>
<g>
	<path class="st0" d="M404.1,189.7c0,32.4-0.1,64.9,0,97.3c0,10.6-4.4,18.4-13.6,23.5c-30.3,17.3-62.6,28.9-97.1,34.3
		c-51.3,7.9-100.1-0.5-147-21.5c-8.8-3.9-17.3-8.3-25.5-13.1c-8.6-5-12.9-12.4-12.9-22.4c0-64.9,0-129.7,0-194.6
		c0-21.2,13-39.7,33-46.8c28.2-10,57.4-15.8,87.3-18.2c23.8-2,47.5-1.4,71.2,1.5c24.5,2.9,48.4,8.3,71.6,16.7
		c20.3,7.3,33.1,25.3,33.1,47C404.1,125.5,404.1,157.6,404.1,189.7z"/>
	<path class="st0" d="M256.1,470.9c-32.7,0-65.5,0-98.2,0c-24.5,0-43.7-15.7-49-39.6c-0.7-2.9-1-5.9-1-8.9c0-14.8,0-29.6,0-44.4
		c0-9.9,8.4-15.3,17.2-11.1c26.7,12.9,54.6,21.8,83.7,26.5c23,3.7,46.2,4.7,69.5,2.9c36.3-2.9,71-11.9,104.1-27.3
		c1.8-0.9,3.5-1.8,5.3-2.5c7.9-3.4,16.3,1.9,16.3,10.5c0.1,15.9,0.4,31.9-0.1,47.8c-0.7,22.2-18.3,41.7-40.1,45.4
		c-3.6,0.6-7.1,0.8-10.8,0.8C320.8,471,288.4,470.9,256.1,470.9z"/>
	<path class="st0" d="M58.5,249.2c0,49.2,0,98.5,0,147.6c0,12.8-9.2,23-21.9,24.6c-14.3,1.8-27-9.4-27.5-23.9c0-0.5,0-1.1,0-1.6
		c0-97.9,0-195.8,0-293.8C9.1,89.4,16.8,79.6,29,77c14.7-3.2,29.4,8.3,29.5,23.4c0.2,14.3,0,28.6,0,43
		C58.5,178.5,58.5,213.9,58.5,249.2z"/>
	<path class="st0" d="M502.9,249.2c0,49.1,0,98.3,0,147.3c0,13-9.1,23.4-21.5,24.9c-14.8,1.8-27.4-9.2-27.8-24.2c0-0.4,0-0.9,0-1.3
		c0-98,0-195.8,0-293.9c0-12.8,7.8-22.6,20.1-25.3c14.2-3.1,28.7,8.2,29.2,22.7c0.2,5.9,0.1,11.8,0.1,17.7
		C502.9,161.2,502.9,205.3,502.9,249.2z"/>
</g>
</svg>
