<?xml version="1.0" encoding="utf-8"?>
<!-- Generator: Adobe Illustrator 24.0.0, SVG Export Plug-In . SVG Version: 6.00 Build 0)  -->
<svg version="1.1" id="Layer_1" xmlns="http://www.w3.org/2000/svg" xmlns:xlink="http://www.w3.org/1999/xlink" x="0px" y="0px"
	 viewBox="0 0 1920 1080" style="enable-background:new 0 0 1920 1080;" xml:space="preserve">
<style type="text/css">
	.st0{fill:#1D3D70;}
	.st1{fill:none;stroke:#FFFFFF;stroke-miterlimit:10;}
	.st2{fill:none;stroke:#FFFFFF;stroke-width:0.75;stroke-miterlimit:10;}
</style>
<g id="Layer_2_1_">
	<rect class="st0" width="1920" height="1080"/>
</g>
<g>
	<path class="st1" d="M1511.9,340c-1,2.4-2.5,4-5.3,4.4c-9,1.6-17.9,3.3-26.8,5c-3.8,0.8-7.6,1.7-11.4,1.8c-7.5,0.2-15,0.2-22.5,0.3
		c-7.8,0.1-15.6-0.3-23.3,1.1c-1.6,0.3-2.4-0.2-2.3-2c0.1-1.9,0-3.9,0.1-5.8c0-4.2-1.2-8-3.4-11.5c-8.2-13-27.3-12.8-35.3,0.3
		c-2.9,4.7-3.7,9.8-3.5,15.3c0.2,4,0.1,4-3.9,4c-47.3,0-94.7,0-142,0.1c-10.3,0-20.6-0.9-30.8,1.4c-1.3,0.3-1.9-0.3-1.8-1.6
		c0.1-1.7,0-3.4,0-5.1c0-1.3,0.1-2.6,0-3.9c-0.2-6.4-2.9-11.6-7.8-15.5c-12.3-9.8-30.4-3.3-33.9,12.1c-0.9,4-0.7,8.2-0.7,12.3
		c0,1.5-0.4,2.2-2.1,1.8c-7.7-1.5-15.6-0.9-23.3-1.1c-5.6-0.1-11.3-0.2-16.9-0.1v-15.3h-29.1c-0.2-2.5-0.3-5.1-0.4-7.6
		c-0.3-9.7,0.5-19.5,1.3-29.1c1.2-13.2,3.8-26,9.3-38.2c0.4-0.9,0.3-1.3-0.7-1.3c-3.8,0-7.6-0.1-11.4,0.8c-1.8,0.5-3.2,1.4-4.5,2.8
		c-1,1.2,0.4,1.9,0.3,2.9c-0.3,3.9-0.5,7.7-1.3,11.5c-0.3,1.3-1.2,1.7-2.4,1.5c-1.6-0.3-2.6-1.2-2.6-3c0.1-2.9,0.1-5.9,0.4-8.8
		c0.1-1.4-0.2-2.8,0.4-4.2c1.8-4.6,5-7.5,9.7-8.9c4.1-1.2,8.2-1.7,12.4-1.5c1.9,0.1,3.4-0.1,3.8-2.4c0.1-0.6,0.6-1.1,0.9-1.6
		c3.1-4.6,8-7.1,11.8-10.8c0.7-0.7,1.7-1.2,2.7-1.7c6-3,12.5-4.7,19.1-5.9c11.1-2,22.3-2.8,33.5-2.7c14.7,0.2,29.5,0.2,44.2,0.3
		c11.6,0.1,23.2,0,34.8,0.1c4.7,0,8.7,1.6,10.9,6.1c0.7,1.5,1.9,1.4,3.1,1.4c37.7,0,75.3-0.1,112.9-0.1c30.6,0,61.3,0,91.9-0.1
		c5.2,0,10.4,0,15.3-2.1c2.8-1.2,5.8-1.4,8.8-1.2c5.8,0.5,10.6,3,13.7,8.2c0.3,0.6,0.9,1.3,0.5,1.9c-0.9,1.2-0.1,2.1,0.4,3
		c1.5,2.7,2.8,5.6,3.5,8.6c1.9,7.7,2.4,15.5,3.1,23.4c1.2,14.6,1.7,29.3,1.7,43.9c0,1.6,0.2,3.1,0.2,4.7
		C1513.3,332.3,1513.5,336.2,1511.9,340z"/>
	<path class="st1" d="M1507.4,309.2c-1.2-0.1-2.4,0-3.6,0c-1.1,0-1.8-0.3-2.4-0.9c-0.5-0.5-0.7-1.1-0.8-2.3c-0.1-1.1-0.1-3,0.6-5.4
		c-0.3,0-0.6,0-0.9-0.1c0-1.7,0-3.3,0-5v-0.6c0-0.2,0-0.4,0-0.6c0.1-0.8,0.6-1.1,1.6-1.1c1.7,0,3.4,0,5,0c1.3,0,1.8,0.5,1.8,1.7
		c0.1,4.1,0.1,8.2,0.3,12.3C1509.2,308.7,1508.7,309.3,1507.4,309.2z"/>
	<path class="st1" d="M1399.3,326.4c-10.3,0.1-18.7,8.5-18.7,18.8c0,10.2,8.6,18.8,18.8,18.7c10.4-0.1,18.8-8.6,18.7-19
		C1418.1,334.6,1409.7,326.3,1399.3,326.4z M1409.3,346.5c0,0.2-0.1,0.4-0.1,0.7c-0.9,4.4-4.6,7.7-9.7,7.9c-2.8,0.1-5.5-1.2-7.3-3.4
		c0,0,0,0,0-0.1c-1.5-1.8-2.5-4-2.5-6.4c0-0.2,0-0.4,0-0.5c0-0.2,0-0.4,0-0.5c0,0,0,0,0,0c0.5-5,4.7-8.8,9.8-8.9c5,0,9.2,4,9.8,8.9
		c0,0.1,0,0.1,0,0.1c0,0.2,0,0.4,0,0.7c0,0,0,0.1,0,0.1c0,0,0,0,0,0c0,0,0,0,0,0c0,0,0,0,0,0c0,0.4,0,0.7,0,1.1
		C1409.3,346.3,1409.3,346.4,1409.3,346.5z"/>
	<path class="st1" d="M1178.6,326.7c-10.6,0.1-18.5,8.1-18.5,18.4c0,10.8,8.3,18.4,18.5,18.6c10,0,18.4-8.4,18.5-18.3
		C1197.1,335.1,1188.8,326.7,1178.6,326.7z M1178.4,354.9c-3.9,0-7.5-2.3-8.9-5.9c-0.1-0.2-0.2-0.4-0.2-0.6c0,0,0,0,0,0
		c-0.3-1-0.5-2.1-0.4-3.2c0-1.8,0.4-3.4,1.2-4.8c0.1-0.2,0.2-0.4,0.4-0.6c0.2-0.3,0.3-0.5,0.5-0.7c0,0,0.1-0.1,0.1-0.1
		c0.2-0.3,0.4-0.5,0.7-0.8c1.7-1.7,4.1-2.8,6.8-2.8c5.2,0,9.7,4.4,9.7,9.7C1188.1,351,1183.7,354.8,1178.4,354.9z"/>
	<g>
		<path class="st1" d="M1178.3,335.5c-5.3,0-9.5,4.3-9.6,9.8c-0.1,5.2,4.5,9.6,9.8,9.5c5.1-0.1,9.5-4.4,9.5-9.6
			C1188.1,340.2,1183.4,335.5,1178.3,335.5z"/>
	</g>
	<path class="st1" d="M1103.8,247.9h8.2l-1.6,56.6c-0.1,4.9-1.8,9.6-4.8,13.5l-1.8,2.4c-4.4,5.6-11.1,8.9-18.2,8.9l0,0"/>
	<path class="st1" d="M1492.7,284h-280.4c-22.1,0-44,5.3-63.7,15.3l-31.7,16.2l5.8-54c1.1-9.9,9.4-17.4,19.4-17.4h352.8l3.2,21.1
		L1492.7,284z"/>
	<line class="st1" x1="1120.8" y1="279.5" x2="1115.5" y2="330.4"/>
	<line class="st1" x1="1155.9" y1="242.4" x2="1149.1" y2="353.4"/>
	<path class="st1" d="M1114.9,338.2v15.4H1092c-5.6,0-10.2-4.5-10.2-10.1v-1.9c0-1.8,1.5-3.3,3.3-3.3L1114.9,338.2L1114.9,338.2z"/>
	<line class="st1" x1="1450.3" y1="318.6" x2="1484.8" y2="318.6"/>
	<line class="st1" x1="1450.3" y1="322.8" x2="1484.8" y2="322.8"/>
	<line class="st1" x1="1450.3" y1="326.9" x2="1484.8" y2="326.9"/>
	<line class="st1" x1="1450.3" y1="331.1" x2="1484.8" y2="331.1"/>
	<line class="st1" x1="1450.3" y1="335.2" x2="1484.8" y2="335.2"/>
	<rect x="1214.7" y="311.1" class="st1" width="51.7" height="36.5"/>
	<rect x="1266.4" y="311.1" class="st1" width="51.7" height="36.5"/>
	<rect x="1318.1" y="311.1" class="st1" width="51.7" height="36.5"/>
	<line class="st2" x1="1231.4" y1="244.1" x2="1231.4" y2="284"/>
	<line class="st2" x1="1278" y1="244.1" x2="1278" y2="284"/>
	<line class="st2" x1="1324.6" y1="244.1" x2="1324.6" y2="284"/>
	<line class="st2" x1="1371.1" y1="244.1" x2="1371.1" y2="284"/>
	<line class="st2" x1="1417.7" y1="244.1" x2="1417.7" y2="284"/>
	<line class="st2" x1="1464.3" y1="244.1" x2="1464.3" y2="284"/>
</g>
<line class="st1" x1="1920" y1="349.4" x2="1513" y2="349.4"/>
<line class="st1" x1="1076.4" y1="349.4" x2="0" y2="349.4"/>
<g>
	<ellipse class="st1" cx="986.7" cy="242.2" rx="26.7" ry="38.5"/>
	<polyline class="st1" points="997.5,242.7 986.7,257.2 975.2,247 	"/>
	<line class="st1" x1="986.7" y1="256.9" x2="986.7" y2="349.4"/>
</g>
<g>
	<ellipse class="st1" cx="1846.2" cy="295.8" rx="13.4" ry="19.3"/>
	<polyline class="st1" points="1851.6,296 1846.2,303.3 1840.4,298.1 	"/>
	<line class="st1" x1="1846.2" y1="303.1" x2="1846.2" y2="349.4"/>
</g>
<g>
	<ellipse class="st1" cx="1916.3" cy="270.7" rx="19.6" ry="28.3"/>
	<polyline class="st1" points="1924.2,271.1 1916.3,281.7 1907.9,274.2 	"/>
	<line class="st1" x1="1916.3" y1="281.5" x2="1916.3" y2="349.4"/>
</g>
<path class="st1" d="M1246.7,160.3h-51.8c-11.9,0-12.6-17.9-0.7-18.6c0.3,0,0.6,0,0.9,0c1.4,0,2.8,0.2,4.2,0.5
	c4.6-7.3,12.5-12.1,21.5-12.1c7.3,0,13.8,3.1,18.5,8.2c2.3-0.8,4.7-1.2,7.2-1.2c0.3,0,0.7,0,1,0
	C1262.4,137.8,1261.6,160.3,1246.7,160.3z"/>
<path class="st1" d="M130.2,107.8H78.4c-11.9,0-12.6-17.9-0.7-18.6c0.3,0,0.6,0,0.9,0c1.4,0,2.8,0.2,4.2,0.5
	c4.6-7.3,12.5-12.1,21.5-12.1c7.3,0,13.8,3.1,18.5,8.2c2.3-0.8,4.7-1.2,7.2-1.2c0.3,0,0.7,0,1,0C145.9,85.3,145.1,107.8,130.2,107.8
	z"/>
<path class="st1" d="M1513.7,119.9h-51.8c-11.9,0-12.6-17.9-0.7-18.5c0.3,0,0.6,0,0.9,0c1.4,0,2.8,0.2,4.2,0.5
	c4.6-7.3,12.5-12.1,21.5-12.1c7.3,0,13.8,3.1,18.5,8.2c2.3-0.8,4.7-1.2,7.2-1.2c0.3,0,0.7,0,1,0
	C1529.4,97.4,1528.6,119.9,1513.7,119.9z"/>
<g>
	<path class="st1" d="M484.6,10.6l-2.1,20h4.4L484.6,10.6C484.6,10.5,484.6,10.5,484.6,10.6z"/>
	<path class="st1" d="M484.7,32.8c-6.8,0-14.1,7.3-14.1,16.3c0,9,5.6,16.3,14.1,16.3c8.9,0,14.1-7.3,14.1-16.3
		C498.8,40.1,492,32.8,484.7,32.8z"/>
	<path class="st1" d="M483.8,51.3c-0.6,0-1.2-0.1-1.8-0.2l-7.5-1.3l1.9-2.9l6.9,0.6c0.2,0,0.4,0,0.6,0L483.8,51.3L483.8,51.3z"/>
	<path class="st1" d="M487.3,51.1c-0.5,0.1-1.1,0.1-1.6,0.2l0.2-3.8c0.1,0,0.2,0,0.3,0l6.5-0.6l1.7,3.1L487.3,51.1z"/>
	<line class="st1" x1="483.8" y1="51.3" x2="483.8" y2="51.3"/>
	<path class="st1" d="M560.7,51.1l-37.4,4.5c1.2,1.3,2,3,2,4.9c0,3.8-3.1,7-7,7c-3.8,0-7-3.1-7-7c0-1.3,0.4-2.5,1-3.5l-12,1.4
		c1.3-2.6,2-5.7,2-9.1h58.3L560.7,51.1L560.7,51.1z"/>
	<path class="st1" d="M469.3,58.3c-1.3-2.6-2.1-5.7-2.1-9.2h-58.3v2l36.8,4.4c-1.3,1.3-2,3-2,4.9c0,3.8,3.1,7,7,7c3.8,0,7-3.1,7-7
		c0-1.3-0.4-2.6-1-3.6L469.3,58.3z M450.7,64c-2,0-3.6-1.6-3.6-3.6c0-2,1.6-3.6,3.6-3.6c2,0,3.6,1.6,3.6,3.6
		C454.3,62.4,452.7,64,450.7,64z"/>
	<path class="st1" d="M514.2,39.5v0.7l-12.9,1.5c-0.2-0.8-0.5-1.5-0.8-2.3H514.2z"/>
	<path class="st1" d="M468.7,39.5c-0.3,0.7-0.6,1.5-0.8,2.3l-13-1.5v-0.7H468.7z"/>
	<circle class="st1" cx="518.3" cy="60.4" r="3.6"/>
</g>
<path class="st1" d="M1846.2,341.3c-34.8-9.6-88.6-26.1-152.8-53.3c-109.5-46.4-143.5-79.2-212.3-89.9c-42.3-6.6-105.6-6-187.8,33.6
	"/>
<path class="st1" d="M1078.1,318.5c-22.8,2.7-53.9,4.4-90,0c-29.3-3.5-44.6-8.9-90.4-18.9c0,0-29.1-6.4-90.8-17.3
	c-111.3-19.7-210.9,32.8-357.1,25c-130.8-6.9-143.9-53.8-263.1-46C105.9,266.6,41.5,292.9,0,314.1"/>
</svg>
