<?xml version="1.0" encoding="utf-8"?>
<!-- Generator: Adobe Illustrator 24.0.0, SVG Export Plug-In . SVG Version: 6.00 Build 0)  -->
<svg version="1.1" xmlns="http://www.w3.org/2000/svg" xmlns:xlink="http://www.w3.org/1999/xlink" x="0px" y="0px"
	 viewBox="0 0 1920 1080" style="enable-background:new 0 0 1920 1080;" xml:space="preserve">
<style type="text/css">
	.st0{fill:#1D3D70;}
	.st1{display:none;}
	.st2{display:inline;}
	.st3{fill:none;stroke:#FFFFFF;stroke-miterlimit:10;}
	.st4{fill:none;stroke:#FFFFFF;stroke-width:0.75;stroke-miterlimit:10;}
	.st5{display:inline;fill:none;stroke:#FFFFFF;stroke-miterlimit:10;}
	.st6{display:inline;fill:#FFFFFF;}
	.st7{display:inline;fill:#F1F2F2;}
	.st8{fill:none;stroke:#FFFFFF;stroke-width:4;stroke-linecap:round;stroke-miterlimit:10;}
	.st9{fill:none;stroke:#FFFFFF;stroke-width:3;stroke-linecap:round;stroke-miterlimit:10;}
	.st10{fill:none;stroke:#FFFFFF;stroke-width:5;stroke-linecap:round;stroke-miterlimit:10;}
	.st11{display:inline;fill:none;stroke:#FFFFFF;stroke-width:3;stroke-linecap:round;stroke-miterlimit:10;}
	.st12{display:inline;fill:#8B5E3C;}
	.st13{display:inline;fill:#B27247;}
	.st14{display:inline;fill:#010101;}
	.st15{display:inline;fill:url(#SVGID_3_);}
	.st16{fill:#191919;}
	.st17{display:inline;fill:#1D3D70;}
	.st18{display:inline;fill:#A97C50;}
	.st19{display:inline;fill:url(#SVGID_4_);}
	.st20{display:inline;fill:#6CBCC6;}
	.st21{display:inline;fill:#EE9865;}
	.st22{display:inline;fill:#86D2DD;}
	.st23{display:inline;fill:#F6EBE5;}
	.st24{fill:#FFFFFF;}
	.st25{fill:#F1F2F2;}
	.st26{fill:#8B5E3C;}
	.st27{fill:#B27247;}
	.st28{fill:#010101;}
	.st29{fill:url(#SVGID_7_);}
	.st30{fill:#A97C50;}
	.st31{fill:url(#SVGID_8_);}
	.st32{fill:#6CBCC6;}
	.st33{fill:#EE9865;}
	.st34{fill:#86D2DD;}
	.st35{fill:#F6EBE5;}
</style>
<g id="Layer_2">
	<rect class="st0" width="1920" height="1080"/>
</g>
<g id="Layer_1" class="st1">
	<g class="st2">
		<path class="st3" d="M1511.6,448.5c-1.2,2.9-3.1,4.9-6.5,5.5c-11.1,2-22.2,4.1-33.2,6.2c-4.7,0.9-9.4,2.1-14.2,2.2
			c-9.3,0.2-18.5,0.3-27.8,0.4c-9.6,0.1-19.3-0.4-28.9,1.4c-1.9,0.4-2.9-0.2-2.8-2.4c0.1-2.4,0-4.8,0.1-7.2c0-5.2-1.5-9.9-4.2-14.2
			c-10.2-16.1-33.9-15.9-43.8,0.4c-3.6,5.8-4.6,12.2-4.3,18.9c0.2,5,0.1,5-4.9,5c-58.6,0-117.2,0-175.8,0.1
			c-12.7,0-25.5-1.1-38.1,1.7c-1.6,0.4-2.3-0.4-2.3-2c0.1-2.1,0-4.2,0-6.3c0-1.6,0.1-3.2,0-4.9c-0.3-7.9-3.6-14.4-9.7-19.2
			c-15.3-12.1-37.7-4.1-41.9,15c-1.1,5-0.8,10.2-0.9,15.2c0,1.9-0.5,2.7-2.6,2.3c-9.6-1.8-19.3-1.1-28.9-1.3
			c-7-0.2-13.9-0.2-20.9-0.2v-18.9h-36c-0.2-3.1-0.4-6.3-0.5-9.4c-0.4-12.1,0.6-24.1,1.7-36.1c1.5-16.3,4.7-32.2,11.5-47.2
			c0.5-1.1,0.4-1.6-0.9-1.6c-4.7,0-9.4-0.1-14.1,1c-2.3,0.6-4,1.7-5.5,3.5c-1.3,1.5,0.5,2.3,0.4,3.5c-0.3,4.8-0.7,9.6-1.7,14.2
			c-0.4,1.6-1.5,2.1-3,1.8c-1.9-0.4-3.2-1.5-3.2-3.7c0.1-3.6,0.2-7.3,0.5-10.9c0.1-1.7-0.2-3.5,0.5-5.2c2.2-5.7,6.2-9.2,12-11
			c5-1.5,10.1-2.1,15.3-1.9c2.4,0.1,4.3-0.1,4.7-3c0.1-0.7,0.7-1.3,1.1-2c3.8-5.6,9.9-8.8,14.7-13.3c0.9-0.9,2.2-1.5,3.3-2.1
			c7.5-3.8,15.5-5.8,23.6-7.4c13.7-2.5,27.6-3.4,41.5-3.3c18.2,0.2,36.5,0.3,54.7,0.4c14.4,0.1,28.8,0,43.1,0.1
			c5.9,0,10.8,2,13.5,7.6c0.9,1.9,2.4,1.7,3.9,1.7c46.6,0,93.2-0.1,139.8-0.1c37.9,0,75.9,0,113.9-0.1c6.4,0,12.8,0,18.9-2.6
			c3.5-1.5,7.2-1.8,10.9-1.4c7.3,0.6,13.2,3.7,16.9,10.2c0.4,0.7,1.2,1.6,0.6,2.3c-1.2,1.5-0.2,2.6,0.5,3.8
			c1.9,3.4,3.4,6.9,4.4,10.7c2.4,9.5,3,19.2,3.8,28.9c1.5,18.1,2.1,36.2,2,54.4c0,1.9,0.2,3.9,0.2,5.8
			C1513.3,439,1513.5,443.8,1511.6,448.5z"/>
		<path class="st3" d="M1506,410.4c-1.5-0.1-2.9,0-4.4,0c-1.3,0-2.3-0.4-2.9-1.1c-0.6-0.6-0.9-1.4-1-2.8c-0.1-1.4-0.2-3.7,0.7-6.6
			c-0.4,0-0.7-0.1-1.1-0.1c0-2,0-4.1,0-6.2v-0.7c0-0.3,0-0.5,0-0.7c0.1-1,0.7-1.4,2-1.4c2.1,0.1,4.2,0.1,6.2,0
			c1.6-0.1,2.3,0.6,2.3,2.1c0.1,5.1,0.2,10.2,0.3,15.3C1508.2,409.8,1507.7,410.5,1506,410.4z"/>
		<path class="st3" d="M1372.1,431.7c-12.8,0.1-23.1,10.5-23.1,23.3c0,12.7,10.7,23.2,23.3,23.2c12.9-0.1,23.2-10.6,23.1-23.5
			C1395.4,441.9,1385,431.6,1372.1,431.7z M1384.5,456.6c0,0.3-0.1,0.6-0.1,0.8c-1.1,5.4-5.7,9.6-11.9,9.8c-3.5,0.1-6.8-1.5-9-4.2
			c0,0-0.1,0-0.1-0.1c-1.9-2.2-3.1-5-3.1-8c0-0.2,0-0.4,0-0.7c0-0.2,0-0.4,0.1-0.7c0,0,0,0,0-0.1c0.6-6.2,5.8-10.9,12.1-11
			c6.1,0,11.4,4.9,12.1,11c0,0.1,0,0.1,0,0.2c0,0.3,0.1,0.6,0.1,0.8c0,0,0,0.1,0,0.1c0,0,0,0,0,0c0,0,0,0,0,0c0,0,0,0,0,0
			c0,0.4,0,0.9-0.1,1.4C1384.5,456.3,1384.5,456.4,1384.5,456.6z"/>
		<path class="st3" d="M1098.9,432.1c-13.1,0.1-22.9,10-22.9,22.7c0,13.3,10.3,22.8,23,23c12.4,0,22.8-10.4,22.9-22.7
			C1121.8,442.5,1111.5,432,1098.9,432.1z M1098.6,467c-4.8,0.1-9.2-2.9-11-7.3c-0.1-0.2-0.2-0.5-0.3-0.7c0,0,0,0,0,0
			c-0.4-1.2-0.6-2.6-0.5-4c0-2.2,0.5-4.2,1.5-6c0.1-0.2,0.3-0.5,0.4-0.7c0.2-0.3,0.4-0.6,0.7-0.9c0,0,0.1-0.1,0.1-0.1
			c0.3-0.3,0.6-0.7,0.9-0.9c2.1-2.1,5.1-3.5,8.4-3.4c6.5,0,12,5.4,12,12C1110.6,462.2,1105.1,466.9,1098.6,467z"/>
		<g>
			<path class="st3" d="M1098.5,443c-6.5,0-11.8,5.3-11.9,12.1c-0.1,6.4,5.5,11.9,12.1,11.8c6.4-0.1,11.8-5.5,11.8-11.8
				C1110.6,448.7,1104.8,443,1098.5,443z"/>
		</g>
		<path class="st3" d="M1006.2,334.5h10.1l-2,70.1c-0.2,6.1-2.3,11.9-6,16.7l-2.3,2.9c-5.4,7-13.7,11-22.5,11l0,0"/>
		<path class="st3" d="M1487.8,379.2h-347.2c-27.4,0-54.4,6.5-78.9,19l-39.2,20l7.1-66.9c1.3-12.3,11.7-21.6,24-21.6h436.8l3.9,26.1
			L1487.8,379.2z"/>
		<line class="st3" x1="1027.3" y1="373.6" x2="1020.8" y2="436.6"/>
		<line class="st3" x1="1070.7" y1="327.7" x2="1062.3" y2="465.1"/>
		<path class="st3" d="M1020,446.3v19.1h-28.3c-6.9,0-12.6-5.6-12.6-12.6v-2.4c0-2.3,1.9-4.1,4.1-4.1H1020z"/>
		<line class="st3" x1="1435.2" y1="422" x2="1478" y2="422"/>
		<line class="st3" x1="1435.2" y1="427.2" x2="1478" y2="427.2"/>
		<line class="st3" x1="1435.2" y1="432.3" x2="1478" y2="432.3"/>
		<line class="st3" x1="1435.2" y1="437.5" x2="1478" y2="437.5"/>
		<line class="st3" x1="1435.2" y1="442.6" x2="1478" y2="442.6"/>
		<rect x="1143.6" y="412.8" class="st3" width="64" height="45.1"/>
		<rect x="1207.6" y="412.8" class="st3" width="64" height="45.1"/>
		<rect x="1271.6" y="412.8" class="st3" width="64" height="45.1"/>
		<line class="st4" x1="1164.3" y1="329.8" x2="1164.3" y2="379.2"/>
		<line class="st4" x1="1221.9" y1="329.8" x2="1221.9" y2="379.2"/>
		<line class="st4" x1="1279.6" y1="329.8" x2="1279.6" y2="379.2"/>
		<line class="st4" x1="1337.3" y1="329.8" x2="1337.3" y2="379.2"/>
		<line class="st4" x1="1394.9" y1="329.8" x2="1394.9" y2="379.2"/>
		<line class="st4" x1="1452.6" y1="329.8" x2="1452.6" y2="379.2"/>
	</g>
	<line class="st5" x1="1920" y1="431.7" x2="1513" y2="431.7"/>
	<line class="st5" x1="983.5" y1="431.7" x2="0" y2="431.7"/>
	<ellipse class="st5" cx="842.2" cy="324.6" rx="26.7" ry="38.5"/>
	<polyline class="st5" points="853,325.1 842.2,339.6 830.7,329.3 	"/>
	<line class="st5" x1="842.2" y1="339.2" x2="842.2" y2="431.7"/>
	<path class="st5" d="M1246.7,242.6h-51.8c-11.9,0-12.6-17.9-0.7-18.5c0.3,0,0.6,0,0.9,0c1.4,0,2.8,0.2,4.2,0.5
		c4.6-7.3,12.5-12.1,21.5-12.1c7.3,0,13.8,3.1,18.5,8.2c2.2-0.8,4.7-1.2,7.2-1.2c0.3,0,0.7,0,1,0
		C1262.4,220.1,1261.6,242.6,1246.7,242.6z"/>
	<path class="st5" d="M1513.6,202.2h-51.8c-11.9,0-12.6-17.9-0.7-18.5c0.3,0,0.6,0,0.9,0c1.4,0,2.8,0.2,4.2,0.5
		c4.6-7.3,12.5-12.1,21.5-12.1c7.3,0,13.8,3.1,18.5,8.2c2.2-0.8,4.7-1.2,7.2-1.2c0.3,0,0.7,0,1,0
		C1529.4,179.8,1528.6,202.2,1513.6,202.2z"/>
	<g class="st2">
		<path class="st3" d="M484.6,20.4l-2.1,20h4.4L484.6,20.4C484.6,20.4,484.6,20.4,484.6,20.4z"/>
		<path class="st3" d="M484.7,42.7c-6.8,0-14.1,7.3-14.1,16.3c0,9,5.6,16.3,14.1,16.3c8.9,0,14.1-7.3,14.1-16.3
			C498.8,50,492,42.7,484.7,42.7z"/>
		<path class="st3" d="M483.8,61.1c-0.6,0-1.2-0.1-1.8-0.2l-7.5-1.3l1.9-2.9l6.9,0.6c0.2,0,0.4,0,0.6,0V61.1z"/>
		<path class="st3" d="M487.3,61c-0.5,0.1-1.1,0.1-1.6,0.2l0.2-3.7c0.1,0,0.2,0,0.3,0l6.5-0.6l1.7,3.1L487.3,61z"/>
		<line class="st3" x1="483.8" y1="61.1" x2="483.8" y2="61.1"/>
		<line class="st3" x1="485.7" y1="61.1" x2="485.7" y2="61.1"/>
		<path class="st3" d="M560.7,60.9l-37.4,4.5c1.2,1.3,2,3,2,4.9c0,3.8-3.1,7-6.9,7c-3.8,0-6.9-3.1-6.9-7c0-1.3,0.4-2.5,1-3.6
			l-12,1.4c1.3-2.6,2-5.7,2-9.1h58.3V60.9z"/>
		<path class="st3" d="M469.3,68.1c-1.3-2.6-2.1-5.7-2.1-9.2h-58.3v2l36.8,4.4c-1.3,1.3-2,3-2,4.9c0,3.8,3.1,7,7,7
			c3.8,0,6.9-3.1,6.9-7c0-1.3-0.4-2.6-1-3.6L469.3,68.1z M450.7,73.9c-2,0-3.6-1.6-3.6-3.6c0-2,1.6-3.6,3.6-3.6c2,0,3.6,1.6,3.6,3.6
			C454.3,72.2,452.7,73.9,450.7,73.9z"/>
		<path class="st3" d="M514.2,49.3V50l-12.9,1.5c-0.2-0.8-0.5-1.5-0.8-2.3H514.2z"/>
		<path class="st3" d="M468.7,49.3c-0.3,0.7-0.6,1.5-0.8,2.3l-13-1.6v-0.7H468.7z"/>
		<circle class="st3" cx="518.3" cy="70.2" r="3.6"/>
		<path class="st3" d="M454.3,70.2c0,2-1.6,3.6-3.6,3.6c-2,0-3.6-1.6-3.6-3.6c0-2,1.6-3.6,3.6-3.6C452.7,66.6,454.3,68.2,454.3,70.2
			z"/>
		<path class="st3" d="M454.3,70.2c0,2-1.6,3.6-3.6,3.6c-2,0-3.6-1.6-3.6-3.6c0-2,1.6-3.6,3.6-3.6C452.7,66.6,454.3,68.2,454.3,70.2
			z"/>
	</g>
	<path class="st5" d="M1888.2,431.7c-40.4-9.6-102.9-26.1-177.4-53.3c-127.2-46.4-166.7-79.2-246.5-89.9
		c-49.1-6.6-122.7-6-218.1,33.6"/>
	<path class="st5" d="M985.2,400.8c-20.9,2.7-49.3,4.3-82.3,0c-26.7-3.5-40.8-8.9-82.6-18.9c0,0-26.6-6.4-82.9-17.3
		c-101.8-19.7-192.7,32.8-326.3,25c-119.5-6.9-131.5-53.8-240.4-46C96.8,349,37.9,375.3,0,396.5"/>
</g>
<g id="Layer_4" class="st1">
	<path class="st6" d="M1354.8,249.5c0,39-14,74.7-37.4,102.4c-29.1,34.6-72.8,56.6-121.5,56.6c-50,0-94.7-23.1-123.8-59.3
		c-22-27.2-35.1-61.9-35.1-99.6c0-87.8,71.1-158.9,158.9-158.9C1283.6,90.6,1354.8,161.7,1354.8,249.5z"/>
	<path class="st7" d="M1317.4,351.8c-29.1,34.6-72.8,56.6-121.5,56.6c-50,0-94.7-23.1-123.8-59.3c35.1-13.5,75.8-21.2,119.3-21.2
		C1237.6,327.9,1280.8,336.6,1317.4,351.8z"/>
	<circle class="st6" cx="1221.4" cy="117.9" r="57.8"/>
</g>
<g id="Layer_5" class="st1">
	<g class="st2">
		<line class="st8" x1="1002.4" y1="380.9" x2="1026" y2="380.9"/>
		<line class="st8" x1="995" y1="389.8" x2="1018.6" y2="389.8"/>
	</g>
	<g class="st2">
		<line class="st9" x1="1389.3" y1="135.5" x2="1403" y2="135.5"/>
		<line class="st9" x1="1385.1" y1="140.4" x2="1398.8" y2="140.4"/>
	</g>
	<g class="st2">
		<line class="st10" x1="1030.2" y1="258.8" x2="1048.1" y2="258.8"/>
		<line class="st10" x1="1024.6" y1="267.8" x2="1042.5" y2="267.8"/>
	</g>
	<g class="st2">
		<line class="st9" x1="1033" y1="134.3" x2="1045.3" y2="146.6"/>
		<line class="st9" x1="1045.3" y1="134.3" x2="1033" y2="146.6"/>
	</g>
	<g class="st2">
		<line class="st9" x1="1361.6" y1="302" x2="1371.5" y2="311.9"/>
		<line class="st9" x1="1371.5" y1="302" x2="1361.6" y2="311.9"/>
	</g>
	<g class="st2">
		<line class="st9" x1="1298.7" y1="103.3" x2="1308.6" y2="113.2"/>
		<line class="st9" x1="1308.6" y1="103.3" x2="1298.7" y2="113.2"/>
	</g>
	<rect x="1394" y="211.6" class="st11" width="12.4" height="12.4"/>
	<rect x="965.8" y="300.8" class="st11" width="12.4" height="12.4"/>
	
		<rect x="1125.6" y="69.4" transform="matrix(0.7071 -0.7071 0.7071 0.7071 278.0195 822.4355)" class="st11" width="12.4" height="12.4"/>
	<circle class="st11" cx="1299.9" cy="66.4" r="9.3"/>
	<path class="st11" d="M970.7,185.1l-7.7,10.4c-0.8,1,0,2.5,1.3,2.5h15.5c1.3,0,2-1.5,1.3-2.5l-7.7-10.4
		C972.7,184.3,971.4,184.3,970.7,185.1z"/>
	<path class="st11" d="M1339.6,363.1l-7.3,9.9c-0.9,1.2,0,2.8,1.4,2.8h14.7c1.5,0,2.3-1.7,1.4-2.8l-7.3-9.9
		C1341.7,362.2,1340.3,362.2,1339.6,363.1z"/>
</g>
<g id="Layer_3" class="st1">
	<path class="st12" d="M1172,218.6l-5.7,60.1c0,0-21.9,21.4-29.9,38.6c-8,17.2-14.9,26.9-14.9,26.9l12.9,12.4l48.2-59.8
		c1.1-1.4,2-2.9,2.7-4.5l19.6-47.9L1172,218.6z"/>
	<path class="st13" d="M1276.6,141.8c1.7,5.2-1.1,10.9-6.3,12.6c-5.2,1.7-10.9-1.1-12.6-6.3c-1.7-5.2,1.1-10.9,6.3-12.6
		C1269.2,133.7,1274.8,136.6,1276.6,141.8z"/>
	<path class="st14" d="M1290.3,125L1290.3,125c0.6,1,0.4,2.3-0.6,2.9l-27.6,18.3c-1,0.6-2.3,0.4-2.9-0.6l0,0c-0.6-1-0.4-2.3,0.6-2.9
		l27.6-18.3C1288.3,123.7,1289.6,124,1290.3,125z"/>
	<path class="st13" d="M1215,132.7l14.4,35.9l30.7-20.8l7.2,7l-37.5,35c-2.5,1.9-6,1.3-7.8-1.2l-17.7-25.1L1215,132.7z"/>
	<path class="st13" d="M1204.3,120.4l-1.2-0.7c-4-2.3-9.5,0.2-7.3-3.8l19.2-34l14.4,8.1l-15.7,27.8
		C1211.8,121.1,1207.6,122.3,1204.3,120.4z"/>
	<path class="st13" d="M1241.3,95.6c-3.8,9.2-14.3,13.5-23.5,9.7c-9.2-3.8-13.5-14.3-9.7-23.5c4.6-11,13.3-13.9,23.5-9.7
		C1240.8,75.9,1245.1,86.4,1241.3,95.6z"/>
	<path class="st13" d="M1225.2,115c-1.2-0.2-2.2-0.9-4-2.2c-2.6-1.9-3.9-2.8-4.6-4.2c-0.4-0.8-1.1-2.5-0.5-5.2l6.6-15.9l18.7,7.8
		c-2.1,3.6-3.8,7.6-5,12.1c-0.1,0.3-0.2,0.6-0.2,1c-0.9,0-1.9,0-2.8,0c0.7,0.4,1.4,0.9,2.1,1.3c-0.2,0.1-0.5,0.2-0.8,0.4
		c-1.2,0.7-1.7,1.7-1.9,2c0,0-1,1.4-2.8,2.3C1227.7,115.5,1225.6,115.1,1225.2,115z"/>
	<path class="st13" d="M1239.3,99.1l1.4,6.8c0.2,1.1-1,1.9-2,1.4l-4.5-1L1239.3,99.1z"/>
	<g class="st2">
		<defs>
			<path id="SVGID_1_" d="M1241.3,95.6c-3.8,9.2-14.3,13.5-23.5,9.7c-9.2-3.8-13.5-14.3-9.7-23.5c4.6-11,13.3-13.9,23.5-9.7
				C1240.8,75.9,1245.1,86.4,1241.3,95.6z"/>
		</defs>
		<use xlink:href="#SVGID_1_"  style="overflow:visible;fill:#B27247;"/>
		<clipPath id="SVGID_2_">
			<use xlink:href="#SVGID_1_"  style="overflow:visible;"/>
		</clipPath>
	</g>
	<linearGradient id="SVGID_3_" gradientUnits="userSpaceOnUse" x1="1215.8107" y1="111.5723" x2="1227.594" y2="75.7411">
		<stop  offset="0" style="stop-color:#B27247"/>
		<stop  offset="0.1767" style="stop-color:#9C6746"/>
		<stop  offset="0.5362" style="stop-color:#684C40"/>
		<stop  offset="1" style="stop-color:#2A272D"/>
	</linearGradient>
	<path class="st15" d="M1245.3,86.1c-0.7,1.8-2,3.1-2.7,3.8c-3.8-0.9-7.6-1.9-11.4-2.8l-5.3,8.7c-0.3,0.7-1,1-1.7,0.8l-1.1-0.4
		c-0.7-0.3-1.2-0.9-1.3-1.6l-0.4-3.9l-5.2,3.8c-6.5,6.8-11.8,6.3-11.8,6.3c-1.2-16.7-0.5-25.5,8.7-31.9c4.7-3.2,10.7-3,16.2-1
		c0.4,0.2,0.9,0.3,1.3,0.5c0.5,0.2,1,0.4,1.5,0.6c1.4,0.7,2.8,1.4,4.1,2.2c0.3,0.2,0.5,0.3,0.7,0.5c0,0,0,0,0.1,0
		c2.3,1.5,4.2,3.2,5.6,4.8c0,0.1,0.1,0.1,0.1,0.2C1245.6,80,1245.8,83.5,1245.3,86.1z"/>
	<g class="st2">
		<g>
			<polygon class="st16" points="1239,99.6 1221.2,91.2 1221.7,90.1 1239.5,98.5 			"/>
		</g>
		<g>
			<polygon class="st16" points="1238.5,103.3 1237.4,102.9 1240.9,94.8 1242,95.2 			"/>
		</g>
	</g>
	<path class="st13" d="M1222.3,87.7c2.3,2.2,2.4,5.8,0.3,8.1c-2.2,2.3-5.8,2.4-8.1,0.3c-2.3-2.2-2.4-5.8-0.3-8.1
		C1216.3,85.6,1219.9,85.5,1222.3,87.7z"/>
	<path class="st17" d="M1206.8,114.4c0,0,10.1,3.8,14.7,30.2c4.6,26.4-3.1,68.6-3.1,68.6l-46.3-4.2l11.9-85.3
		C1183.9,123.6,1193.7,104.4,1206.8,114.4z"/>
	<path class="st18" d="M1218.3,213.1v13.5l28.5,54.3c0.9,1.7,1.4,3.5,1.7,5.4l8.6,77.5l-16.9,5.2c0,0-19-55.9-15.5-72.1l-46.5-60
		c0,0-10.2-12.7-6.1-28.1L1218.3,213.1z"/>
	<path class="st14" d="M1257.1,363.9l17.9,1.7c4.6,0.4,8.7,3,11.1,6.9l0,0c0.5,0.7,0,1.7-0.8,1.9l-41.5,8.6c-0.7,0.1-1.4-0.3-1.5-1
		l-2.1-12.9L1257.1,363.9z"/>
	<path class="st14" d="M1134.7,356l7.8,16.2c2,4.1,1.9,9-0.2,13.1v0c-0.4,0.8-1.4,0.9-2,0.3l-28.2-30.6c-0.5-0.5-0.4-1.3,0.1-1.8
		l9.3-8.9L1134.7,356z"/>
	<linearGradient id="SVGID_4_" gradientUnits="userSpaceOnUse" x1="1224.9551" y1="114.5796" x2="1236.7385" y2="78.7483">
		<stop  offset="0" style="stop-color:#B27247"/>
		<stop  offset="0.1767" style="stop-color:#9C6746"/>
		<stop  offset="0.5362" style="stop-color:#684C40"/>
		<stop  offset="1" style="stop-color:#2A272D"/>
	</linearGradient>
	<path class="st19" d="M1245.9,83.3c0,1-0.3,2-0.6,2.8c-0.7,1.8-2,3.1-2.7,3.8c-3.8-0.9-7.6-1.9-11.4-2.8l-1.9-19.4
		c0.4,0.2,0.9,0.3,1.3,0.5c0.5,0.2,1,0.4,1.5,0.6c1.6,0.7,2.9,1.5,4.1,2.2c0.3,0.2,0.5,0.3,0.7,0.5c0,0,0,0,0.1,0
		c1.2,0.8,2.1,1.6,2.8,2.2c1,0.9,1.9,1.7,2.8,2.6c0,0.1,0.1,0.1,0.1,0.2C1244.6,78.5,1246,80.6,1245.9,83.3z"/>
	<path class="st20" d="M1095.8,273.6l-4.9,4.8l-6.2-6.2l5.2-4.8c1.7-1.6,4.4-1.5,6.1,0.2l0,0C1097.6,269.3,1097.5,272,1095.8,273.6z
		"/>
	<path class="st20" d="M1045.8,285.1l5.6,5.9l-58.2,56.8l-6.1-6.2c-2.2-2.3-2.2-5.9,0.1-8.1l50.5-48.5
		C1039.9,282.7,1043.6,282.8,1045.8,285.1z"/>
	
		<rect x="1085.2" y="252.4" transform="matrix(0.7132 -0.7009 0.7009 0.7132 145.0301 862.6556)" class="st2" width="83.1" height="3.5"/>
	<path class="st21" d="M1155.2,226.3c1.8,1.8,4.7,1.8,6.5,0c1.8-1.8,1.8-4.7,0-6.5c-1.8-1.8-4.7-1.8-6.5,0
		C1153.4,221.5,1153.4,224.4,1155.2,226.3z"/>
	<path class="st22" d="M1105.5,289.6l-26.3-23.7c-3.7-3.3-9.4-3.2-13,0.3l-71.5,70.2c-3.7,3.6-3.8,9.6-0.2,13.3l26.4,27.2
		L1105.5,289.6z"/>
	<path class="st2" d="M1008.2,371.5c0,7,5.6,12.6,12.6,12.6c7,0,12.6-5.6,12.6-12.6c0-7-5.6-12.6-12.6-12.6
		C1013.8,358.9,1008.2,364.5,1008.2,371.5z"/>
	<path class="st23" d="M1015.5,371.5c0,2.9,2.4,5.3,5.3,5.3c2.9,0,5.3-2.4,5.3-5.3s-2.4-5.3-5.3-5.3
		C1017.9,366.2,1015.5,368.5,1015.5,371.5z"/>
	<path class="st13" d="M1167.1,226.8c-2.1,4.7-7.6,6.9-12.4,4.8c-4.7-2.1-6.9-7.6-4.8-12.4c2.1-4.7,7.6-6.9,12.4-4.8
		C1167,216.5,1169.2,222.1,1167.1,226.8z"/>
	<path class="st13" d="M1181.3,157.2l-16.5,25.9l-1.3,34.5l-9.7-0.2l-4.5-35.9c-0.3-2,0.1-4,1-5.8l14.4-27.9L1181.3,157.2z"/>
	<path class="st17" d="M1195.3,112.3c-7.5,2.9-24.1,16.8-37,40.3l23.2,14.9c0,0,20.5-21.2,23-37.4
		C1205.9,121.3,1203.3,109.2,1195.3,112.3z"/>
	<g class="st2">
		<path class="st0" d="M1181.5,168.1c-0.1,0-0.2,0-0.3-0.1l-3.4-2.2c-0.3-0.2-0.4-0.6-0.2-0.9c0.2-0.3,0.6-0.4,0.9-0.2l3,1.9
			c2.5-1.9,18-14.6,21.9-34.1c0.1-0.3,0.4-0.6,0.7-0.5c0.3,0.1,0.6,0.4,0.5,0.7c-4.4,21.6-22.5,35-22.7,35.1
			C1181.7,168,1181.6,168.1,1181.5,168.1z"/>
	</g>
</g>
<g id="Layer_7">
	<path class="st24" d="M1347,230.2c0,41.4-14.9,79.3-39.7,108.6c-30.9,36.7-77.2,60-129,60c-53.1,0-100.5-24.5-131.4-62.9
		c-23.3-28.9-37.3-65.7-37.3-105.7c0-93.1,75.5-168.7,168.7-168.7C1271.5,61.5,1347,137,1347,230.2z"/>
	<path class="st25" d="M1307.4,338.8c-30.9,36.7-77.2,60-129,60c-53.1,0-100.5-24.5-131.4-62.9c37.2-14.3,80.5-22.5,126.6-22.5
		C1222.7,313.3,1268.6,322.7,1307.4,338.8z"/>
	<circle class="st24" cx="1205.6" cy="90.5" r="61.4"/>
</g>
<g id="Layer_6">
	<path class="st26" d="M1148,209.3l-5.7,60.2c0,0-21.9,21.4-29.9,38.7c-8,17.3-14.9,27-14.9,27l12.9,12.4l48.3-59.9
		c1.1-1.4,2-2.9,2.7-4.6l19.7-48L1148,209.3z"/>
	<path class="st27" d="M1252.8,132.3c1.7,5.2-1.1,10.9-6.4,12.7c-5.2,1.7-10.9-1.1-12.7-6.4c-1.7-5.2,1.1-10.9,6.4-12.7
		C1245.4,124.2,1251.1,127.1,1252.8,132.3z"/>
	<path class="st28" d="M1266.6,115.4L1266.6,115.4c0.6,1,0.4,2.3-0.6,2.9l-27.6,18.3c-1,0.6-2.3,0.4-2.9-0.6l0,0
		c-0.6-1-0.4-2.3,0.6-2.9l27.6-18.3C1264.6,114.2,1265.9,114.4,1266.6,115.4z"/>
	<path class="st27" d="M1191.1,123.2l14.4,36l30.8-20.8l7.2,7l-37.6,35c-2.5,1.9-6,1.3-7.8-1.2l-17.7-25.2L1191.1,123.2z"/>
	<path class="st27" d="M1180.4,110.9l-1.2-0.7c-4-2.3-9.6,0.2-7.3-3.8l19.2-34l14.4,8.2l-15.8,27.8
		C1187.9,111.6,1183.7,112.8,1180.4,110.9z"/>
	<path class="st27" d="M1217.5,86c-3.8,9.2-14.3,13.5-23.5,9.7c-9.2-3.8-13.5-14.3-9.7-23.5c4.6-11,13.4-13.9,23.5-9.7
		C1216.9,66.3,1221.3,76.8,1217.5,86z"/>
	<path class="st27" d="M1201.4,105.5c-1.2-0.2-2.2-0.9-4-2.2c-2.6-1.9-3.9-2.8-4.6-4.2c-0.4-0.8-1.1-2.5-0.5-5.2l6.6-15.9l18.7,7.8
		c-2.1,3.6-3.8,7.6-5,12.1c-0.1,0.3-0.2,0.6-0.2,1c-1,0-1.9,0-2.9,0c0.7,0.4,1.4,0.9,2.1,1.3c-0.2,0.1-0.5,0.2-0.8,0.4
		c-1.2,0.7-1.7,1.7-1.9,2c0,0-1,1.4-2.8,2.3C1203.9,105.9,1201.7,105.5,1201.4,105.5z"/>
	<path class="st27" d="M1215.5,89.5l1.4,6.8c0.2,1.1-1,1.9-2,1.4l-4.5-1L1215.5,89.5z"/>
	<g>
		<defs>
			<path id="SVGID_5_" d="M1217.5,86c-3.8,9.2-14.3,13.5-23.5,9.7c-9.2-3.8-13.5-14.3-9.7-23.5c4.6-11,13.4-13.9,23.5-9.7
				C1216.9,66.3,1221.3,76.8,1217.5,86z"/>
		</defs>
		<use xlink:href="#SVGID_5_"  style="overflow:visible;fill:#B27247;"/>
		<clipPath id="SVGID_6_">
			<use xlink:href="#SVGID_5_"  style="overflow:visible;"/>
		</clipPath>
	</g>
	<linearGradient id="SVGID_7_" gradientUnits="userSpaceOnUse" x1="1191.9342" y1="102.0073" x2="1203.7422" y2="66.1012">
		<stop  offset="0" style="stop-color:#B27247"/>
		<stop  offset="0.1767" style="stop-color:#9C6746"/>
		<stop  offset="0.5362" style="stop-color:#684C40"/>
		<stop  offset="1" style="stop-color:#2A272D"/>
	</linearGradient>
	<path class="st29" d="M1221.5,76.5c-0.7,1.8-2,3.1-2.7,3.8c-3.8-0.9-7.6-1.9-11.4-2.8l-5.3,8.7c-0.3,0.7-1,1-1.7,0.8l-1.1-0.4
		c-0.7-0.3-1.2-0.9-1.3-1.6l-0.4-3.9l-5.2,3.8c-6.5,6.8-11.9,6.3-11.9,6.3c-1.2-16.7-0.5-25.5,8.7-31.9c4.7-3.2,10.7-3,16.2-1
		c0.4,0.2,0.9,0.3,1.3,0.5c0.5,0.2,1,0.4,1.5,0.6c1.4,0.7,2.8,1.4,4.1,2.2c0.3,0.2,0.5,0.3,0.7,0.5c0,0,0,0,0.1,0
		c2.3,1.5,4.2,3.2,5.6,4.8c0,0.1,0.1,0.1,0.1,0.2C1221.8,70.3,1222,73.9,1221.5,76.5z"/>
	<g>
		<g>
			<polygon class="st16" points="1215.2,90 1197.4,81.5 1197.9,80.5 1215.7,88.9 			"/>
		</g>
		<g>
			<polygon class="st16" points="1214.6,93.8 1213.5,93.3 1217.1,85.2 1218.2,85.6 			"/>
		</g>
	</g>
	<path class="st27" d="M1198.4,78.1c2.3,2.2,2.4,5.8,0.3,8.1c-2.2,2.3-5.8,2.4-8.1,0.3c-2.3-2.2-2.4-5.8-0.3-8.1
		C1192.4,76,1196.1,75.9,1198.4,78.1z"/>
	<path class="st0" d="M1182.9,104.8c0,0,10.1,3.8,14.7,30.2c4.6,26.5-3.1,68.7-3.1,68.7l-46.4-4.2l11.9-85.5
		C1160,114.1,1169.8,94.9,1182.9,104.8z"/>
	<path class="st30" d="M1194.5,203.7v13.6l28.5,54.5c0.9,1.7,1.4,3.5,1.7,5.4l8.7,77.6l-16.9,5.2c0,0-19-56-15.5-72.2l-46.6-60.1
		c0,0-10.2-12.7-6.1-28.1L1194.5,203.7z"/>
	<path class="st28" d="M1233.3,354.8l17.9,1.7c4.6,0.4,8.7,3,11.1,6.9l0,0c0.5,0.7,0,1.7-0.8,1.9l-41.6,8.6c-0.7,0.1-1.4-0.3-1.5-1
		l-2.1-12.9L1233.3,354.8z"/>
	<path class="st28" d="M1110.7,346.9l7.8,16.2c2,4.2,1.9,9-0.2,13.1v0c-0.4,0.8-1.4,0.9-2,0.3l-28.2-30.7c-0.5-0.5-0.4-1.3,0.1-1.8
		l9.3-8.9L1110.7,346.9z"/>
	<linearGradient id="SVGID_8_" gradientUnits="userSpaceOnUse" x1="1201.0978" y1="105.0209" x2="1212.9059" y2="69.1148">
		<stop  offset="0" style="stop-color:#B27247"/>
		<stop  offset="0.1767" style="stop-color:#9C6746"/>
		<stop  offset="0.5362" style="stop-color:#684C40"/>
		<stop  offset="1" style="stop-color:#2A272D"/>
	</linearGradient>
	<path class="st31" d="M1222.1,73.7c0,1-0.3,2-0.6,2.8c-0.7,1.8-2,3.1-2.7,3.8c-3.8-0.9-7.6-1.9-11.4-2.8l-1.9-19.4
		c0.4,0.2,0.9,0.3,1.3,0.5c0.5,0.2,1,0.4,1.5,0.6c1.6,0.7,2.9,1.5,4.1,2.2c0.3,0.2,0.5,0.3,0.7,0.5c0,0,0,0,0.1,0
		c1.2,0.8,2.1,1.6,2.8,2.2c1,0.9,1.9,1.7,2.8,2.6c0,0.1,0.1,0.1,0.1,0.2C1220.8,68.9,1222.2,71,1222.1,73.7z"/>
	<path class="st32" d="M1071.7,264.4l-5,4.8l-6.2-6.2l5.2-4.9c1.7-1.6,4.5-1.5,6.1,0.2l0,0C1073.5,260.1,1073.4,262.8,1071.7,264.4z
		"/>
	<path class="st32" d="M1021.5,275.9l5.6,5.9l-58.3,56.9l-6.1-6.2c-2.2-2.3-2.2-5.9,0.1-8.1l50.6-48.6
		C1015.7,273.5,1019.3,273.6,1021.5,275.9z"/>
	<rect x="1061.1" y="243.1" transform="matrix(0.7132 -0.7009 0.7009 0.7132 144.6254 843.1316)" width="83.3" height="3.5"/>
	<path class="st33" d="M1131.2,216.9c1.8,1.8,4.7,1.8,6.6,0c1.8-1.8,1.8-4.7,0-6.6c-1.8-1.8-4.7-1.8-6.6,0
		C1129.4,212.2,1129.4,215.1,1131.2,216.9z"/>
	<path class="st34" d="M1081.4,280.4l-26.4-23.7c-3.7-3.3-9.4-3.2-13,0.3l-71.7,70.4c-3.7,3.7-3.8,9.6-0.2,13.4l26.4,27.2
		L1081.4,280.4z"/>
	<g>
		<line class="st8" x1="960.2" y1="375.1" x2="982" y2="375.1"/>
		<line class="st8" x1="949.5" y1="375.1" x2="953.3" y2="375.1"/>
		<line class="st8" x1="968.3" y1="367.9" x2="990" y2="367.9"/>
	</g>
	<path d="M983.9,362.4c0,7,5.7,12.6,12.6,12.6c7,0,12.6-5.7,12.6-12.6c0-7-5.7-12.6-12.6-12.6C989.5,349.8,983.9,355.5,983.9,362.4z
		"/>
	<path class="st35" d="M991.2,362.4c0,2.9,2.4,5.3,5.3,5.3c2.9,0,5.3-2.4,5.3-5.3s-2.4-5.3-5.3-5.3
		C993.6,357.1,991.2,359.5,991.2,362.4z"/>
	<path class="st27" d="M1143.1,217.5c-2.1,4.7-7.7,6.9-12.4,4.8c-4.7-2.1-6.9-7.7-4.8-12.4c2.1-4.7,7.7-6.9,12.4-4.8
		C1143.1,207.2,1145.2,212.7,1143.1,217.5z"/>
	<path class="st27" d="M1157.3,147.7l-16.6,26l-1.3,34.5l-9.8-0.2l-4.5-36c-0.3-2,0.1-4,1-5.8l14.5-28L1157.3,147.7z"/>
	<path class="st0" d="M1171.4,102.7c-7.6,2.9-24.2,16.8-37.1,40.4l23.2,14.9c0,0,20.6-21.3,23.1-37.5
		C1182,111.8,1179.4,99.7,1171.4,102.7z"/>
	<g>
		<path class="st0" d="M1157.5,158.6c-0.1,0-0.2,0-0.3-0.1l-3.4-2.2c-0.3-0.2-0.4-0.6-0.2-0.9c0.2-0.3,0.6-0.4,0.9-0.2l3,1.9
			c2.5-1.9,18-14.7,21.9-34.2c0.1-0.3,0.4-0.6,0.7-0.5c0.3,0.1,0.6,0.4,0.5,0.7c-4.4,21.6-22.6,35.1-22.8,35.2
			C1157.8,158.6,1157.7,158.6,1157.5,158.6z"/>
	</g>
	<line class="st8" x1="1397.6" y1="69.4" x2="1414.8" y2="69.4"/>
	<line class="st8" x1="1392.3" y1="76.5" x2="1409.4" y2="76.5"/>
	<g>
		<line class="st8" x1="1028.3" y1="72.3" x2="1041.3" y2="85.3"/>
		<line class="st8" x1="1041.3" y1="72.3" x2="1028.3" y2="85.3"/>
	</g>
	<g>
		<line class="st8" x1="1345" y1="285.1" x2="1358" y2="298.1"/>
		<line class="st8" x1="1358" y1="285.1" x2="1345" y2="298.1"/>
	</g>
	<rect x="1388.8" y="184.2" class="st8" width="18.8" height="18.8"/>
	<circle class="st9" cx="1288.8" cy="35.8" r="9.8"/>
	<path class="st9" d="M1469.5,156.3l-5.2,7c-1.6,2.1-0.1,5.1,2.6,5.1h10.4c2.6,0,4.1-3,2.6-5.1l-5.2-7
		C1473.3,154.6,1470.7,154.6,1469.5,156.3z"/>
	<path class="st8" d="M949.3,211.1l-8.5,11.5c-0.7,1,0,2.4,1.2,2.4h17c1.3,0,2-1.4,1.2-2.4l-8.5-11.5
		C951.1,210.2,949.9,210.2,949.3,211.1z"/>
</g>
</svg>
