<?xml version="1.0" encoding="utf-8"?>
<!-- Generator: Adobe Illustrator 24.0.0, SVG Export Plug-In . SVG Version: 6.00 Build 0)  -->
<svg version="1.1" xmlns="http://www.w3.org/2000/svg" xmlns:xlink="http://www.w3.org/1999/xlink" x="0px" y="0px"
	 viewBox="0 0 960 1080" style="enable-background:new 0 0 960 1080;" xml:space="preserve">
<style type="text/css">
	.st0{fill:#1D3D70;}
	.st1{fill:#FFFFFF;}
	.st2{display:none;}
	.st3{display:inline;}
	.st4{fill:none;stroke:#FFFFFF;stroke-miterlimit:10;}
	.st5{fill:none;stroke:#FFFFFF;stroke-width:0.75;stroke-miterlimit:10;}
	.st6{display:inline;fill:none;stroke:#FFFFFF;stroke-miterlimit:10;}
	.st7{display:inline;fill:#FFFFFF;}
	.st8{display:inline;fill:#F1F2F2;}
	.st9{fill:none;stroke:#FFFFFF;stroke-width:4;stroke-linecap:round;stroke-miterlimit:10;}
	.st10{fill:none;stroke:#FFFFFF;stroke-width:3;stroke-linecap:round;stroke-miterlimit:10;}
	.st11{fill:none;stroke:#FFFFFF;stroke-width:5;stroke-linecap:round;stroke-miterlimit:10;}
	.st12{display:inline;fill:none;stroke:#FFFFFF;stroke-width:3;stroke-linecap:round;stroke-miterlimit:10;}
	.st13{display:inline;fill:none;stroke:#FFFFFF;stroke-width:3;stroke-linecap:round;stroke-miterlimit:9.9999;}
	.st14{display:inline;fill:#8B5E3C;}
	.st15{display:inline;fill:#B27247;}
	.st16{display:inline;fill:#010101;}
	.st17{fill:#B27247;}
	.st18{display:inline;fill:url(#SVGID_2_);}
	.st19{fill:#191919;}
	.st20{display:inline;fill:#1D3D70;}
	.st21{display:inline;fill:#A97C50;}
	.st22{display:inline;fill:url(#SVGID_3_);}
	.st23{display:inline;fill:#6CBCC6;}
	.st24{display:inline;fill:#EE9865;}
	.st25{display:inline;fill:#86D2DD;}
	.st26{display:inline;fill:#F6EBE5;}
	.st27{fill:#8B5E3C;}
	.st28{fill:#010101;}
	.st29{fill:url(#SVGID_4_);}
	.st30{fill:#A97C50;}
	.st31{fill:url(#SVGID_6_);}
	.st32{fill:#6CBCC6;}
	.st33{fill:#EE9865;}
	.st34{fill:#86D2DD;}
	.st35{fill:#F6EBE5;}
</style>
<g id="Layer_3_1_">
	<rect class="st0" width="960" height="1080"/>
</g>
<g id="Layer_2">
	<path class="st1" d="M722.8,698.7c0,71-25.6,136.1-68.1,186.3C601.7,948,522.3,988,433.4,988C342.3,988,261,946,208,880.1
		c-40-49.6-64-112.7-64-181.4c0-159.7,129.5-289.4,289.4-289.4S722.8,538.8,722.8,698.7z"/>
	<circle class="st1" cx="506.3" cy="436.4" r="61.4"/>
</g>
<g id="Layer_1">
	<g id="Layer_1_1_" class="st2">
		<g class="st3">
			<path class="st4" d="M1031.6,448.5c-1.2,2.9-3.1,4.9-6.5,5.5c-11.1,2-22.2,4.1-33.2,6.2c-4.7,0.9-9.4,2.1-14.2,2.2
				c-9.3,0.2-18.5,0.3-27.8,0.4c-9.6,0.1-19.3-0.4-28.9,1.4c-1.9,0.4-2.9-0.2-2.8-2.4c0.1-2.4,0-4.8,0.1-7.2c0-5.2-1.5-9.9-4.2-14.2
				c-10.2-16.1-33.9-15.9-43.8,0.4c-3.6,5.8-4.6,12.2-4.3,18.9c0.2,5,0.1,5-4.9,5c-58.6,0-117.2,0-175.8,0.1
				c-12.7,0-25.5-1.1-38.1,1.7c-1.6,0.4-2.3-0.4-2.3-2c0.1-2.1,0-4.2,0-6.3c0-1.6,0.1-3.2,0-4.9c-0.3-7.9-3.6-14.4-9.7-19.2
				c-15.3-12.1-37.7-4.1-41.9,15c-1.1,5-0.8,10.2-0.9,15.2c0,1.9-0.5,2.7-2.6,2.3c-9.6-1.8-19.3-1.1-28.9-1.3
				c-7-0.2-13.9-0.2-20.9-0.2v-18.9h-36c-0.2-3.1-0.4-6.3-0.5-9.4c-0.4-12.1,0.6-24.1,1.7-36.1c1.5-16.3,4.7-32.2,11.5-47.2
				c0.5-1.1,0.4-1.6-0.9-1.6c-4.7,0-9.4-0.1-14.1,1c-2.3,0.6-4,1.7-5.5,3.5c-1.3,1.5,0.5,2.3,0.4,3.5c-0.3,4.8-0.7,9.6-1.7,14.2
				c-0.4,1.6-1.5,2.1-3,1.8c-1.9-0.4-3.2-1.5-3.2-3.7c0.1-3.6,0.2-7.3,0.5-10.9c0.1-1.7-0.2-3.5,0.5-5.2c2.2-5.7,6.2-9.2,12-11
				c5-1.5,10.1-2.1,15.3-1.9c2.4,0.1,4.3-0.1,4.7-3c0.1-0.7,0.7-1.3,1.1-2c3.8-5.6,9.9-8.8,14.7-13.3c0.9-0.9,2.2-1.5,3.3-2.1
				c7.5-3.8,15.5-5.8,23.6-7.4c13.7-2.5,27.6-3.4,41.5-3.3c18.2,0.2,36.5,0.3,54.7,0.4c14.4,0.1,28.8,0,43.1,0.1
				c5.9,0,10.8,2,13.5,7.6c0.9,1.9,2.4,1.7,3.9,1.7c46.6,0,93.2-0.1,139.8-0.1c37.9,0,75.9,0,113.9-0.1c6.4,0,12.8,0,18.9-2.6
				c3.5-1.5,7.2-1.8,10.9-1.4c7.3,0.6,13.2,3.7,16.9,10.2c0.4,0.7,1.2,1.6,0.6,2.3c-1.2,1.5-0.2,2.6,0.5,3.8
				c1.9,3.4,3.4,6.9,4.4,10.7c2.4,9.5,3,19.2,3.8,28.9c1.5,18.1,2.1,36.2,2,54.4c0,1.9,0.2,3.9,0.2,5.8
				C1033.3,439,1033.5,443.8,1031.6,448.5z"/>
			<path class="st4" d="M1026,410.4c-1.5-0.1-2.9,0-4.4,0c-1.3,0-2.3-0.4-2.9-1.1c-0.6-0.6-0.9-1.4-1-2.8s-0.2-3.7,0.7-6.6
				c-0.4,0-0.7-0.1-1.1-0.1c0-2,0-4.1,0-6.2v-0.7c0-0.3,0-0.5,0-0.7c0.1-1,0.7-1.4,2-1.4c2.1,0.1,4.2,0.1,6.2,0
				c1.6-0.1,2.3,0.6,2.3,2.1c0.1,5.1,0.2,10.2,0.3,15.3C1028.2,409.8,1027.7,410.5,1026,410.4z"/>
			<path class="st4" d="M892.1,431.7c-12.8,0.1-23.1,10.5-23.1,23.3c0,12.7,10.7,23.2,23.3,23.2c12.9-0.1,23.2-10.6,23.1-23.5
				C915.4,441.9,905,431.6,892.1,431.7z M904.5,456.6c0,0.3-0.1,0.6-0.1,0.8c-1.1,5.4-5.7,9.6-11.9,9.8c-3.5,0.1-6.8-1.5-9-4.2
				c0,0-0.1,0-0.1-0.1c-1.9-2.2-3.1-5-3.1-8c0-0.2,0-0.4,0-0.7c0-0.2,0-0.4,0.1-0.7c0,0,0,0,0-0.1c0.6-6.2,5.8-10.9,12.1-11
				c6.1,0,11.4,4.9,12.1,11c0,0.1,0,0.1,0,0.2c0,0.3,0.1,0.6,0.1,0.8v0.1l0,0l0,0l0,0c0,0.4,0,0.9-0.1,1.4
				C904.5,456.3,904.5,456.4,904.5,456.6z"/>
			<path class="st4" d="M618.9,432.1c-13.1,0.1-22.9,10-22.9,22.7c0,13.3,10.3,22.8,23,23c12.4,0,22.8-10.4,22.9-22.7
				C641.8,442.5,631.5,432,618.9,432.1z M618.6,467c-4.8,0.1-9.2-2.9-11-7.3c-0.1-0.2-0.2-0.5-0.3-0.7l0,0c-0.4-1.2-0.6-2.6-0.5-4
				c0-2.2,0.5-4.2,1.5-6c0.1-0.2,0.3-0.5,0.4-0.7c0.2-0.3,0.4-0.6,0.7-0.9l0.1-0.1c0.3-0.3,0.6-0.7,0.9-0.9c2.1-2.1,5.1-3.5,8.4-3.4
				c6.5,0,12,5.4,12,12C630.6,462.2,625.1,466.9,618.6,467z"/>
			<g>
				<path class="st4" d="M618.5,443c-6.5,0-11.8,5.3-11.9,12.1c-0.1,6.4,5.5,11.9,12.1,11.8c6.4-0.1,11.8-5.5,11.8-11.8
					C630.6,448.7,624.8,443,618.5,443z"/>
			</g>
			<path class="st4" d="M526.2,334.5h10.1l-2,70.1c-0.2,6.1-2.3,11.9-6,16.7l-2.3,2.9c-5.4,7-13.7,11-22.5,11l0,0"/>
			<path class="st4" d="M1007.8,379.2H660.6c-27.4,0-54.4,6.5-78.9,19l-39.2,20l7.1-66.9c1.3-12.3,11.7-21.6,24-21.6h436.8l3.9,26.1
				L1007.8,379.2z"/>
			<line class="st4" x1="547.3" y1="373.6" x2="540.8" y2="436.6"/>
			<line class="st4" x1="590.7" y1="327.7" x2="582.3" y2="465.1"/>
			<path class="st4" d="M540,446.3v19.1h-28.3c-6.9,0-12.6-5.6-12.6-12.6v-2.4c0-2.3,1.9-4.1,4.1-4.1H540z"/>
			<line class="st4" x1="955.2" y1="422" x2="998" y2="422"/>
			<line class="st4" x1="955.2" y1="427.2" x2="998" y2="427.2"/>
			<line class="st4" x1="955.2" y1="432.3" x2="998" y2="432.3"/>
			<line class="st4" x1="955.2" y1="437.5" x2="998" y2="437.5"/>
			<line class="st4" x1="955.2" y1="442.6" x2="998" y2="442.6"/>
			<rect x="663.6" y="412.8" class="st4" width="64" height="45.1"/>
			<rect x="727.6" y="412.8" class="st4" width="64" height="45.1"/>
			<rect x="791.6" y="412.8" class="st4" width="64" height="45.1"/>
			<line class="st5" x1="684.3" y1="329.8" x2="684.3" y2="379.2"/>
			<line class="st5" x1="741.9" y1="329.8" x2="741.9" y2="379.2"/>
			<line class="st5" x1="799.6" y1="329.8" x2="799.6" y2="379.2"/>
			<line class="st5" x1="857.3" y1="329.8" x2="857.3" y2="379.2"/>
			<line class="st5" x1="914.9" y1="329.8" x2="914.9" y2="379.2"/>
			<line class="st5" x1="972.6" y1="329.8" x2="972.6" y2="379.2"/>
		</g>
		<line class="st6" x1="1440" y1="431.7" x2="1033" y2="431.7"/>
		<line class="st6" x1="503.5" y1="431.7" x2="-480" y2="431.7"/>
		<ellipse class="st6" cx="362.2" cy="324.6" rx="26.7" ry="38.5"/>
		<polyline class="st6" points="373,325.1 362.2,339.6 350.7,329.3 		"/>
		<line class="st6" x1="362.2" y1="339.2" x2="362.2" y2="431.7"/>
		<path class="st6" d="M766.7,242.6h-51.8c-11.9,0-12.6-17.9-0.7-18.5c0.3,0,0.6,0,0.9,0c1.4,0,2.8,0.2,4.2,0.5
			c4.6-7.3,12.5-12.1,21.5-12.1c7.3,0,13.8,3.1,18.5,8.2c2.2-0.8,4.7-1.2,7.2-1.2c0.3,0,0.7,0,1,0
			C782.4,220.1,781.6,242.6,766.7,242.6z"/>
		<path class="st6" d="M1033.6,202.2h-51.8c-11.9,0-12.6-17.9-0.7-18.5c0.3,0,0.6,0,0.9,0c1.4,0,2.8,0.2,4.2,0.5
			c4.6-7.3,12.5-12.1,21.5-12.1c7.3,0,13.8,3.1,18.5,8.2c2.2-0.8,4.7-1.2,7.2-1.2c0.3,0,0.7,0,1,0
			C1049.4,179.8,1048.6,202.2,1033.6,202.2z"/>
		<g class="st3">
			<path class="st4" d="M4.6,20.4l-2.1,20h4.4L4.6,20.4L4.6,20.4z"/>
			<path class="st4" d="M4.7,42.7C-2.1,42.7-9.4,50-9.4,59s5.6,16.3,14.1,16.3c8.9,0,14.1-7.3,14.1-16.3C18.8,50,12,42.7,4.7,42.7z"
				/>
			<path class="st4" d="M3.8,61.1c-0.6,0-1.2-0.1-1.8-0.2l-7.5-1.3l1.9-2.9l6.9,0.6c0.2,0,0.4,0,0.6,0v3.8H3.8z"/>
			<path class="st4" d="M7.3,61c-0.5,0.1-1.1,0.1-1.6,0.2l0.2-3.7c0.1,0,0.2,0,0.3,0l6.5-0.6l1.7,3.1L7.3,61z"/>
			<line class="st4" x1="3.8" y1="61.1" x2="3.8" y2="61.1"/>
			<line class="st4" x1="5.7" y1="61.1" x2="5.7" y2="61.1"/>
			<path class="st4" d="M80.7,60.9l-37.4,4.5c1.2,1.3,2,3,2,4.9c0,3.8-3.1,7-6.9,7c-3.8,0-6.9-3.1-6.9-7c0-1.3,0.4-2.5,1-3.6
				l-12,1.4c1.3-2.6,2-5.7,2-9.1h58.3L80.7,60.9L80.7,60.9z"/>
			<path class="st4" d="M-10.7,68.1c-1.3-2.6-2.1-5.7-2.1-9.2h-58.3v2l36.8,4.4c-1.3,1.3-2,3-2,4.9c0,3.8,3.1,7,7,7
				c3.8,0,6.9-3.1,6.9-7c0-1.3-0.4-2.6-1-3.6L-10.7,68.1z M-29.3,73.9c-2,0-3.6-1.6-3.6-3.6s1.6-3.6,3.6-3.6s3.6,1.6,3.6,3.6
				C-25.7,72.2-27.3,73.9-29.3,73.9z"/>
			<path class="st4" d="M34.2,49.3V50l-12.9,1.5c-0.2-0.8-0.5-1.5-0.8-2.3L34.2,49.3L34.2,49.3z"/>
			<path class="st4" d="M-11.3,49.3c-0.3,0.7-0.6,1.5-0.8,2.3l-13-1.6v-0.7H-11.3z"/>
			<circle class="st4" cx="38.3" cy="70.2" r="3.6"/>
			<path class="st4" d="M-25.7,70.2c0,2-1.6,3.6-3.6,3.6s-3.6-1.6-3.6-3.6s1.6-3.6,3.6-3.6C-27.3,66.6-25.7,68.2-25.7,70.2z"/>
			<path class="st4" d="M-25.7,70.2c0,2-1.6,3.6-3.6,3.6s-3.6-1.6-3.6-3.6s1.6-3.6,3.6-3.6C-27.3,66.6-25.7,68.2-25.7,70.2z"/>
		</g>
		<path class="st6" d="M1408.2,431.7c-40.4-9.6-102.9-26.1-177.4-53.3c-127.2-46.4-166.7-79.2-246.5-89.9
			c-49.1-6.6-122.7-6-218.1,33.6"/>
		<path class="st6" d="M505.2,400.8c-20.9,2.7-49.3,4.3-82.3,0c-26.7-3.5-40.8-8.9-82.6-18.9c0,0-26.6-6.4-82.9-17.3
			c-101.8-19.7-192.7,32.8-326.3,25c-119.5-6.9-131.5-53.8-240.4-46c-73.9,5.4-132.8,31.7-170.7,52.9"/>
	</g>
	<g id="Layer_4" class="st2">
		<path class="st7" d="M874.8,249.5c0,39-14,74.7-37.4,102.4c-29.1,34.6-72.8,56.6-121.5,56.6c-50,0-94.7-23.1-123.8-59.3
			c-22-27.2-35.1-61.9-35.1-99.6c0-87.8,71.1-158.9,158.9-158.9C803.6,90.6,874.8,161.7,874.8,249.5z"/>
		<path class="st8" d="M837.4,351.8c-29.1,34.6-72.8,56.6-121.5,56.6c-50,0-94.7-23.1-123.8-59.3c35.1-13.5,75.8-21.2,119.3-21.2
			C757.6,327.9,800.8,336.6,837.4,351.8z"/>
		<circle class="st7" cx="741.4" cy="117.9" r="57.8"/>
	</g>
	<g id="Layer_5" class="st2">
		<g class="st3">
			<line class="st9" x1="522.4" y1="380.9" x2="546" y2="380.9"/>
			<line class="st9" x1="515" y1="389.8" x2="538.6" y2="389.8"/>
		</g>
		<g class="st3">
			<line class="st10" x1="909.3" y1="135.5" x2="923" y2="135.5"/>
			<line class="st10" x1="905.1" y1="140.4" x2="918.8" y2="140.4"/>
		</g>
		<g class="st3">
			<line class="st11" x1="550.2" y1="258.8" x2="568.1" y2="258.8"/>
			<line class="st11" x1="544.6" y1="267.8" x2="562.5" y2="267.8"/>
		</g>
		<g class="st3">
			<line class="st10" x1="553" y1="134.3" x2="565.3" y2="146.6"/>
			<line class="st10" x1="565.3" y1="134.3" x2="553" y2="146.6"/>
		</g>
		<g class="st3">
			<line class="st10" x1="881.6" y1="302" x2="891.5" y2="311.9"/>
			<line class="st10" x1="891.5" y1="302" x2="881.6" y2="311.9"/>
		</g>
		<g class="st3">
			<line class="st10" x1="818.7" y1="103.3" x2="828.6" y2="113.2"/>
			<line class="st10" x1="828.6" y1="103.3" x2="818.7" y2="113.2"/>
		</g>
		<rect x="914" y="211.6" class="st12" width="12.4" height="12.4"/>
		<rect x="485.8" y="300.8" class="st12" width="12.4" height="12.4"/>
		
			<rect x="645.6" y="69.4" transform="matrix(0.7071 -0.7071 0.7071 0.7071 137.4448 483.0141)" class="st13" width="12.4" height="12.4"/>
		<circle class="st12" cx="819.9" cy="66.4" r="9.3"/>
		<path class="st12" d="M490.7,185.1l-7.7,10.4c-0.8,1,0,2.5,1.3,2.5h15.5c1.3,0,2-1.5,1.3-2.5l-7.7-10.4
			C492.7,184.3,491.4,184.3,490.7,185.1z"/>
		<path class="st12" d="M859.6,363.1l-7.3,9.9c-0.9,1.2,0,2.8,1.4,2.8h14.7c1.5,0,2.3-1.7,1.4-2.8l-7.3-9.9
			C861.7,362.2,860.3,362.2,859.6,363.1z"/>
	</g>
	<g id="Layer_3" class="st2">
		<path class="st14" d="M692,218.6l-5.7,60.1c0,0-21.9,21.4-29.9,38.6s-14.9,26.9-14.9,26.9l12.9,12.4l48.2-59.8
			c1.1-1.4,2-2.9,2.7-4.5l19.6-47.9L692,218.6z"/>
		<path class="st15" d="M796.6,141.8c1.7,5.2-1.1,10.9-6.3,12.6c-5.2,1.7-10.9-1.1-12.6-6.3s1.1-10.9,6.3-12.6
			C789.2,133.7,794.8,136.6,796.6,141.8z"/>
		<path class="st16" d="M810.3,125L810.3,125c0.6,1,0.4,2.3-0.6,2.9l-27.6,18.3c-1,0.6-2.3,0.4-2.9-0.6l0,0c-0.6-1-0.4-2.3,0.6-2.9
			l27.6-18.3C808.3,123.7,809.6,124,810.3,125z"/>
		<path class="st15" d="M735,132.7l14.4,35.9l30.7-20.8l7.2,7l-37.5,35c-2.5,1.9-6,1.3-7.8-1.2l-17.7-25.1L735,132.7z"/>
		<path class="st15" d="M724.3,120.4l-1.2-0.7c-4-2.3-9.5,0.2-7.3-3.8l19.2-34l14.4,8.1l-15.7,27.8
			C731.8,121.1,727.6,122.3,724.3,120.4z"/>
		<path class="st15" d="M761.3,95.6c-3.8,9.2-14.3,13.5-23.5,9.7s-13.5-14.3-9.7-23.5c4.6-11,13.3-13.9,23.5-9.7
			C760.8,75.9,765.1,86.4,761.3,95.6z"/>
		<path class="st15" d="M745.2,115c-1.2-0.2-2.2-0.9-4-2.2c-2.6-1.9-3.9-2.8-4.6-4.2c-0.4-0.8-1.1-2.5-0.5-5.2l6.6-15.9l18.7,7.8
			c-2.1,3.6-3.8,7.6-5,12.1c-0.1,0.3-0.2,0.6-0.2,1c-0.9,0-1.9,0-2.8,0c0.7,0.4,1.4,0.9,2.1,1.3c-0.2,0.1-0.5,0.2-0.8,0.4
			c-1.2,0.7-1.7,1.7-1.9,2c0,0-1,1.4-2.8,2.3C747.7,115.5,745.6,115.1,745.2,115z"/>
		<path class="st15" d="M759.3,99.1l1.4,6.8c0.2,1.1-1,1.9-2,1.4l-4.5-1L759.3,99.1z"/>
		<g class="st3">
			<g>
				<path id="SVGID_1_" class="st17" d="M761.3,95.6c-3.8,9.2-14.3,13.5-23.5,9.7s-13.5-14.3-9.7-23.5c4.6-11,13.3-13.9,23.5-9.7
					C760.8,75.9,765.1,86.4,761.3,95.6z"/>
			</g>
		</g>
		
			<linearGradient id="SVGID_2_" gradientUnits="userSpaceOnUse" x1="735.8052" y1="968.4295" x2="747.5885" y2="1004.2607" gradientTransform="matrix(1 0 0 -1 0 1080)">
			<stop  offset="0" style="stop-color:#B27247"/>
			<stop  offset="0.1767" style="stop-color:#9C6746"/>
			<stop  offset="0.5362" style="stop-color:#684C40"/>
			<stop  offset="1" style="stop-color:#2A272D"/>
		</linearGradient>
		<path class="st18" d="M765.3,86.1c-0.7,1.8-2,3.1-2.7,3.8c-3.8-0.9-7.6-1.9-11.4-2.8l-5.3,8.7c-0.3,0.7-1,1-1.7,0.8l-1.1-0.4
			c-0.7-0.3-1.2-0.9-1.3-1.6l-0.4-3.9l-5.2,3.8c-6.5,6.8-11.8,6.3-11.8,6.3c-1.2-16.7-0.5-25.5,8.7-31.9c4.7-3.2,10.7-3,16.2-1
			c0.4,0.2,0.9,0.3,1.3,0.5c0.5,0.2,1,0.4,1.5,0.6c1.4,0.7,2.8,1.4,4.1,2.2c0.3,0.2,0.5,0.3,0.7,0.5c0,0,0,0,0.1,0
			c2.3,1.5,4.2,3.2,5.6,4.8c0,0.1,0.1,0.1,0.1,0.2C765.6,80,765.8,83.5,765.3,86.1z"/>
		<g class="st3">
			<g>
				<polygon class="st19" points="759,99.6 741.2,91.2 741.7,90.1 759.5,98.5 				"/>
			</g>
			<g>
				<polygon class="st19" points="758.5,103.3 757.4,102.9 760.9,94.8 762,95.2 				"/>
			</g>
		</g>
		<path class="st15" d="M742.3,87.7c2.3,2.2,2.4,5.8,0.3,8.1c-2.2,2.3-5.8,2.4-8.1,0.3c-2.3-2.2-2.4-5.8-0.3-8.1
			C736.3,85.6,739.9,85.5,742.3,87.7z"/>
		<path class="st20" d="M726.8,114.4c0,0,10.1,3.8,14.7,30.2s-3.1,68.6-3.1,68.6l-46.3-4.2l11.9-85.3
			C703.9,123.6,713.7,104.4,726.8,114.4z"/>
		<path class="st21" d="M738.3,213.1v13.5l28.5,54.3c0.9,1.7,1.4,3.5,1.7,5.4l8.6,77.5l-16.9,5.2c0,0-19-55.9-15.5-72.1l-46.5-60
			c0,0-10.2-12.7-6.1-28.1L738.3,213.1z"/>
		<path class="st16" d="M777.1,363.9l17.9,1.7c4.6,0.4,8.7,3,11.1,6.9l0,0c0.5,0.7,0,1.7-0.8,1.9l-41.5,8.6c-0.7,0.1-1.4-0.3-1.5-1
			l-2.1-12.9L777.1,363.9z"/>
		<path class="st16" d="M654.7,356l7.8,16.2c2,4.1,1.9,9-0.2,13.1l0,0c-0.4,0.8-1.4,0.9-2,0.3L632.1,355c-0.5-0.5-0.4-1.3,0.1-1.8
			l9.3-8.9L654.7,356z"/>
		
			<linearGradient id="SVGID_3_" gradientUnits="userSpaceOnUse" x1="744.9189" y1="965.4323" x2="756.7023" y2="1001.2636" gradientTransform="matrix(1 0 0 -1 0 1080)">
			<stop  offset="0" style="stop-color:#B27247"/>
			<stop  offset="0.1767" style="stop-color:#9C6746"/>
			<stop  offset="0.5362" style="stop-color:#684C40"/>
			<stop  offset="1" style="stop-color:#2A272D"/>
		</linearGradient>
		<path class="st22" d="M765.9,83.3c0,1-0.3,2-0.6,2.8c-0.7,1.8-2,3.1-2.7,3.8c-3.8-0.9-7.6-1.9-11.4-2.8l-1.9-19.4
			c0.4,0.2,0.9,0.3,1.3,0.5c0.5,0.2,1,0.4,1.5,0.6c1.6,0.7,2.9,1.5,4.1,2.2c0.3,0.2,0.5,0.3,0.7,0.5c0,0,0,0,0.1,0
			c1.2,0.8,2.1,1.6,2.8,2.2c1,0.9,1.9,1.7,2.8,2.6c0,0.1,0.1,0.1,0.1,0.2C764.6,78.5,766,80.6,765.9,83.3z"/>
		<path class="st23" d="M615.8,273.6l-4.9,4.8l-6.2-6.2l5.2-4.8c1.7-1.6,4.4-1.5,6.1,0.2l0,0C617.6,269.3,617.5,272,615.8,273.6z"/>
		<path class="st23" d="M565.8,285.1l5.6,5.9l-58.2,56.8l-6.1-6.2c-2.2-2.3-2.2-5.9,0.1-8.1l50.5-48.5
			C559.9,282.7,563.6,282.8,565.8,285.1z"/>
		
			<rect x="605.2" y="252.4" transform="matrix(0.7132 -0.7009 0.7009 0.7132 7.312 526.2247)" class="st3" width="83.1" height="3.5"/>
		<path class="st24" d="M675.2,226.3c1.8,1.8,4.7,1.8,6.5,0s1.8-4.7,0-6.5s-4.7-1.8-6.5,0C673.4,221.5,673.4,224.4,675.2,226.3z"/>
		<path class="st25" d="M625.5,289.6l-26.3-23.7c-3.7-3.3-9.4-3.2-13,0.3l-71.5,70.2c-3.7,3.6-3.8,9.6-0.2,13.3l26.4,27.2
			L625.5,289.6z"/>
		<path class="st3" d="M528.2,371.5c0,7,5.6,12.6,12.6,12.6c7,0,12.6-5.6,12.6-12.6s-5.6-12.6-12.6-12.6
			C533.8,358.9,528.2,364.5,528.2,371.5z"/>
		<path class="st26" d="M535.5,371.5c0,2.9,2.4,5.3,5.3,5.3c2.9,0,5.3-2.4,5.3-5.3s-2.4-5.3-5.3-5.3S535.5,368.5,535.5,371.5z"/>
		<path class="st15" d="M687.1,226.8c-2.1,4.7-7.6,6.9-12.4,4.8c-4.7-2.1-6.9-7.6-4.8-12.4c2.1-4.7,7.6-6.9,12.4-4.8
			C687,216.5,689.2,222.1,687.1,226.8z"/>
		<path class="st15" d="M701.3,157.2l-16.5,25.9l-1.3,34.5l-9.7-0.2l-4.5-35.9c-0.3-2,0.1-4,1-5.8l14.4-27.9L701.3,157.2z"/>
		<path class="st20" d="M715.3,112.3c-7.5,2.9-24.1,16.8-37,40.3l23.2,14.9c0,0,20.5-21.2,23-37.4
			C725.9,121.3,723.3,109.2,715.3,112.3z"/>
		<g class="st3">
			<path class="st0" d="M701.5,168.1c-0.1,0-0.2,0-0.3-0.1l-3.4-2.2c-0.3-0.2-0.4-0.6-0.2-0.9c0.2-0.3,0.6-0.4,0.9-0.2l3,1.9
				c2.5-1.9,18-14.6,21.9-34.1c0.1-0.3,0.4-0.6,0.7-0.5c0.3,0.1,0.6,0.4,0.5,0.7c-4.4,21.6-22.5,35-22.7,35.1
				C701.7,168,701.6,168.1,701.5,168.1z"/>
		</g>
	</g>
	<path class="st1" d="M0,605.5c81.2,52.9,202,117.7,358.9,156.7c264.6,65.8,487.7,22.4,601.1-8.4c0,108.7,0,217.5,0,326.2H0
		C0,921.8,0,763.7,0,605.5z"/>
</g>
<g id="Layer_4_1_">
	<path class="st27" d="M437.5,544.8l-5.7,60.2c0,0-21.9,21.4-29.9,38.7c-8,17.3-14.9,27-14.9,27l12.9,12.4l48.3-59.9
		c1.1-1.4,2-2.9,2.7-4.6l19.7-48L437.5,544.8z"/>
	<path class="st17" d="M542.3,467.8c1.7,5.2-1.1,10.9-6.4,12.7c-5.2,1.7-10.9-1.1-12.7-6.4c-1.7-5.2,1.1-10.9,6.4-12.7
		C534.9,459.7,540.6,462.6,542.3,467.8z"/>
	<path class="st28" d="M556.1,450.9L556.1,450.9c0.6,1,0.4,2.3-0.6,2.9l-27.6,18.3c-1,0.6-2.3,0.4-2.9-0.6l0,0
		c-0.6-1-0.4-2.3,0.6-2.9l27.6-18.3C554.1,449.7,555.4,449.9,556.1,450.9z"/>
	<path class="st17" d="M480.6,458.7l14.4,36l30.8-20.8l7.2,7l-37.6,35c-2.5,1.9-6,1.3-7.8-1.2l-17.7-25.2L480.6,458.7z"/>
	<path class="st17" d="M469.9,446.4l-1.2-0.7c-4-2.3-9.6,0.2-7.3-3.8l19.2-34l14.4,8.2l-15.8,27.8
		C477.4,447.1,473.2,448.3,469.9,446.4z"/>
	<path class="st17" d="M507,421.5c-3.8,9.2-14.3,13.5-23.5,9.7c-9.2-3.8-13.5-14.3-9.7-23.5c4.6-11,13.4-13.9,23.5-9.7
		C506.4,401.8,510.8,412.3,507,421.5z"/>
	<path class="st17" d="M490.9,441c-1.2-0.2-2.2-0.9-4-2.2c-2.6-1.9-3.9-2.8-4.6-4.2c-0.4-0.8-1.1-2.5-0.5-5.2l6.6-15.9l18.7,7.8
		c-2.1,3.6-3.8,7.6-5,12.1c-0.1,0.3-0.2,0.6-0.2,1c-1,0-1.9,0-2.9,0c0.7,0.4,1.4,0.9,2.1,1.3c-0.2,0.1-0.5,0.2-0.8,0.4
		c-1.2,0.7-1.7,1.7-1.9,2c0,0-1,1.4-2.8,2.3C493.4,441.4,491.2,441,490.9,441z"/>
	<path class="st17" d="M505,425l1.4,6.8c0.2,1.1-1,1.9-2,1.4l-4.5-1L505,425z"/>
	<g>
		<g>
			<path id="SVGID_5_" class="st17" d="M507,421.5c-3.8,9.2-14.3,13.5-23.5,9.7c-9.2-3.8-13.5-14.3-9.7-23.5
				c4.6-11,13.4-13.9,23.5-9.7C506.4,401.8,510.8,412.3,507,421.5z"/>
		</g>
	</g>
	
		<linearGradient id="SVGID_4_" gradientUnits="userSpaceOnUse" x1="481.4181" y1="642.4978" x2="493.2261" y2="678.4039" gradientTransform="matrix(1 0 0 -1 0 1080)">
		<stop  offset="0" style="stop-color:#B27247"/>
		<stop  offset="0.1767" style="stop-color:#9C6746"/>
		<stop  offset="0.5362" style="stop-color:#684C40"/>
		<stop  offset="1" style="stop-color:#2A272D"/>
	</linearGradient>
	<path class="st29" d="M511,412c-0.7,1.8-2,3.1-2.7,3.8c-3.8-0.9-7.6-1.9-11.4-2.8l-5.3,8.7c-0.3,0.7-1,1-1.7,0.8l-1.1-0.4
		c-0.7-0.3-1.2-0.9-1.3-1.6l-0.4-3.9l-5.2,3.8c-6.5,6.8-11.9,6.3-11.9,6.3c-1.2-16.7-0.5-25.5,8.7-31.9c4.7-3.2,10.7-3,16.2-1
		c0.4,0.2,0.9,0.3,1.3,0.5c0.5,0.2,1,0.4,1.5,0.6c1.4,0.7,2.8,1.4,4.1,2.2c0.3,0.2,0.5,0.3,0.7,0.5c0,0,0,0,0.1,0
		c2.3,1.5,4.2,3.2,5.6,4.8c0,0.1,0.1,0.1,0.1,0.2C511.3,405.8,511.5,409.4,511,412z"/>
	<g>
		<g>
			<polygon class="st19" points="504.7,425.5 486.9,417 487.4,416 505.2,424.4 			"/>
		</g>
		<g>
			<polygon class="st19" points="504.1,429.3 503,428.8 506.6,420.7 507.7,421.1 			"/>
		</g>
	</g>
	<path class="st17" d="M487.9,413.6c2.3,2.2,2.4,5.8,0.3,8.1c-2.2,2.3-5.8,2.4-8.1,0.3c-2.3-2.2-2.4-5.8-0.3-8.1
		C481.9,411.5,485.6,411.4,487.9,413.6z"/>
	<path class="st0" d="M472.4,440.3c0,0,10.1,3.8,14.7,30.2c4.6,26.5-3.1,68.7-3.1,68.7l-46.4-4.2l11.9-85.5
		C449.5,449.6,459.3,430.4,472.4,440.3z"/>
	<path class="st30" d="M484,539.2v13.6l28.5,54.5c0.9,1.7,1.4,3.5,1.7,5.4l8.7,77.6l-16.9,5.2c0,0-19-56-15.5-72.2l-46.6-60.1
		c0,0-10.2-12.7-6.1-28.1L484,539.2z"/>
	<path class="st28" d="M522.8,690.3l17.9,1.7c4.6,0.4,8.7,3,11.1,6.9l0,0c0.5,0.7,0,1.7-0.8,1.9l-41.6,8.6c-0.7,0.1-1.4-0.3-1.5-1
		l-2.1-12.9L522.8,690.3z"/>
	<path class="st28" d="M400.2,682.4l7.8,16.2c2,4.2,1.9,9-0.2,13.1l0,0c-0.4,0.8-1.4,0.9-2,0.3l-28.2-30.7c-0.5-0.5-0.4-1.3,0.1-1.8
		l9.3-8.9L400.2,682.4z"/>
	
		<linearGradient id="SVGID_6_" gradientUnits="userSpaceOnUse" x1="490.5769" y1="639.4858" x2="502.385" y2="675.3918" gradientTransform="matrix(1 0 0 -1 0 1080)">
		<stop  offset="0" style="stop-color:#B27247"/>
		<stop  offset="0.1767" style="stop-color:#9C6746"/>
		<stop  offset="0.5362" style="stop-color:#684C40"/>
		<stop  offset="1" style="stop-color:#2A272D"/>
	</linearGradient>
	<path class="st31" d="M511.6,409.2c0,1-0.3,2-0.6,2.8c-0.7,1.8-2,3.1-2.7,3.8c-3.8-0.9-7.6-1.9-11.4-2.8l-1.9-19.4
		c0.4,0.2,0.9,0.3,1.3,0.5c0.5,0.2,1,0.4,1.5,0.6c1.6,0.7,2.9,1.5,4.1,2.2c0.3,0.2,0.5,0.3,0.7,0.5c0,0,0,0,0.1,0
		c1.2,0.8,2.1,1.6,2.8,2.2c1,0.9,1.9,1.7,2.8,2.6c0,0.1,0.1,0.1,0.1,0.2C510.3,404.4,511.7,406.5,511.6,409.2z"/>
	<path class="st32" d="M361.2,599.9l-5,4.8l-6.2-6.2l5.2-4.9c1.7-1.6,4.5-1.5,6.1,0.2l0,0C363,595.6,362.9,598.3,361.2,599.9z"/>
	<path class="st32" d="M311,611.4l5.6,5.9l-58.3,56.9l-6.1-6.2c-2.2-2.3-2.2-5.9,0.1-8.1l50.6-48.6C305.2,609,308.8,609.1,311,611.4
		z"/>
	<rect x="350.5" y="578.6" transform="matrix(0.7132 -0.7009 0.7009 0.7132 -294.3025 441.3253)" width="83.3" height="3.5"/>
	<path class="st33" d="M420.7,552.4c1.8,1.8,4.7,1.8,6.6,0c1.8-1.8,1.8-4.7,0-6.6c-1.8-1.8-4.7-1.8-6.6,0
		C418.9,547.7,418.9,550.6,420.7,552.4z"/>
	<path class="st34" d="M370.9,615.9l-26.4-23.7c-3.7-3.3-9.4-3.2-13,0.3l-71.7,70.4c-3.7,3.7-3.8,9.6-0.2,13.4l26.4,27.2
		L370.9,615.9z"/>
	<g>
		<line class="st9" x1="249.7" y1="710.6" x2="271.5" y2="710.6"/>
		<line class="st9" x1="239" y1="710.6" x2="242.8" y2="710.6"/>
		<line class="st9" x1="257.8" y1="703.4" x2="279.5" y2="703.4"/>
	</g>
	<path d="M273.4,697.9c0,7,5.7,12.6,12.6,12.6c7,0,12.6-5.7,12.6-12.6c0-7-5.7-12.6-12.6-12.6C279,685.3,273.4,691,273.4,697.9z"/>
	<path class="st35" d="M280.7,697.9c0,2.9,2.4,5.3,5.3,5.3c2.9,0,5.3-2.4,5.3-5.3c0-2.9-2.4-5.3-5.3-5.3
		C283.1,692.6,280.7,695,280.7,697.9z"/>
	<path class="st17" d="M432.6,553c-2.1,4.7-7.7,6.9-12.4,4.8c-4.7-2.1-6.9-7.7-4.8-12.4c2.1-4.7,7.7-6.9,12.4-4.8
		C432.6,542.7,434.7,548.2,432.6,553z"/>
	<path class="st17" d="M446.8,483.2l-16.6,26l-1.3,34.5l-9.8-0.2l-4.5-36c-0.3-2,0.1-4,1-5.8l14.5-28L446.8,483.2z"/>
	<path class="st0" d="M460.9,438.2c-7.6,2.9-24.2,16.8-37.1,40.4l23.2,14.9c0,0,20.6-21.3,23.1-37.5
		C471.5,447.3,468.9,435.2,460.9,438.2z"/>
	<g>
		<path class="st0" d="M447,494.1c-0.1,0-0.2,0-0.3-0.1l-3.4-2.2c-0.3-0.2-0.4-0.6-0.2-0.9c0.2-0.3,0.6-0.4,0.9-0.2l3,1.9
			c2.5-1.9,18-14.7,21.9-34.2c0.1-0.3,0.4-0.6,0.7-0.5c0.3,0.1,0.6,0.4,0.5,0.7c-4.4,21.6-22.6,35.1-22.8,35.2
			C447.3,494.1,447.2,494.1,447,494.1z"/>
	</g>
</g>
<g id="Layer_5_1_">
	<line class="st9" x1="730.1" y1="358.3" x2="750.8" y2="358.3"/>
	<line class="st9" x1="723.7" y1="366.8" x2="744.3" y2="366.8"/>
	<g>
		<line class="st9" x1="285.5" y1="361.8" x2="301.2" y2="377.4"/>
		<line class="st9" x1="301.2" y1="361.8" x2="285.5" y2="377.4"/>
	</g>
	<g>
		<line class="st9" x1="750.8" y1="617.9" x2="766.5" y2="633.6"/>
		<line class="st9" x1="766.5" y1="617.9" x2="750.8" y2="633.6"/>
	</g>
	<rect x="719.5" y="496.5" class="st9" width="22.6" height="22.6"/>
	<circle class="st10" cx="599.1" cy="317.8" r="11.8"/>
	<path class="st10" d="M816.7,462.9l-6.3,8.4c-1.9,2.5-0.1,6.1,3.1,6.1h12.5c3.1,0,4.9-3.6,3.1-6.1l-6.3-8.4
		C821.3,460.8,818.1,460.8,816.7,462.9z"/>
	<path class="st9" d="M132.5,512l-10.2,13.8c-0.8,1.2,0,2.9,1.4,2.9h20.5c1.6,0,2.4-1.7,1.4-2.9L135.4,512
		C134.7,510.9,133.3,510.9,132.5,512z"/>
</g>
</svg>
