<?xml version="1.0" encoding="utf-8"?>
<!-- Generator: Adobe Illustrator 24.0.0, SVG Export Plug-In . SVG Version: 6.00 Build 0)  -->
<svg version="1.1" id="Layer_1" xmlns="http://www.w3.org/2000/svg" xmlns:xlink="http://www.w3.org/1999/xlink" x="0px" y="0px"
	 viewBox="0 0 50 50" style="enable-background:new 0 0 50 50;" xml:space="preserve">
<style type="text/css">
	.st0{fill:#FFFFFF;}
	.st1{fill:#27AAE1;}
</style>
<g>
	<g>
		<g>
			<path class="st1" d="M45.12,4.3h-4.65V2.93c0-1.62-1.31-2.93-2.93-2.93S34.6,1.31,34.6,2.93V4.3H18.2V2.93
				C18.2,1.31,16.88,0,15.27,0s-2.93,1.31-2.93,2.93v1.4c-0.08-0.02-0.17-0.04-0.26-0.04H8.19C5.49,4.3,3.3,6.49,3.3,9.18v16.63
				c0,0.54,0.44,0.98,0.98,0.98s0.98-0.44,0.98-0.98V14.36h35.21c0.54,0,0.98-0.44,0.98-0.98S41,12.4,40.46,12.4H5.26V9.18
				c0-1.62,1.31-2.93,2.93-2.93h3.89c0.09,0,0.18-0.01,0.26-0.04v1.26c0,1.62,1.31,2.93,2.93,2.93s2.93-1.31,2.93-2.93V6.25H34.6
				v1.22c0,1.62,1.31,2.93,2.93,2.93s2.93-1.31,2.93-2.93V6.25h4.65c1.62,0,2.93,1.31,2.93,2.93v37.11c0,0.97-0.79,1.76-1.76,1.76
				s-1.76-0.79-1.76-1.76v-2.53c0-0.54-0.44-0.98-0.98-0.98H32.19c-0.54,0-0.98,0.44-0.98,0.98s0.44,0.98,0.98,0.98h10.38v1.55
				c0,0.64,0.16,1.23,0.44,1.76H3.71c-0.97,0-1.76-0.79-1.76-1.76v-1.55h21.86c0.54,0,0.98-0.44,0.98-0.98s-0.44-0.98-0.98-0.98
				h-9.76c1.71-1.47,2.79-3.64,2.79-6.07c0-4.42-3.59-8.01-8.01-8.01s-8.01,3.59-8.01,8.01c0,2.42,1.08,4.6,2.79,6.07H0.98
				C0.44,42.79,0,43.22,0,43.76v2.53C0,48.34,1.66,50,3.71,50h42.58c2.05,0,3.71-1.66,3.71-3.71V9.18C50,6.49,47.81,4.3,45.12,4.3z
				 M16.24,7.47c0,0.54-0.44,0.98-0.98,0.98c-0.54,0-0.98-0.44-0.98-0.98V2.93c0-0.54,0.44-0.98,0.98-0.98
				c0.54,0,0.98,0.44,0.98,0.98V7.47z M38.51,7.47c0,0.54-0.44,0.98-0.98,0.98s-0.98-0.44-0.98-0.98V2.93
				c0-0.54,0.44-0.98,0.98-0.98s0.98,0.44,0.98,0.98V7.47z M2.78,36.72c0-3.34,2.72-6.05,6.05-6.05s6.05,2.72,6.05,6.05
				s-2.72,6.05-6.05,6.05S2.78,40.06,2.78,36.72z"/>
		</g>
	</g>
	<g>
		<g>
			<path class="st1" d="M45.73,12.69c-0.18-0.18-0.43-0.29-0.69-0.29c-0.26,0-0.51,0.1-0.69,0.29s-0.29,0.43-0.29,0.69
				s0.1,0.51,0.29,0.69c0.18,0.18,0.43,0.29,0.69,0.29c0.26,0,0.51-0.1,0.69-0.29c0.18-0.18,0.29-0.43,0.29-0.69
				S45.92,12.87,45.73,12.69z"/>
		</g>
	</g>
	<g>
		<g>
			<path class="st1" d="M29.16,43.07c-0.18-0.18-0.43-0.29-0.69-0.29c-0.26,0-0.51,0.1-0.69,0.29c-0.18,0.18-0.29,0.43-0.29,0.69
				c0,0.26,0.1,0.51,0.29,0.69c0.18,0.18,0.43,0.29,0.69,0.29c0.26,0,0.51-0.1,0.69-0.29c0.18-0.18,0.29-0.43,0.29-0.69
				C29.45,43.5,29.35,43.25,29.16,43.07z"/>
		</g>
	</g>
	<g>
		<g>
			<path class="st1" d="M22.09,29.69c-2.05,0-3.71,1.66-3.71,3.71s1.66,3.71,3.71,3.71s3.71-1.66,3.71-3.71S24.14,29.69,22.09,29.69
				z M22.09,35.16c-0.97,0-1.76-0.79-1.76-1.76s0.79-1.76,1.76-1.76s1.76,0.79,1.76,1.76S23.06,35.16,22.09,35.16z"/>
		</g>
	</g>
	<g>
		<g>
			<path class="st1" d="M31.21,29.69c-2.05,0-3.71,1.66-3.71,3.71s1.66,3.71,3.71,3.71s3.71-1.66,3.71-3.71S33.25,29.69,31.21,29.69
				z M31.21,35.16c-0.97,0-1.76-0.79-1.76-1.76s0.79-1.76,1.76-1.76s1.76,0.79,1.76,1.76S32.18,35.16,31.21,35.16z"/>
		</g>
	</g>
	<g>
		<g>
			<path class="st1" d="M40.32,29.69c-2.05,0-3.71,1.66-3.71,3.71s1.66,3.71,3.71,3.71s3.71-1.66,3.71-3.71S42.37,29.69,40.32,29.69
				z M40.32,35.16c-0.97,0-1.76-0.79-1.76-1.76s0.79-1.76,1.76-1.76s1.76,0.79,1.76,1.76S41.29,35.16,40.32,35.16z"/>
		</g>
	</g>
	<g>
		<g>
			<path class="st1" d="M12.98,19.53c-2.05,0-3.71,1.66-3.71,3.71s1.66,3.71,3.71,3.71s3.71-1.66,3.71-3.71S15.03,19.53,12.98,19.53
				z M12.98,25c-0.97,0-1.76-0.79-1.76-1.76s0.79-1.76,1.76-1.76s1.76,0.79,1.76,1.76S13.95,25,12.98,25z"/>
		</g>
	</g>
	<g>
		<g>
			<path class="st1" d="M31.21,19.53c-2.05,0-3.71,1.66-3.71,3.71s1.66,3.71,3.71,3.71s3.71-1.66,3.71-3.71S33.25,19.53,31.21,19.53
				z M31.21,25c-0.97,0-1.76-0.79-1.76-1.76s0.79-1.76,1.76-1.76s1.76,0.79,1.76,1.76S32.18,25,31.21,25z"/>
		</g>
	</g>
	<g>
		<g>
			<path class="st1" d="M40.32,19.53c-2.05,0-3.71,1.66-3.71,3.71s1.66,3.71,3.71,3.71s3.71-1.66,3.71-3.71S42.37,19.53,40.32,19.53
				z M40.32,25c-0.97,0-1.76-0.79-1.76-1.76s0.79-1.76,1.76-1.76s1.76,0.79,1.76,1.76S41.29,25,40.32,25z"/>
		</g>
	</g>
	<g>
		<g>
			<path class="st1" d="M22.09,19.53c-2.05,0-3.71,1.66-3.71,3.71s1.66,3.71,3.71,3.71s3.71-1.66,3.71-3.71S24.14,19.53,22.09,19.53
				z M22.09,25c-0.97,0-1.76-0.79-1.76-1.76s0.79-1.76,1.76-1.76s1.76,0.79,1.76,1.76S23.06,25,22.09,25z"/>
		</g>
	</g>
	<g>
		<g>
			<path class="st1" d="M12.31,34.34c-0.38-0.38-1-0.38-1.38,0l-3.18,3.18l-1.09-1.09c-0.38-0.38-1-0.38-1.38,0
				c-0.38,0.38-0.38,1,0,1.38l1.78,1.78c0.18,0.18,0.43,0.29,0.69,0.29c0.26,0,0.51-0.1,0.69-0.29l3.87-3.87
				C12.7,35.34,12.7,34.72,12.31,34.34z"/>
		</g>
	</g>
</g>
</svg>
