<?xml version="1.0" encoding="utf-8"?>
<!-- Generator: Adobe Illustrator 24.0.0, SVG Export Plug-In . SVG Version: 6.00 Build 0)  -->
<svg version="1.1" id="Layer_1" xmlns="http://www.w3.org/2000/svg" xmlns:xlink="http://www.w3.org/1999/xlink" x="0px" y="0px"
	 viewBox="0 0 50 50" style="enable-background:new 0 0 50 50;" xml:space="preserve">
<style type="text/css">
	.st0{fill:#FFFFFF;}
	.st1{fill:#27AAE1;}
</style>
<g>
	<g>
		<g>
			<path class="st1" d="M47.14,13.24c-0.02-0.08-0.05-0.15-0.09-0.22c-1.89-4.39-6.26-7.47-11.33-7.47H15.7
				c-0.42-2.05-2.24-3.6-4.41-3.6H2.85c-0.5,0-0.9,0.4-0.9,0.9s0.4,0.9,0.9,0.9h8.43c1.17,0,2.17,0.75,2.55,1.8H2.85
				c-0.5,0-0.9,0.4-0.9,0.9s0.4,0.9,0.9,0.9h32.86c3.87,0,7.26,2.1,9.09,5.22h-5.45c-0.61,0-1.19,0.15-1.7,0.41
				c-0.02,0.01-0.04,0.02-0.06,0.03c-1.18,0.63-1.98,1.87-1.98,3.3v3.56c0,0,0,0,0,0v7.34c0,2.06,1.68,3.74,3.74,3.74h6.89v10.98
				h-4.58c-0.43-2.45-2.57-4.32-5.14-4.32s-4.71,1.87-5.14,4.32h-0.75V24.28c0-0.5-0.4-0.9-0.9-0.9h-10.8c-0.5,0-0.9,0.4-0.9,0.9
				v17.65h-3.82c-0.43-2.45-2.57-4.32-5.14-4.32s-4.71,1.87-5.14,4.32H2.85c-0.5,0-0.9,0.4-0.9,0.9s0.4,0.9,0.9,0.9h1.07
				c0.43,2.45,2.57,4.32,5.14,4.32s4.71-1.87,5.14-4.32h17.17c0.43,2.45,2.57,4.32,5.14,4.32s4.71-1.87,5.14-4.32h5.48
				c0.5,0,0.9-0.4,0.9-0.9V17.89C48.05,16.24,47.72,14.68,47.14,13.24z M9.06,46.25c-1.89,0-3.42-1.53-3.42-3.42
				s1.53-3.42,3.42-3.42s3.42,1.53,3.42,3.42S10.95,46.25,9.06,46.25z M23.42,41.93h-3.6v-9.58l3.6,3.6V41.93z M23.42,33.4l-3.6-3.6
				v-4.62h3.6V33.4z M28.83,41.93h-3.6v-5.98l3.6-3.6V41.93z M28.83,29.8l-3.6,3.6v-8.22h3.6V29.8z M36.52,46.25
				c-1.89,0-3.42-1.53-3.42-3.42s1.53-3.42,3.42-3.42s3.42,1.53,3.42,3.42S38.41,46.25,36.52,46.25z M39.36,29.14
				c-1.07,0-1.94-0.87-1.94-1.94v-5.16l7.1,7.1H39.36z M46.25,28.32l-8.82-8.82v-3.18c0-0.52,0.2-0.98,0.53-1.33l5.13,5.13
				c0.18,0.18,0.41,0.26,0.64,0.26s0.46-0.09,0.64-0.26c0.35-0.35,0.35-0.92,0-1.27l-4.46-4.46h5.74c0.39,1.1,0.6,2.28,0.6,3.51
				V28.32z"/>
		</g>
	</g>
	<g>
		<g>
			<path class="st1" d="M29.73,12.58H2.85c-0.5,0-0.9,0.4-0.9,0.9c0,0.5,0.4,0.9,0.9,0.9h26.87c0.5,0,0.9-0.4,0.9-0.9
				C30.63,12.98,30.22,12.58,29.73,12.58z"/>
		</g>
	</g>
	<g>
		<g>
			<path class="st1" d="M33.89,12.84c-0.17-0.17-0.4-0.26-0.64-0.26s-0.47,0.1-0.64,0.26c-0.17,0.17-0.26,0.4-0.26,0.64
				c0,0.24,0.1,0.47,0.26,0.64c0.17,0.17,0.4,0.26,0.64,0.26s0.47-0.1,0.64-0.26c0.17-0.17,0.26-0.4,0.26-0.64
				C34.15,13.24,34.06,13.01,33.89,12.84z"/>
		</g>
	</g>
	<g>
		<g>
			<path class="st1" d="M29.73,16.18h-10.8c-0.5,0-0.9,0.4-0.9,0.9v3.6c0,0.5,0.4,0.9,0.9,0.9h10.8c0.5,0,0.9-0.4,0.9-0.9v-3.6
				C30.63,16.58,30.22,16.18,29.73,16.18z M28.83,19.78h-9v-1.8h9V19.78z"/>
		</g>
	</g>
	<g>
		<g>
			<path class="st1" d="M3.49,29.41c-0.17-0.17-0.4-0.26-0.64-0.26c-0.24,0-0.47,0.1-0.64,0.26c-0.17,0.17-0.26,0.4-0.26,0.64
				s0.1,0.47,0.26,0.64c0.17,0.17,0.4,0.26,0.64,0.26c0.24,0,0.47-0.1,0.64-0.26c0.17-0.17,0.26-0.4,0.26-0.64
				S3.66,29.57,3.49,29.41z"/>
		</g>
	</g>
	<g>
		<g>
			<path class="st1" d="M15.28,16.18H2.85c-0.5,0-0.9,0.4-0.9,0.9c0,0.5,0.4,0.9,0.9,0.9h11.52v11.16H6.36c-0.5,0-0.9,0.4-0.9,0.9
				s0.4,0.9,0.9,0.9h8.91c0.5,0,0.9-0.4,0.9-0.9V17.08C16.18,16.58,15.77,16.18,15.28,16.18z"/>
		</g>
	</g>
</g>
</svg>
