<?xml version="1.0" encoding="utf-8"?>
<!-- Generator: Adobe Illustrator 24.0.0, SVG Export Plug-In . SVG Version: 6.00 Build 0)  -->
<svg version="1.1" id="Layer_1" xmlns="http://www.w3.org/2000/svg" xmlns:xlink="http://www.w3.org/1999/xlink" x="0px" y="0px"
	 viewBox="0 0 50 50" style="enable-background:new 0 0 50 50;" xml:space="preserve">
<style type="text/css">
	.st0{fill:#FFFFFF;}
	.st1{fill:#27AAE1;}
</style>
<g>
	<path class="st0" d="M48.05,9.45V6.71c0-1.49-1.21-2.7-2.68-2.7h-1.72C43.24,1.74,41.26,0,38.86,0H11.14
		C8.75,0,6.76,1.74,6.35,4.01h-1.7c-1.49,0-2.7,1.21-2.7,2.7v2.73c-1.14,0.4-1.95,1.49-1.95,2.75v3.65c0,1.63,1.31,2.93,2.93,2.93
		c1.61,0,2.93-1.3,2.93-2.93V12.2c0-1.26-0.81-2.35-1.95-2.75V6.71c0-0.42,0.33-0.74,0.74-0.74h1.61v32.4
		c0,1.96,1.16,3.65,2.84,4.42v3.49c0,2.05,1.66,3.72,3.72,3.72c2.03,0,3.7-1.66,3.7-3.72v-3.03H33.5v3.03
		c0,2.05,1.66,3.72,3.72,3.72c2.03,0,3.72-1.66,3.72-3.72V42.8c1.65-0.77,2.8-2.45,2.8-4.42V5.98h1.63c0.4,0,0.72,0.32,0.72,0.74
		v2.73c-1.12,0.4-1.95,1.49-1.95,2.75v3.65c0,1.63,1.31,2.93,2.94,2.93c1.59,0,2.91-1.3,2.91-2.93V12.2
		C49.99,10.94,49.17,9.85,48.05,9.45z M8.21,25.41V9.78h15.83v19.21H11.79L8.21,25.41z M13.68,39.05c-1.61,0-2.93-1.3-2.93-2.93
		c0-1.61,1.31-2.93,2.93-2.93c1.63,0,2.93,1.31,2.93,2.93C16.61,37.75,15.31,39.05,13.68,39.05z M29.12,37.1h-8.2v-1.95h8.2V37.1z
		 M36.32,39.05c-1.61,0-2.94-1.3-2.94-2.93c0-1.61,1.33-2.93,2.94-2.93c1.61,0,2.93,1.31,2.93,2.93
		C39.25,37.75,37.93,39.05,36.32,39.05z M41.79,25.41l-3.56,3.58H25.96V9.78h15.83V25.41z"/>
</g>
</svg>
